<svg xmlns="http://www.w3.org/2000/svg" xmlns:xlink="http://www.w3.org/1999/xlink" xml:space="preserve">
  <symbol id="wallet-none" viewBox="0 0 334.877 334.877">
    <path style="fill:#949494;" d="M333.196,155.999h-16.067V82.09c0-17.719-14.415-32.134-32.134-32.134h-21.761L240.965,9.917
		C237.571,3.798,231.112,0,224.107,0c-3.265,0-6.504,0.842-9.364,2.429l-85.464,47.526H33.815
		c-17.719,0-32.134,14.415-32.134,32.134v220.653c0,17.719,14.415,32.134,32.134,32.134h251.18
		c17.719,0,32.134-14.415,32.134-32.134v-64.802h16.067V155.999z M284.995,62.809c9.897,0,17.982,7.519,19.068,17.14h-24.152
		l-9.525-17.14H284.995z M220.996,13.663c3.014-1.69,7.07-0.508,8.734,2.494l35.476,63.786H101.798L220.996,13.663z
		 M304.275,302.742c0,10.63-8.651,19.281-19.281,19.281H33.815c-10.63,0-19.281-8.651-19.281-19.281V82.09
		c0-10.63,8.651-19.281,19.281-19.281h72.353L75.345,79.95H37.832c-3.554,0-6.427,2.879-6.427,6.427s2.873,6.427,6.427,6.427h14.396
		h234.83h17.217v63.201h-46.999c-21.826,0-39.589,17.764-39.589,39.589v2.764c0,21.826,17.764,39.589,39.589,39.589h46.999V302.742z
		 M320.342,225.087h-3.213h-59.853c-14.743,0-26.736-11.992-26.736-26.736v-2.764c0-14.743,11.992-26.736,26.736-26.736h59.853
		h3.213V225.087z M276.961,197.497c0,7.841-6.35,14.19-14.19,14.19c-7.841,0-14.19-6.35-14.19-14.19s6.35-14.19,14.19-14.19
		C270.612,183.306,276.961,189.662,276.961,197.497z"/>
  </symbol>

  <symbol id="wallet" viewBox="0 0 334.877 334.877">
    <path style="fill:#4ea31e;" d="M333.196,155.999h-16.067V82.09c0-17.719-14.415-32.134-32.134-32.134h-21.761L240.965,9.917
		C237.571,3.798,231.112,0,224.107,0c-3.265,0-6.504,0.842-9.364,2.429l-85.464,47.526H33.815
		c-17.719,0-32.134,14.415-32.134,32.134v220.653c0,17.719,14.415,32.134,32.134,32.134h251.18
		c17.719,0,32.134-14.415,32.134-32.134v-64.802h16.067V155.999z M284.995,62.809c9.897,0,17.982,7.519,19.068,17.14h-24.152
		l-9.525-17.14H284.995z M220.996,13.663c3.014-1.69,7.07-0.508,8.734,2.494l35.476,63.786H101.798L220.996,13.663z
		 M304.275,302.742c0,10.63-8.651,19.281-19.281,19.281H33.815c-10.63,0-19.281-8.651-19.281-19.281V82.09
		c0-10.63,8.651-19.281,19.281-19.281h72.353L75.345,79.95H37.832c-3.554,0-6.427,2.879-6.427,6.427s2.873,6.427,6.427,6.427h14.396
		h234.83h17.217v63.201h-46.999c-21.826,0-39.589,17.764-39.589,39.589v2.764c0,21.826,17.764,39.589,39.589,39.589h46.999V302.742z
		 M320.342,225.087h-3.213h-59.853c-14.743,0-26.736-11.992-26.736-26.736v-2.764c0-14.743,11.992-26.736,26.736-26.736h59.853
		h3.213V225.087z M276.961,197.497c0,7.841-6.35,14.19-14.19,14.19c-7.841,0-14.19-6.35-14.19-14.19s6.35-14.19,14.19-14.19
		C270.612,183.306,276.961,189.662,276.961,197.497z"/>
  </symbol>

  <symbol id="dish-none" viewBox="0 0 480 480">
    <g>
		<path style="fill:#949494;" d="M339.904,161.776l-5.136-16.904c-6.524-19.202-27.379-29.479-46.581-22.955c-10.802,3.67-19.285,12.153-22.955,22.955
			l-5.136,16.904c-4.322,14.256-5.229,29.329-2.648,44c2.354,12.352,10.196,22.964,21.312,28.84L273.008,363.2
			c-0.77,7.177,1.558,14.342,6.4,19.696c10.413,11.39,28.089,12.182,39.479,1.769c0.616-0.563,1.206-1.153,1.769-1.769
			c4.734-5.202,7.058-12.157,6.4-19.16L321.272,234.6c11.101-5.879,18.93-16.484,21.28-28.824
			C345.133,191.105,344.226,176.032,339.904,161.776z M326.792,202.992c-1.732,8.874-8.056,16.155-16.6,19.112
			c-3.243,1.219-5.332,4.387-5.176,7.848L311.096,365c0.28,2.649-0.594,5.29-2.4,7.248c-4.817,4.769-12.575,4.769-17.392,0
			c-1.896-2.116-2.757-4.964-2.352-7.776l6.032-134.52c0.156-3.461-1.933-6.629-5.176-7.848c-8.544-2.957-14.868-10.238-16.6-19.112
			c-2.14-12.18-1.386-24.693,2.2-36.528l5.136-16.912c3.974-10.745,15.906-16.234,26.652-12.26c5.681,2.101,10.159,6.58,12.26,12.26
			l5.136,16.912C328.174,178.3,328.928,190.812,326.792,202.992z"/>
	  </g>
	  <g>
	  	<path style="fill:#949494;" d="M216,120c-4.418,0-8,3.582-8,8v68.688l-21.656,21.656c-1.602,1.596-2.454,3.797-2.344,6.056l7,140
	  		c0.167,3.019-0.929,5.972-3.024,8.152c-4.379,4.418-11.511,4.45-15.93,0.07c-0.024-0.023-0.047-0.047-0.07-0.07
	  		c-2.096-2.18-3.191-5.133-3.024-8.152l7.048-140c0.112-2.258-0.737-4.458-2.336-6.056L152,196.688V128c0-4.418-3.582-8-8-8
	  		s-8,3.582-8,8v72c0,2.122,0.844,4.156,2.344,5.656l21.488,21.496l-6.824,136.472c-0.726,14.907,10.77,27.581,25.677,28.307
	  		c14.907,0.726,27.581-10.77,28.307-25.677c0.043-0.876,0.043-1.753,0-2.629l-6.824-136.472l21.488-21.496
	  		c1.5-1.5,2.344-3.534,2.344-5.656v-72C224,123.582,220.418,120,216,120z"/>
	  </g>
	  <g>
	  	<path style="fill:#949494;" d="M168,120c-4.418,0-8,3.582-8,8v64c0,4.418,3.582,8,8,8s8-3.582,8-8v-64C176,123.582,172.418,120,168,120z"/>
	  </g>
	  <g>
	  	<path style="fill:#949494;" d="M192,120c-4.418,0-8,3.582-8,8v64c0,4.418,3.582,8,8,8s8-3.582,8-8v-64C200,123.582,196.418,120,192,120z"/>
	  </g>
	  <g>
	  	<path style="fill:#949494;" d="M240,0C107.452,0,0,107.452,0,240s107.452,240,240,240s240-107.452,240-240C479.85,107.514,372.486,0.15,240,0z M240,464
	  		C116.288,464,16,363.712,16,240S116.288,16,240,16s224,100.288,224,224C463.859,363.653,363.653,463.859,240,464z"/>
	  </g>
  </symbol>

  <symbol id="dish" viewBox="0 0 480 480">
    <g>
		<path style="fill:#4ea31e;" d="M339.904,161.776l-5.136-16.904c-6.524-19.202-27.379-29.479-46.581-22.955c-10.802,3.67-19.285,12.153-22.955,22.955
			l-5.136,16.904c-4.322,14.256-5.229,29.329-2.648,44c2.354,12.352,10.196,22.964,21.312,28.84L273.008,363.2
			c-0.77,7.177,1.558,14.342,6.4,19.696c10.413,11.39,28.089,12.182,39.479,1.769c0.616-0.563,1.206-1.153,1.769-1.769
			c4.734-5.202,7.058-12.157,6.4-19.16L321.272,234.6c11.101-5.879,18.93-16.484,21.28-28.824
			C345.133,191.105,344.226,176.032,339.904,161.776z M326.792,202.992c-1.732,8.874-8.056,16.155-16.6,19.112
			c-3.243,1.219-5.332,4.387-5.176,7.848L311.096,365c0.28,2.649-0.594,5.29-2.4,7.248c-4.817,4.769-12.575,4.769-17.392,0
			c-1.896-2.116-2.757-4.964-2.352-7.776l6.032-134.52c0.156-3.461-1.933-6.629-5.176-7.848c-8.544-2.957-14.868-10.238-16.6-19.112
			c-2.14-12.18-1.386-24.693,2.2-36.528l5.136-16.912c3.974-10.745,15.906-16.234,26.652-12.26c5.681,2.101,10.159,6.58,12.26,12.26
			l5.136,16.912C328.174,178.3,328.928,190.812,326.792,202.992z"/>
	  </g>
	  <g>
	  	<path style="fill:#4ea31e;" d="M216,120c-4.418,0-8,3.582-8,8v68.688l-21.656,21.656c-1.602,1.596-2.454,3.797-2.344,6.056l7,140
	  		c0.167,3.019-0.929,5.972-3.024,8.152c-4.379,4.418-11.511,4.45-15.93,0.07c-0.024-0.023-0.047-0.047-0.07-0.07
	  		c-2.096-2.18-3.191-5.133-3.024-8.152l7.048-140c0.112-2.258-0.737-4.458-2.336-6.056L152,196.688V128c0-4.418-3.582-8-8-8
	  		s-8,3.582-8,8v72c0,2.122,0.844,4.156,2.344,5.656l21.488,21.496l-6.824,136.472c-0.726,14.907,10.77,27.581,25.677,28.307
	  		c14.907,0.726,27.581-10.77,28.307-25.677c0.043-0.876,0.043-1.753,0-2.629l-6.824-136.472l21.488-21.496
	  		c1.5-1.5,2.344-3.534,2.344-5.656v-72C224,123.582,220.418,120,216,120z"/>
	  </g>
	  <g>
	  	<path style="fill:#4ea31e;" d="M168,120c-4.418,0-8,3.582-8,8v64c0,4.418,3.582,8,8,8s8-3.582,8-8v-64C176,123.582,172.418,120,168,120z"/>
	  </g>
	  <g>
	  	<path style="fill:#4ea31e;" d="M192,120c-4.418,0-8,3.582-8,8v64c0,4.418,3.582,8,8,8s8-3.582,8-8v-64C200,123.582,196.418,120,192,120z"/>
	  </g>
	  <g>
	  	<path style="fill:#4ea31e;" d="M240,0C107.452,0,0,107.452,0,240s107.452,240,240,240s240-107.452,240-240C479.85,107.514,372.486,0.15,240,0z M240,464
	  		C116.288,464,16,363.712,16,240S116.288,16,240,16s224,100.288,224,224C463.859,363.653,363.653,463.859,240,464z"/>
	  </g>
  </symbol>

  <symbol id="money-return-none" viewBox="0 0 512 512">
    <path style="fill:#949494;" d="M371.9,144L475,171.1L501,68l-19.8-5.2l-16.9,64.3C421.1,57.4,344,11,256,11C120.7,11,11,120.7,11,256    c0,135.3,109.7,245,245,245c90.3,0,169.1-48.8,211.6-121.5l-17.7-9.6c-39.1,66.4-111.3,111-193.9,111    C131.8,480.9,31.1,380.2,31.1,256S131.8,31.1,256,31.1c83.3,0,156.1,45.3,194.9,112.7l-73.8-19.6L371.9,144z"/>
    <path style="fill:#949494;" d="m266.8,364.7v-18.7c17.7-1 31.2-6.2 41.6-15.6s15.6-21.9 15.6-36.4c0-15.6-4.2-27.1-13.5-34.4-9.4-8.3-22.9-14.6-42.7-18.7h-1v-47.9c13.5,2.1 25,6.2 36.4,14.6l16.7-22.9c-16.7-11.5-34.4-17.7-53.1-18.7v-12.5h-15.6v12.5c-15.6,1-29.2,6.2-39.6,15.6-10.4,9.4-15.6,21.9-15.6,36.4s4.2,26 13.5,33.3c8.3,7.3 22.9,13.5 41.6,17.7v48.9c-14.6-2.1-29.2-9.4-43.7-21.9l-18.7,21.9c18.7,16.7 39.6,26 62.5,28.1v18.7h15.6zm1-90.6c10.4,3.1 16.7,6.2 20.8,9.4 3.1,4.2 5.2,8.3 5.2,14.6s-2.1,10.4-7.3,14.6c-5.2,4.2-11.5,6.2-18.7,7.3v-45.9zm-36.4-44.7c-3.1-3.1-5.2-8.3-5.2-13.5 0-6.2 2.1-10.4 6.2-14.6 5.2-4.2 10.4-6.2 18.7-7.3v44.8c-10.4-3.2-16.6-6.3-19.7-9.4z"/>
  </symbol>

  <symbol id="money-return" viewBox="0 0 512 512">
     <path style="fill:#4ea31e;" d="M371.9,144L475,171.1L501,68l-19.8-5.2l-16.9,64.3C421.1,57.4,344,11,256,11C120.7,11,11,120.7,11,256    c0,135.3,109.7,245,245,245c90.3,0,169.1-48.8,211.6-121.5l-17.7-9.6c-39.1,66.4-111.3,111-193.9,111    C131.8,480.9,31.1,380.2,31.1,256S131.8,31.1,256,31.1c83.3,0,156.1,45.3,194.9,112.7l-73.8-19.6L371.9,144z"/>
      <path style="fill:#4ea31e;" d="m266.8,364.7v-18.7c17.7-1 31.2-6.2 41.6-15.6s15.6-21.9 15.6-36.4c0-15.6-4.2-27.1-13.5-34.4-9.4-8.3-22.9-14.6-42.7-18.7h-1v-47.9c13.5,2.1 25,6.2 36.4,14.6l16.7-22.9c-16.7-11.5-34.4-17.7-53.1-18.7v-12.5h-15.6v12.5c-15.6,1-29.2,6.2-39.6,15.6-10.4,9.4-15.6,21.9-15.6,36.4s4.2,26 13.5,33.3c8.3,7.3 22.9,13.5 41.6,17.7v48.9c-14.6-2.1-29.2-9.4-43.7-21.9l-18.7,21.9c18.7,16.7 39.6,26 62.5,28.1v18.7h15.6zm1-90.6c10.4,3.1 16.7,6.2 20.8,9.4 3.1,4.2 5.2,8.3 5.2,14.6s-2.1,10.4-7.3,14.6c-5.2,4.2-11.5,6.2-18.7,7.3v-45.9zm-36.4-44.7c-3.1-3.1-5.2-8.3-5.2-13.5 0-6.2 2.1-10.4 6.2-14.6 5.2-4.2 10.4-6.2 18.7-7.3v44.8c-10.4-3.2-16.6-6.3-19.7-9.4z"/>
  </symbol>

  <symbol id="star-empty" viewBox="0 0 53.867 53.867">
    <polygon style="fill: #949494" points="26.934,1.318 35.256,18.182 53.867,20.887 40.4,34.013 43.579,52.549 26.934,43.798
	10.288,52.549 13.467,34.013 0,20.887 18.611,18.182 "/>
  </symbol>

  <symbol id="star" viewBox="0 0 53.867 53.867">
    <polygon style="fill:#f49530;" points="26.934,1.318 35.256,18.182 53.867,20.887 40.4,34.013 43.579,52.549 26.934,43.798
	10.288,52.549 13.467,34.013 0,20.887 18.611,18.182 "/>
  </symbol>

  <symbol id="geo-tag" viewBox="0 0 80 80">
    <path d="M40,0C26.191,0,15,11.194,15,25c0,23.87,25,55,25,55s25-31.13,25-55C65,11.194,53.807,0,40,0z
			 M40,38.8c-7.457,0-13.5-6.044-13.5-13.5S32.543,11.8,40,11.8c7.455,0,13.5,6.044,13.5,13.5S47.455,38.8,40,38.8z"/>
	</symbol>

  <symbol id="hotel" viewBox="0 0 380 380">
    <path d="M303.838,353.36V106.867h7.697V64.12H68.465v42.747h7.697V353.36H61.759V380h256.482v-26.64H303.838z M145.162,336.865
	  	h-40.424v-40.424h40.424V336.865z M145.162,278.32h-40.424v-40.424h40.424V278.32z M145.162,219.775h-40.424v-40.424h40.424
	  	V219.775z M145.162,161.23h-40.424v-40.424h40.424V161.23z M210.213,353.36h-40.426v-56.919h40.426V353.36z M210.213,278.32
	  	h-40.426v-40.424h40.426V278.32z M210.213,219.775h-40.426v-40.424h40.426V219.775z M210.213,161.23h-40.426v-40.424h40.426V161.23
	  	z M275.262,336.865h-40.424v-40.424h40.424V336.865z M275.262,278.32h-40.424v-40.424h40.424V278.32z M275.262,219.775h-40.424
	  	v-40.424h40.424V219.775z M275.262,161.23h-40.424v-40.424h40.424V161.23z"/>
	  <polygon points="111.373,55.757 129.489,46.232 147.606,55.757 144.146,35.584 158.803,21.297 138.548,18.354 129.489,0
	  	120.43,18.354 100.176,21.297 114.832,35.584 	"/>
	  <polygon points="171.883,55.757 190,46.232 208.117,55.757 204.656,35.584 219.313,21.297 199.059,18.354 190,0 180.941,18.354
	  	160.687,21.297 175.344,35.584 	"/>
	  <polygon points="232.394,55.757 250.511,46.232 268.627,55.757 265.168,35.584 279.824,21.297 259.57,18.354 250.511,0
	  	241.452,18.354 221.197,21.297 235.854,35.584 	"/>
  </symbol>

  <symbol id="bed" viewBox="0 0 374 374">
    <path style="fill:#4ea31e;" d="M337.6,158.6v-0.4V97.8c0-27.2-19.2-37.2-37.2-37.2h-228c-18,0-37.2,9.6-37.2,37.2v60.4v0.4c-18,2-35.2,14-35.2,41.6v47.2
			c0,8,6.4,14.4,14.4,14.4h4.8V299c0,8,6.4,14.4,14.4,14.4h13.6c8,0,14.4-6.4,14.4-14.4v-37.6h250.8V299c0,8,6.4,14.4,14.4,14.4
			h13.6c8,0,14.4-6.4,14.4-14.4v-37.6h4.8c8,0,14.4-6.4,14.4-14.4v-46.8C372.8,172.6,355.6,160.6,337.6,158.6z M48.8,97.8h0.8
			C49.6,79,62,75,72.4,75h228c10.4,0,22.8,4,22.8,22.8v60.4h-10.8v-34.4c0-8-6.4-14.4-14.4-14.4h-88c-8,0-14.4,6.4-14.4,14.4v34.4
			h-16.8v-34.4c0-8-6.4-14.4-14.4-14.4h-88c-8,0-14.4,6.4-14.4,14.4v34.4H48.8V97.8z M298,123.8v34.4h-88v-34.4H298z M165.2,123.8
			v34.4h-88v-34.4H165.2z M46.8,299H33.2v-37.6h13.6V299z M339.6,299H326v-37.6h13.6V299z M358.4,247.4h-18.8H326H46.8H33.2H14
			v-21.2h344.4V247.4z M358.4,211.8H14v-11.6c0-24,17.6-27.6,27.6-27.6h7.6h27.6h88H210h88h25.2h7.6c10.4,0,27.6,3.6,27.6,27.6
			V211.8z"/>
  </symbol>

  <symbol id="bed-none" viewBox="0 0 374 374">
    <path style="fill:#949494;" d="M337.6,158.6v-0.4V97.8c0-27.2-19.2-37.2-37.2-37.2h-228c-18,0-37.2,9.6-37.2,37.2v60.4v0.4c-18,2-35.2,14-35.2,41.6v47.2
			c0,8,6.4,14.4,14.4,14.4h4.8V299c0,8,6.4,14.4,14.4,14.4h13.6c8,0,14.4-6.4,14.4-14.4v-37.6h250.8V299c0,8,6.4,14.4,14.4,14.4
			h13.6c8,0,14.4-6.4,14.4-14.4v-37.6h4.8c8,0,14.4-6.4,14.4-14.4v-46.8C372.8,172.6,355.6,160.6,337.6,158.6z M48.8,97.8h0.8
			C49.6,79,62,75,72.4,75h228c10.4,0,22.8,4,22.8,22.8v60.4h-10.8v-34.4c0-8-6.4-14.4-14.4-14.4h-88c-8,0-14.4,6.4-14.4,14.4v34.4
			h-16.8v-34.4c0-8-6.4-14.4-14.4-14.4h-88c-8,0-14.4,6.4-14.4,14.4v34.4H48.8V97.8z M298,123.8v34.4h-88v-34.4H298z M165.2,123.8
			v34.4h-88v-34.4H165.2z M46.8,299H33.2v-37.6h13.6V299z M339.6,299H326v-37.6h13.6V299z M358.4,247.4h-18.8H326H46.8H33.2H14
			v-21.2h344.4V247.4z M358.4,211.8H14v-11.6c0-24,17.6-27.6,27.6-27.6h7.6h27.6h88H210h88h25.2h7.6c10.4,0,27.6,3.6,27.6,27.6
			V211.8z"/>
  </symbol>

  <symbol id="list" viewBox="0 0 20 12">
    <path d="M1.71023 10.29C1.61513 10.199 1.50298 10.1276 1.38023 10.08C1.13677 9.97998 0.863694 9.97998 0.620233 10.08C0.497481 10.1276 0.385336 10.199 0.290233 10.29C0.199192 10.3851 0.127827 10.4972 0.0802326 10.62C0.00365316 10.8021 -0.0172695 11.0028 0.0201046 11.1968C0.0574787 11.3908 0.151475 11.5694 0.290233 11.71C0.387233 11.798 0.499233 11.87 0.620233 11.92C0.739933 11.9729 0.869362 12.0002 1.00023 12.0002C1.1311 12.0002 1.26053 11.9729 1.38023 11.92C1.50142 11.8694 1.61303 11.7983 1.71023 11.71C1.84899 11.5694 1.94299 11.3908 1.98036 11.1968C2.01773 11.0028 1.99681 10.8021 1.92023 10.62C1.87264 10.4972 1.80127 10.3851 1.71023 10.29ZM5.00023 2H19.0002C19.2654 2 19.5198 1.89464 19.7073 1.70711C19.8949 1.51957 20.0002 1.26522 20.0002 1C20.0002 0.734784 19.8949 0.48043 19.7073 0.292893C19.5198 0.105357 19.2654 0 19.0002 0L5.00023 0C4.73502 0 4.48066 0.105357 4.29313 0.292893C4.10559 0.48043 4.00023 0.734784 4.00023 1C4.00023 1.26522 4.10559 1.51957 4.29313 1.70711C4.48066 1.89464 4.73502 2 5.00023 2ZM1.71023 5.29C1.56961 5.15124 1.39104 5.05725 1.19705 5.01987C1.00306 4.9825 0.802343 5.00342 0.620233 5.08C0.499048 5.13064 0.387433 5.20167 0.290233 5.29C0.199192 5.3851 0.127827 5.49725 0.0802326 5.62C0.0273274 5.7397 0 5.86913 0 6C0 6.13087 0.0273274 6.2603 0.0802326 6.38C0.130233 6.501 0.202233 6.613 0.290233 6.71C0.387233 6.798 0.499233 6.87 0.620233 6.92C0.739933 6.97291 0.869362 7.00023 1.00023 7.00023C1.1311 7.00023 1.26053 6.97291 1.38023 6.92C1.50142 6.86936 1.61303 6.79833 1.71023 6.71C1.79856 6.6128 1.86959 6.50118 1.92023 6.38C1.97314 6.2603 2.00047 6.13087 2.00047 6C2.00047 5.86913 1.97314 5.7397 1.92023 5.62C1.87264 5.49725 1.80127 5.3851 1.71023 5.29ZM19.0002 5H5.00023C4.73502 5 4.48066 5.10536 4.29313 5.29289C4.10559 5.48043 4.00023 5.73478 4.00023 6C4.00023 6.26522 4.10559 6.51957 4.29313 6.70711C4.48066 6.89464 4.73502 7 5.00023 7H19.0002C19.2654 7 19.5198 6.89464 19.7073 6.70711C19.8949 6.51957 20.0002 6.26522 20.0002 6C20.0002 5.73478 19.8949 5.48043 19.7073 5.29289C19.5198 5.10536 19.2654 5 19.0002 5ZM1.71023 0.29C1.61513 0.198959 1.50298 0.127594 1.38023 0.08C1.19812 0.00342057 0.997408 -0.0175021 0.803419 0.019872C0.609429 0.0572461 0.430856 0.151242 0.290233 0.29C0.201902 0.387201 0.130874 0.498815 0.0802326 0.62C0.0273274 0.7397 0 0.869129 0 1C0 1.13087 0.0273274 1.2603 0.0802326 1.38C0.130233 1.501 0.202233 1.613 0.290233 1.71C0.387233 1.798 0.499233 1.87 0.620233 1.92C0.802343 1.99658 1.00306 2.0175 1.19705 1.98013C1.39104 1.94275 1.56961 1.84876 1.71023 1.71C1.79856 1.6128 1.86959 1.50118 1.92023 1.38C1.97314 1.2603 2.00047 1.13087 2.00047 1C2.00047 0.869129 1.97314 0.7397 1.92023 0.62C1.86959 0.498815 1.79856 0.387201 1.71023 0.29ZM19.0002 10H5.00023C4.73502 10 4.48066 10.1054 4.29313 10.2929C4.10559 10.4804 4.00023 10.7348 4.00023 11C4.00023 11.2652 4.10559 11.5196 4.29313 11.7071C4.48066 11.8946 4.73502 12 5.00023 12H19.0002C19.2654 12 19.5198 11.8946 19.7073 11.7071C19.8949 11.5196 20.0002 11.2652 20.0002 11C20.0002 10.7348 19.8949 10.4804 19.7073 10.2929C19.5198 10.1054 19.2654 10 19.0002 10Z"/>
  </symbol>

  <symbol id="double-bed" viewBox="0 0 24 24">
    <path fill-rule="evenodd" clip-rule="evenodd" d="M3.47222 6C3.47222 4.48122 4.70344 3.25 6.22222 3.25H17.7778C19.2966 3.25 20.5278 4.48122 20.5278 6V9.78202L22.4774 12.8526C22.6554 13.1331 22.75 13.4584 22.75 13.7906V18C22.75 18.9665 21.9665 19.75 21 19.75H20.889V21C20.889 21.5523 20.4413 22 19.889 22H18.5557C18.0034 22 17.5557 21.5523 17.5557 21V19.75H6.44466V21C6.44466 21.5523 5.99695 22 5.44466 22H4.11133C3.55904 22 3.11133 21.5523 3.11133 21V19.75H3C2.0335 19.75 1.25 18.9665 1.25 18V13.7906C1.25 13.4584 1.34456 13.1331 1.52263 12.8526L3.47222 9.78202V6ZM6.22222 4.75C5.53187 4.75 4.97222 5.30964 4.97222 6V9.35H19.0278V6C19.0278 5.30964 18.4681 4.75 17.7778 4.75H6.22222ZM19.3021 10.65H4.69793L2.98364 13.35H21.0164L19.3021 10.65ZM2.75 18V14.65H21.25V18C21.25 18.1381 21.1381 18.25 21 18.25H3C2.86193 18.25 2.75 18.1381 2.75 18ZM4.11133 20V21H5.44466L5.44466 20H4.11133ZM18.5557 21V20H19.889L19.889 21H18.5557Z" fill="#AAB2B7" fill-opacity="0.8"/>
    <path d="M6.5 10V9.5C6.5 8.94772 6.94772 8.5 7.5 8.5H10C10.5523 8.5 11 8.94772 11 9.5V10C11 10.5523 10.5523 11 10 11H7.5C6.94772 11 6.5 10.5523 6.5 10Z" fill="white" stroke="#4A4A4A" stroke-width="1.2"/>
    <path d="M13 10V9.5C13 8.94772 13.4477 8.5 14 8.5H16.5C17.0523 8.5 17.5 8.94772 17.5 9.5V10C17.5 10.5523 17.0523 11 16.5 11H14C13.4477 11 13 10.5523 13 10Z" fill="white" stroke="#4A4A4A" stroke-width="1.2"/>
  </symbol>

  <symbol id="single-bed" viewBox="0 0 24 24">
    <path fill-rule="evenodd" clip-rule="evenodd" d="M4.25 6C4.25 4.48122 5.48122 3.25 7 3.25H17C18.5188 3.25 19.75 4.48122 19.75 6V9.80083L21.5194 12.8973C21.6705 13.1617 21.75 13.461 21.75 13.7656V18C21.75 18.9665 20.9665 19.75 20 19.75H19.889V21C19.889 21.5523 19.4413 22 18.889 22H17.5557C17.0034 22 16.5557 21.5523 16.5557 21V19.75H7.44466V21C7.44466 21.5523 6.99695 22 6.44466 22H5.11133C4.55904 22 4.11133 21.5523 4.11133 21V19.75H4C3.0335 19.75 2.25 18.9665 2.25 18V13.7656C2.25 13.461 2.32948 13.1617 2.48057 12.8973L4.25 9.80083V6ZM7 4.75C6.30964 4.75 5.75 5.30964 5.75 6V9.35H18.25V6C18.25 5.30964 17.6904 4.75 17 4.75H7ZM18.5076 10.65H5.49238L3.94953 13.35H20.0505L18.5076 10.65ZM3.75 18V14.65H20.25V18C20.25 18.1381 20.1381 18.25 20 18.25H4C3.86193 18.25 3.75 18.1381 3.75 18ZM5.11133 20V21H6.44466L6.44466 20H5.11133ZM17.5557 21V20H18.889L18.889 21H17.5557Z" fill="#AAB2B7" fill-opacity="0.8"/>
    <path d="M9 10V9C9 8.44772 9.44772 8 10 8H14C14.5523 8 15 8.44772 15 9V10C15 10.5523 14.5523 11 14 11H10C9.44772 11 9 10.5523 9 10Z" fill="white" stroke="#4A4A4A" stroke-width="1.2"/>
  </symbol>

  <symbol id="bed-unknown" viewBox="0 0 20 20">
    <path fill-rule="evenodd" clip-rule="evenodd" d="M2.25 4C2.25 2.48122 3.48122 1.25 5 1.25H15C16.5188 1.25 17.75 2.48122 17.75 4V7.80083L19.5194 10.8973C19.6705 11.1617 19.75 11.461 19.75 11.7656V16C19.75 16.9665 18.9665 17.75 18 17.75H17.889V19C17.889 19.5523 17.4413 20 16.889 20H15.5557C15.0034 20 14.5557 19.5523 14.5557 19V17.75H5.44466V19C5.44466 19.5523 4.99695 20 4.44466 20H3.11133C2.55904 20 2.11133 19.5523 2.11133 19V17.75H2C1.0335 17.75 0.25 16.9665 0.25 16V11.7656C0.25 11.461 0.32948 11.1617 0.48057 10.8973L2.25 7.80083V4ZM5 2.75C4.30964 2.75 3.75 3.30964 3.75 4V7.35H16.25V4C16.25 3.30964 15.6904 2.75 15 2.75H5ZM16.5076 8.65H3.49238L1.94953 11.35H18.0505L16.5076 8.65ZM1.75 16V12.65H18.25V16C18.25 16.1381 18.1381 16.25 18 16.25H2C1.86193 16.25 1.75 16.1381 1.75 16ZM3.11133 18V19H4.44466V18H3.11133ZM15.5557 19V18H16.889V19H15.5557Z" fill="#AAB2B7" fill-opacity="0.8"/>
    <path d="M10.2008 12.208C11.0488 12.208 11.4968 11.744 11.4968 10.912C11.4968 10.064 11.0488 9.61604 10.2008 9.61604C9.35278 9.61604 8.90478 10.064 8.90478 10.912C8.90478 11.744 9.35278 12.208 10.2008 12.208ZM9.25678 8.30404H11.0968C11.0968 6.32004 14.0568 6.64004 14.0568 3.50404C14.0568 1.64804 13.0008 0.592041 10.5528 0.592041C9.41678 0.592041 8.48878 0.832042 7.80078 1.13604V3.26404C8.44078 2.81604 9.24078 2.43204 10.2808 2.43204C11.4488 2.43204 11.9608 2.92804 11.9608 3.77604C11.9608 5.76004 9.25678 5.48804 9.25678 8.30404Z" fill="#4A4A4A"/>
  </symbol>

  <symbol id="wifi" viewBox="0 0 24 24">
    <path d="M11.9998 19.8426C12.7876 19.8426 13.4263 19.2039 13.4263 18.416C13.4263 17.6282 12.7876 16.9895 11.9998 16.9895C11.2119 16.9895 10.5732 17.6282 10.5732 18.416C10.5732 19.2039 11.2119 19.8426 11.9998 19.8426Z" fill="#4A4A4A"/>
    <path d="M2.31269 8.72878C7.65502 3.39054 16.345 3.39054 21.6873 8.72878C22.1042 9.14979 22.1042 9.82831 21.6873 10.2452C21.4788 10.4537 21.205 10.56 20.9311 10.56C20.6573 10.56 20.3834 10.4537 20.1749 10.2452C15.6665 5.73675 8.33354 5.73675 3.82914 10.2452C3.40813 10.6622 2.72961 10.6622 2.31269 10.2452C1.89577 9.82422 1.89577 9.1457 2.31269 8.72878Z" fill="#AAB2B7" fill-opacity="0.8"/>
    <path d="M5.25166 11.6717C4.83473 12.0886 4.83473 12.7671 5.25166 13.1881C5.66858 13.605 6.3471 13.605 6.76811 13.1881C9.65386 10.3024 14.3504 10.3024 17.2361 13.1881C17.4446 13.3966 17.7184 13.5029 17.9923 13.5029C18.2662 13.5029 18.54 13.3966 18.7485 13.1881C19.1654 12.7712 19.1654 12.0927 18.7485 11.6717C15.0289 7.94798 8.97126 7.94798 5.25166 11.6717Z" fill="#AAB2B7" fill-opacity="0.8"/>
    <path d="M8.1457 14.5658C7.72878 14.9827 7.72878 15.6612 8.1457 16.0822C8.56262 16.4991 9.24114 16.4991 9.66215 16.0822C10.9497 14.7906 13.0507 14.7906 14.3382 16.0822C14.5467 16.2907 14.8205 16.397 15.0944 16.397C15.3683 16.397 15.6421 16.2907 15.8506 16.0822C16.2675 15.6653 16.2675 14.9868 15.8506 14.5699C13.7292 12.4403 10.2712 12.4403 8.1457 14.5658Z" fill="#AAB2B7" fill-opacity="0.8"/>
  </symbol>

  <symbol id="map" viewBox="0 0 18 18">
    <path d="M17.5 0L17.34 0.03L12 2.1L6 0L0.36 1.9C0.15 1.97 0 2.15 0 2.38V17.5C0 17.78 0.22 18 0.5 18L0.66 17.97L6 15.9L12 18L17.64 16.1C17.85 16.03 18 15.85 18 15.62V0.5C18 0.22 17.78 0 17.5 0ZM12 16L6 13.89V2L12 4.11V16Z" fill-opacity="0.8"/>
  </symbol>

  <symbol id="bathroom" viewBox="0 0 20 22">
    <path d="M5 19L4.5 20.5" stroke="#4A4A4A" stroke-width="1.5" stroke-linecap="round"/>
    <path d="M15.5 19L16 20.5" stroke="#4A4A4A" stroke-width="1.5" stroke-linecap="round"/>
    <path d="M3 11.2442L3.14704 10.9076C3.55904 9.96451 4.62624 9.49585 5.59946 9.83068C6.15535 9.18905 7.12613 9.11956 7.76776 9.67546C7.85656 9.7524 7.93625 9.83927 8.00527 9.93436L8.18187 10.1777L8.29077 10.1605C9.11768 10.0297 9.92816 10.4757 10.2602 11.2442" stroke="#4A4A4A"/>
    <path d="M12.5 5.5V6.3" stroke="#4A4A4A" stroke-width="0.5" stroke-linecap="round"/>
    <path d="M15.5 5.5V6.3" stroke="#4A4A4A" stroke-width="0.5" stroke-linecap="round"/>
    <path d="M14 5.5V6.3" stroke="#4A4A4A" stroke-width="0.5" stroke-linecap="round"/>
    <path d="M12.5 7.19995V7.99995" stroke="#4A4A4A" stroke-width="0.5" stroke-linecap="round"/>
    <path d="M15.5 7.19995V7.99995" stroke="#4A4A4A" stroke-width="0.5" stroke-linecap="round"/>
    <path d="M14 7.19995V7.99995" stroke="#4A4A4A" stroke-width="0.5" stroke-linecap="round"/>
    <path d="M12.5 9V9.8" stroke="#4A4A4A" stroke-width="0.5" stroke-linecap="round"/>
    <path d="M15.5 9V9.8" stroke="#4A4A4A" stroke-width="0.5" stroke-linecap="round"/>
    <path d="M14 9V9.8" stroke="#4A4A4A" stroke-width="0.5" stroke-linecap="round"/>
    <path fill-rule="evenodd" clip-rule="evenodd" d="M18.717 1.37669C18.9032 1.66716 18.9994 2.01381 18.9994 2.40647V11.1681C19.591 11.4488 20 12.0516 20 12.75C20 13.576 19.4277 14.2684 18.6579 14.4522L18.3176 16.5896C18.0278 18.4101 16.4577 19.75 14.6143 19.75H5.56195C3.77551 19.75 2.23708 18.4898 1.88535 16.7383L1.42998 14.4708C0.616309 14.3204 0 13.6072 0 12.75C0 11.7835 0.783502 11 1.75 11H17.9994V2.40647C17.9994 2.18149 17.9461 2.02702 17.8752 1.91647C17.8032 1.80417 17.695 1.7093 17.5446 1.63347C17.231 1.47528 16.7753 1.42261 16.2988 1.46964C15.8227 1.51662 15.4389 1.64281 15.1673 1.9208C14.9654 2.12751 14.7792 2.46624 14.7002 3.04398C15.1228 3.10115 15.4557 3.2115 15.7173 3.35794C16.1183 3.58246 16.3233 3.87631 16.4204 4.12337C16.5106 4.35277 16.4597 4.59392 16.3166 4.7639C16.1833 4.92213 15.9894 5.00024 15.8 5.00024H12.2C12.0106 5.00024 11.8167 4.92213 11.6834 4.7639C11.5403 4.59392 11.4894 4.35277 11.5796 4.12337C11.6767 3.87631 11.8817 3.58246 12.2827 3.35794C12.6213 3.16838 13.0794 3.03929 13.6971 3.00775C13.7883 2.22127 14.0468 1.6367 14.452 1.22198C14.9617 0.700298 15.6226 0.531512 16.2006 0.474473C16.778 0.417482 17.4472 0.464377 17.9949 0.740584C18.2752 0.881948 18.5319 1.08798 18.717 1.37669ZM17.1314 14.5H2.96579L3.35599 16.443C3.56703 17.4939 4.49008 18.25 5.56195 18.25H14.6143C15.7203 18.25 16.6624 17.4461 16.8363 16.3537L17.1314 14.5ZM1.5 12.75C1.5 12.6119 1.61193 12.5 1.75 12.5H18.25C18.3881 12.5 18.5 12.6119 18.5 12.75C18.5 12.888 18.3881 13 18.25 13H1.75C1.61193 13 1.5 12.888 1.5 12.75Z" fill="#B8BEC2"/>
  </symbol>

  <symbol id="currency" viewBox="0 0 20 20">
    <path d="M4.90647 15.8747C4.67773 15.6459 4.30679 15.6459 4.07791 15.8747C3.84903 16.1036 3.84903 16.4745 4.07791 16.7035L4.58145 17.207C2.64832 16.8771 1.17188 15.19 1.17188 13.164C1.17188 12.8404 0.909575 12.5781 0.585938 12.5781C0.262298 12.5781 0 12.8404 0 13.164C0 15.8693 2.04773 18.1048 4.67438 18.4033L4.07791 18.9997C3.84903 19.2286 3.84903 19.5995 4.07791 19.8285C4.1922 19.9427 4.34219 20 4.49218 20C4.64218 20 4.79217 19.9427 4.90647 19.8283L6.46897 18.2658C6.69784 18.037 6.69784 17.666 6.46897 17.4372L4.90647 15.8747Z" fill="#4A4A4A"/>
    <path d="M15.0935 4.12537C15.2078 4.23966 15.3578 4.29688 15.5078 4.29688C15.6578 4.29688 15.8078 4.23966 15.9221 4.12522C16.151 3.89648 16.151 3.52539 15.9221 3.29666L15.4186 2.79312C17.3518 3.12302 18.8282 4.81018 18.8282 6.83593C18.8282 7.15957 19.0904 7.42188 19.4141 7.42188C19.7377 7.42188 20 7.15957 20 6.83593C20 4.13071 17.9524 1.89514 15.3256 1.59668L15.9221 1.00022C16.151 0.771484 16.151 0.400391 15.9221 0.171662C15.6933 -0.0572205 15.3224 -0.0572205 15.0935 0.171662L13.531 1.73416C13.3022 1.96289 13.3022 2.33398 13.531 2.56272L15.0935 4.12537Z" fill="#4A4A4A"/>
    <path fill-rule="evenodd" clip-rule="evenodd" d="M7.02054 12.9794C6.84873 12.9931 6.67512 13 6.5 13C2.91015 13 0 10.0899 0 6.5C0 2.91015 2.91015 0 6.5 0C10.0899 0 13 2.91015 13 6.5C13 6.67512 12.9931 6.84873 12.9794 7.02054C13.1512 7.00693 13.3248 7 13.5 7C17.0899 7 20 9.91015 20 13.5C20 17.0899 17.0899 20 13.5 20C9.91015 20 7 17.0899 7 13.5C7 13.3248 7.00693 13.1512 7.02054 12.9794ZM1.5 6.5C1.5 3.73858 3.73858 1.5 6.5 1.5C9.26142 1.5 11.5 3.73858 11.5 6.5C11.5 6.78541 11.4762 7.0648 11.4305 7.3364C9.50533 7.98253 7.98253 9.50533 7.3364 11.4305C7.0648 11.4762 6.78541 11.5 6.5 11.5C3.73858 11.5 1.5 9.26142 1.5 6.5ZM8.5 13.5C8.5 10.7386 10.7386 8.5 13.5 8.5C16.2614 8.5 18.5 10.7386 18.5 13.5C18.5 16.2614 16.2614 18.5 13.5 18.5C10.7386 18.5 8.5 16.2614 8.5 13.5Z" fill="#AAB2B7" fill-opacity="0.8"/>
    <path d="M12.3622 16.5H13.5052V15.528H15.0982V14.682H13.5052V14.259C13.5052 14.259 13.9552 14.277 14.1712 14.277C15.6652 14.277 16.3402 13.584 16.3402 12.297C16.3402 10.812 15.7102 10.146 14.2072 10.146C13.4782 10.146 12.6232 10.209 12.3622 10.227V13.422H11.6602V14.268H12.3622V14.682H11.6602V15.528H12.3622V16.5ZM15.1792 12.297C15.1792 13.098 14.8642 13.431 14.1352 13.431C13.9552 13.431 13.5052 13.413 13.5052 13.413V11.181C13.5052 11.181 13.8832 11.154 14.1802 11.154C14.8912 11.154 15.1792 11.469 15.1792 12.297Z" fill="#4A4A4A"/>
    <path d="M6.29459 10.4H7.18559V9.58105C8.30159 9.42805 8.81459 8.78905 8.81459 7.72705C8.81459 5.40505 5.87159 6.11605 5.87159 4.82005C5.87159 4.38805 6.09659 4.15405 6.90659 4.15405C7.51859 4.15405 8.14859 4.34305 8.54459 4.64905V3.39805C8.22959 3.25405 7.74359 3.12805 7.18559 3.09205V2.30005H6.29459V3.11905C5.16959 3.26305 4.68359 3.88405 4.68359 4.88305C4.68359 7.10605 7.62659 6.42205 7.62659 7.79005C7.62659 8.25805 7.33859 8.54605 6.57359 8.54605C5.70959 8.54605 5.05259 8.19505 4.72859 7.90705V9.15805C5.07059 9.37405 5.62859 9.55405 6.29459 9.59905V10.4Z" fill="#4A4A4A"/>
  </symbol>

  <symbol id="free-coffee" viewBox="0 0 20 18">
    <path d="M5.89018 0.134267C6.70327 0.860097 6.70327 1.99668 5.89018 2.72252C5.37475 3.18329 5.37475 3.95982 5.8892 4.4192C6.06203 4.57351 6.02705 4.79781 5.81129 4.92141C5.71839 4.97428 5.6085 5 5.49963 5C5.35279 5 5.20797 4.95426 5.10908 4.86568C4.29697 4.13985 4.29697 3.00327 5.10908 2.27744C5.62549 1.81666 5.62549 1.04009 5.11006 0.580747C4.93724 0.427177 4.97221 0.202147 5.18798 0.0785475C5.40374 -0.0450525 5.71839 -0.0200425 5.89018 0.134267Z" fill="#4A4A4A"/>
    <path d="M8.8902 2.72252C9.7033 1.99668 9.7033 0.860097 8.8902 0.134267C8.7184 -0.0200425 8.4037 -0.0450525 8.188 0.0785475C7.97221 0.202147 7.93724 0.427177 8.1101 0.580747C8.6255 1.04009 8.6255 1.81666 8.1091 2.27744C7.29697 3.00327 7.29697 4.13985 8.1091 4.86568C8.208 4.95426 8.3528 5 8.4996 5C8.6085 5 8.7184 4.97428 8.8113 4.92141C9.027 4.79781 9.062 4.57351 8.8892 4.4192C8.3748 3.95982 8.3748 3.18329 8.8902 2.72252Z" fill="#4A4A4A"/>
    <path d="M11.8902 2.72252C12.7033 1.99668 12.7033 0.860097 11.8902 0.134267C11.7184 -0.0200425 11.4037 -0.0450525 11.188 0.0785475C10.9722 0.202147 10.9372 0.427177 11.1101 0.580747C11.6255 1.04009 11.6255 1.81666 11.1091 2.27744C10.297 3.00327 10.297 4.13985 11.1091 4.86568C11.208 4.95426 11.3528 5 11.4996 5C11.6085 5 11.7184 4.97428 11.8113 4.92141C12.027 4.79781 12.062 4.57351 11.8892 4.4192C11.3748 3.95982 11.3748 3.18329 11.8902 2.72252Z" fill="#4A4A4A"/>
    <path fill-rule="evenodd" clip-rule="evenodd" d="M1.14802 7C0.543001 7 0.0442011 7.5012 0.0138111 8.1397C-0.0485889 9.4512 0.100881 10.8193 0.453631 12.2413C0.915661 14.1038 2.49896 15.955 4.9353 17.7791C5.12724 17.9228 5.35667 18 5.59191 18L10.564 17.9999C10.7935 17.9999 11.0177 17.9265 11.2069 17.7891C11.8651 17.3113 12.4655 16.8344 13.0028 16.3588C14.6484 15.7915 15.9827 15.2764 16.9989 14.8133C18.0393 14.3393 18.8397 13.8801 19.2688 13.4182C19.9575 12.6771 20.0886 11.6356 19.9514 10.7937C19.8813 10.3637 19.7366 9.9455 19.5243 9.5929C19.3152 9.2456 19.013 8.9185 18.6108 8.7518C17.9811 8.4908 17.2703 8.583 16.5296 8.8877C16.5427 8.6632 16.5507 8.4394 16.5535 8.2162V8.2142L16.5536 8.208V8.202V8.2C16.5536 7.5372 16.0452 7 15.418 7H1.14802ZM16.3368 10.5781C16.244 11.1285 16.1217 11.6829 15.9702 12.2413C15.8062 12.8458 15.5092 13.4554 15.0907 14.0687C15.6037 13.8657 16.0597 13.6732 16.4593 13.4911C17.5065 13.0139 18.0752 12.6475 18.2964 12.4094C18.5834 12.1006 18.6976 11.5851 18.6084 11.0381C18.5653 10.7736 18.479 10.5393 18.3745 10.3658C18.2668 10.1871 18.1666 10.1145 18.1131 10.0923C17.8377 9.9782 17.2914 10.0146 16.3368 10.5781ZM2.10142 11.7849C1.84023 10.732 1.71034 9.7382 1.70373 8.7999L14.828 8.8C14.7706 9.7541 14.6068 10.7351 14.3327 11.7452C14.0218 12.8912 12.8227 14.4075 10.3868 16.2L5.77385 16.2001C3.51531 14.4818 2.39884 12.9839 2.10142 11.7849Z" fill="#AAB2B7" fill-opacity="0.8"/>
  </symbol>

  <symbol id="gym" viewBox="0 0 24 24">
    <path d="M19.0008 3.44453L3.44443 19.0009C2.95627 19.489 2.95627 20.2805 3.44443 20.7686C3.93259 21.2568 4.72404 21.2568 5.2122 20.7686L20.7685 5.2123C21.2567 4.72415 21.2567 3.93269 20.7685 3.44453C20.2804 2.95638 19.4889 2.95638 19.0008 3.44453Z" stroke="#AAB2B7" stroke-opacity="0.8" stroke-width="1.5"/>
    <path d="M20.3637 7.30319L16.4746 3.4141C16.2794 3.21884 15.9628 3.21884 15.7675 3.4141C15.5723 3.60936 15.5723 3.92594 15.7675 4.12121L19.6566 8.01029C19.8519 8.20556 20.1685 8.20556 20.3637 8.01029C20.559 7.81503 20.559 7.49845 20.3637 7.30319Z" stroke="#4A4A4A" stroke-width="1.5"/>
    <path d="M7.6567 20.0105L3.76762 16.1214C3.57235 15.9261 3.25577 15.9261 3.06051 16.1214C2.86525 16.3166 2.86525 16.6332 3.06051 16.8285L6.9496 20.7176C7.14486 20.9128 7.46144 20.9128 7.6567 20.7176C7.85197 20.5223 7.85197 20.2057 7.6567 20.0105Z" stroke="#4A4A4A" stroke-width="1.5"/>
    <path d="M20.9295 9.45491L14.5656 3.09095C13.8821 2.40753 12.7741 2.40753 12.0907 3.09095C11.4073 3.77437 11.4073 4.88241 12.0907 5.56583L18.4546 11.9298C19.1381 12.6132 20.2461 12.6132 20.9295 11.9298C21.6129 11.2464 21.6129 10.1383 20.9295 9.45491Z" fill="white" stroke="#4A4A4A" stroke-width="1.5"/>
    <path d="M11.9295 18.4549L5.56556 12.091C4.88214 11.4075 3.7741 11.4075 3.09069 12.091C2.40727 12.7744 2.40727 13.8824 3.09069 14.5658L9.45465 20.9298C10.1381 21.6132 11.2461 21.6132 11.9295 20.9298C12.6129 20.2464 12.6129 19.1383 11.9295 18.4549Z" fill="white" stroke="#4A4A4A" stroke-width="1.5"/>
  </symbol>

  <symbol id="language" viewBox="0 0 20 20">
    <path fill-rule="evenodd" clip-rule="evenodd" d="M10.752 2.5C10.752 2.08579 10.4162 1.75 10.002 1.75C9.58774 1.75 9.25195 2.08579 9.25195 2.5V4.25H7.43884C7.50677 4.12597 7.57693 4.00183 7.64932 3.87759C7.85786 3.51969 7.73678 3.06051 7.37889 2.85198C7.021 2.64345 6.56182 2.76452 6.35328 3.12241C6.13482 3.49735 5.93399 3.87322 5.75094 4.25H4.5C4.08579 4.25 3.75 4.58579 3.75 5C3.75 5.41421 4.08579 5.75 4.5 5.75H5.11824C4.70331 6.90914 4.45669 8.07621 4.38293 9.25H3C2.58579 9.25 2.25 9.58579 2.25 10C2.25 10.4142 2.58579 10.75 3 10.75H4.38293C4.45669 11.9238 4.70332 13.0909 5.11824 14.25H4.5C4.08579 14.25 3.75 14.5858 3.75 15C3.75 15.4142 4.08579 15.75 4.5 15.75H5.75094C5.93399 16.1268 6.13482 16.5027 6.35328 16.8776C6.56182 17.2355 7.02099 17.3566 7.37889 17.148C7.73678 16.9395 7.85786 16.4803 7.64933 16.1224C7.57693 15.9982 7.50677 15.874 7.43885 15.75H9.25195V17.5C9.25195 17.9142 9.58774 18.25 10.002 18.25C10.4162 18.25 10.752 17.9142 10.752 17.5V15.75H12.6725C12.6046 15.874 12.5344 15.9982 12.462 16.1224C12.2535 16.4803 12.3745 16.9395 12.7324 17.148C13.0903 17.3566 13.5495 17.2355 13.758 16.8776C13.9765 16.5027 14.1773 16.1268 14.3604 15.75H15.5C15.9142 15.75 16.25 15.4142 16.25 15C16.25 14.5858 15.9142 14.25 15.5 14.25H14.9931C15.408 13.0909 15.6546 11.9238 15.7284 10.75H17C17.4142 10.75 17.75 10.4142 17.75 10C17.75 9.58579 17.4142 9.25 17 9.25H15.7284C15.6546 8.07621 15.408 6.90915 14.9931 5.75H15.5C15.9142 5.75 16.25 5.41421 16.25 5C16.25 4.58579 15.9142 4.25 15.5 4.25H14.3604C14.1773 3.87322 13.9765 3.49735 13.758 3.12242C13.5495 2.76453 13.0903 2.64345 12.7324 2.85198C12.3745 3.06051 12.2535 3.51969 12.462 3.87758C12.5344 4.00183 12.6046 4.12597 12.6725 4.25H10.752V2.5ZM13.3878 5.75H10.752V9.25H14.225C14.1417 8.09123 13.8648 6.92514 13.3878 5.75ZM14.225 10.75H10.752V14.25H13.3878C13.8648 13.0749 14.1417 11.9088 14.225 10.75ZM5.88634 9.25C5.96965 8.09123 6.24651 6.92513 6.72352 5.75H9.25195V9.25H5.88634ZM6.72352 14.25C6.24652 13.0749 5.96966 11.9088 5.88634 10.75H9.25195V14.25H6.72352Z" fill="#4A4A4A"/>
    <path fill-rule="evenodd" clip-rule="evenodd" d="M1.28133 14.9008C0.465373 13.452 0 11.7794 0 10C0 4.47715 4.47715 0 10 0C15.5228 0 20 4.47715 20 10C20 15.5228 15.5228 20 10 20C8.09773 20 6.31777 19.4682 4.80288 18.545L1.28538 19.9366L1.26563 19.9431C1.06327 20.0105 0.844138 20.0078 0.643506 19.9354C0.156183 19.7598 -0.0994305 19.2269 0.0654204 18.7384L1.28133 14.9008ZM1.5 10C1.5 5.30558 5.30558 1.5 10 1.5C14.6944 1.5 18.5 5.30558 18.5 10C18.5 14.6944 14.6944 18.5 10 18.5C8.23458 18.5 6.59694 17.9626 5.23892 17.0426C4.93439 16.8363 4.53253 16.8839 4.28367 17.1373L1.83988 18.1041L2.72493 15.3107C2.90642 15.0709 2.93238 14.7346 2.76471 14.4635C1.9629 13.1667 1.5 11.6386 1.5 10Z" fill="#AAB2B7" fill-opacity="0.8"/>
  </symbol>

  <symbol id="money-return-new" viewBox="0 0 20 19">
    <path d="M18.22 16.578C18.2197 16.6807 18.1787 16.7792 18.106 16.8517C18.0333 16.9243 17.9347 16.965 17.832 16.965H2.123C2.02035 16.9647 1.92196 16.9239 1.84929 16.8514C1.77661 16.7789 1.73553 16.6806 1.735 16.578V6.074C1.735 5.86 1.91 5.686 2.123 5.686H17.833C18.045 5.686 18.219 5.86 18.219 6.074L18.22 16.578ZM14.748 3.95H6.818L14.748 1.863V3.95ZM16.483 3.95V1.348C16.483 0.541 15.943 0 15.217 0C15.085 0 14.947 0.017 14.805 0.055L1.678 3.509C0.756 3.752 0 4.732 0 5.686V16.764C0 17.832 0.868 18.7 1.936 18.7H18.018C19.088 18.7 19.955 17.832 19.955 16.764V5.888C19.955 4.818 19.088 3.951 18.018 3.951H16.484L16.483 3.95Z" fill="#AAB2B7" fill-opacity="0.8"/>
    <path fill-rule="evenodd" clip-rule="evenodd" d="M15 10.8789C15 11.2104 14.8683 11.5284 14.6339 11.7628C14.3995 11.9972 14.0815 12.1289 13.75 12.1289C13.4185 12.1289 13.1005 11.9972 12.8661 11.7628C12.6317 11.5284 12.5 11.2104 12.5 10.8789C12.5 10.5474 12.6317 10.2294 12.8661 9.99501C13.1005 9.76061 13.4185 9.62891 13.75 9.62891C14.0815 9.62891 14.3995 9.76061 14.6339 9.99501C14.8683 10.2294 15 10.5474 15 10.8789Z" fill="#4A4A4A"/>
  </symbol>

  <symbol id="non-smoking" viewBox="0 0 18 18">
    <path fill-rule="evenodd" clip-rule="evenodd" d="M0 7.75C0 6.7835 0.783502 6 1.75 6H18.25C19.2165 6 20 6.7835 20 7.75V8.25C20 9.2165 19.2165 10 18.25 10H1.75C0.783502 10 0 9.2165 0 8.25V7.75ZM1.75 7.5C1.61193 7.5 1.5 7.61193 1.5 7.75V8.25C1.5 8.38807 1.61193 8.5 1.75 8.5H2.25V7.5H1.75ZM3.75 7.5V8.5H13.25V7.5H3.75ZM18.25 8.5H14.75V7.5H18.25C18.3881 7.5 18.5 7.61193 18.5 7.75V8.25C18.5 8.38807 18.3881 8.5 18.25 8.5Z" fill="#4A4A4A"/>
    <path fill-rule="evenodd" clip-rule="evenodd" d="M3.5 8C3.5 4.41015 6.41015 1.5 10 1.5C11.7401 1.5 13.3204 2.18374 14.4871 3.29721L5.29721 12.4871C4.18374 11.3204 3.5 9.74006 3.5 8ZM6.45591 13.4497C7.47528 14.114 8.69256 14.5 10 14.5C13.5899 14.5 16.5 11.5899 16.5 8C16.5 6.69256 16.114 5.47528 15.4497 4.45592L6.45591 13.4497ZM10 0C5.58172 0 2 3.58172 2 8C2 12.4183 5.58172 16 10 16C14.4183 16 18 12.4183 18 8C18 3.58172 14.4183 0 10 0Z" fill="#AAB2B7" fill-opacity="0.8"/>
  </symbol>

  <symbol id="parking" viewBox="0 0 20 20">
    <path d="M10 19.25C15.1086 19.25 19.25 15.1086 19.25 10C19.25 4.89137 15.1086 0.75 10 0.75C4.89137 0.75 0.75 4.89137 0.75 10C0.75 15.1086 4.89137 19.25 10 19.25Z" stroke="#AAB2B7" stroke-opacity="0.8" stroke-width="1.5"/>
    <path d="M6.66423 15.7H8.69623V12.308C8.69623 12.308 9.30423 12.356 10.0082 12.356C13.0962 12.356 14.4402 11.012 14.4402 8.29195C14.4402 5.58795 13.2562 4.40395 10.0082 4.40395C8.44023 4.40395 6.66423 4.57995 6.66423 4.57995V15.7ZM12.3282 8.29195C12.3282 9.84395 11.7362 10.452 10.0082 10.452C9.30423 10.452 8.69623 10.404 8.69623 10.404V6.35595C8.69623 6.35595 9.30423 6.29195 10.0082 6.29195C11.7682 6.29195 12.3282 6.85195 12.3282 8.29195Z" fill="#4A4A4A"/>
  </symbol>

  <symbol id="restaurant" viewBox="0 0 20 20">
    <path d="M10 19.25C15.1086 19.25 19.25 15.1086 19.25 10C19.25 4.89137 15.1086 0.75 10 0.75C4.89137 0.75 0.75 4.89137 0.75 10C0.75 15.1086 4.89137 19.25 10 19.25Z" stroke="#AAB2B7" stroke-opacity="0.8" stroke-width="1.5"/>
    <path fill-rule="evenodd" clip-rule="evenodd" d="M14.2501 4.53184C14.2501 4.24762 14.1127 3.99294 13.8906 3.83494C13.698 3.69793 13.4916 3.66636 13.351 3.66314C13.0656 3.65661 12.7848 3.7578 12.549 3.89287C12.0534 4.17672 11.5499 4.72381 11.1901 5.57447C10.8376 6.40768 10.7121 7.50068 10.7598 8.80252L10.7441 8.80374L10.8041 9.55259C10.877 10.462 11.6363 11.1628 12.5486 11.1628H12.7501V15.8C12.7501 16.2142 13.0859 16.55 13.5001 16.55C13.9143 16.55 14.2501 16.2142 14.2501 15.8V4.53184ZM12.5486 9.66284C12.4192 9.66284 12.3115 9.56427 12.2996 9.43583L12.2994 9.43279C12.1746 7.87513 12.2952 6.81219 12.5716 6.15883C12.6293 6.02226 12.6896 5.90297 12.7501 5.79907V9.66284H12.5486Z" fill="#4A4A4A"/>
    <path fill-rule="evenodd" clip-rule="evenodd" d="M5.75 4C6.02614 4 6.25 4.22386 6.25 4.5V6H6.5V4.5C6.5 4.22386 6.72386 4 7 4C7.27614 4 7.5 4.22386 7.5 4.5V6H7.84961V4.5C7.84961 4.22386 8.07347 4 8.34961 4C8.62575 4 8.84961 4.22386 8.84961 4.5V6.4C8.84961 6.4162 8.84884 6.43223 8.84733 6.44803C8.8491 6.46512 8.85 6.48245 8.85 6.5V7.51704C8.85 7.97939 8.60095 8.36129 8.2708 8.61092C8.12775 8.71909 7.96524 8.80661 7.78974 8.87105C7.797 8.91295 7.80078 8.95603 7.80078 9V16C7.80078 16.4142 7.46499 16.75 7.05078 16.75C6.63657 16.75 6.30078 16.4142 6.30078 16V9C6.30078 8.95622 6.30453 8.91332 6.31173 8.87159C6.13566 8.8071 5.97265 8.71939 5.8292 8.61092C5.49905 8.36129 5.25 7.97939 5.25 7.51704V6.5C5.25 6.48312 5.25084 6.46645 5.25247 6.45C5.25084 6.43355 5.25 6.41688 5.25 6.4V4.5C5.25 4.22386 5.47386 4 5.75 4ZM6.25 7V7.51704C6.25 7.59756 6.29197 7.70715 6.43232 7.81327C6.57297 7.91962 6.78969 8 7.05 8C7.31031 8 7.52703 7.91962 7.66768 7.81327C7.80803 7.70715 7.85 7.59756 7.85 7.51704V7H6.25Z" fill="#4A4A4A"/>
  </symbol>

  <symbol id="shower" viewBox="0 0 21 22">
    <path d="M10.2062 14.009L10.1016 15.2045" stroke="#4A4A4A" stroke-width="1.3" stroke-linecap="round"/>
    <path d="M9.90147 17.4956L9.79688 18.691" stroke="#4A4A4A" stroke-width="1.3" stroke-linecap="round"/>
    <path d="M7.19953 13.2L6.75 14.3126" stroke="#4A4A4A" stroke-width="1.3" stroke-linecap="round"/>
    <path d="M5.88898 16.4451L5.43945 17.5577" stroke="#4A4A4A" stroke-width="1.3" stroke-linecap="round"/>
    <path d="M4.20001 12L3.51172 12.983" stroke="#4A4A4A" stroke-width="1.3" stroke-linecap="round"/>
    <path d="M2.19221 14.8669L1.50391 15.8499" stroke="#4A4A4A" stroke-width="1.3" stroke-linecap="round"/>
    <path fill-rule="evenodd" clip-rule="evenodd" d="M9.9899 4.19575C10.1608 3.9847 10.387 3.73935 10.6737 3.49361C11.4499 2.82828 12.6791 2.1501 14.5006 2.1501C16.4267 2.1501 17.5363 2.9075 18.1564 3.5799C18.7052 4.17496 18.8506 5.06762 18.8506 6.12287V19.2501C18.8506 19.5815 18.582 19.8501 18.2506 19.8501C17.9193 19.8501 17.6506 19.5815 17.6506 19.2501V12.7501V6.88864C17.6506 6.21641 17.5528 5.46566 17.2516 4.82797C16.9405 4.16943 16.3941 3.60515 15.5334 3.4415C15.2284 3.38352 14.8856 3.3501 14.5006 3.3501C13.3281 3.3501 12.4446 3.79213 11.8606 4.2301C11.631 4.40235 11.4461 4.5749 11.3055 4.72198L9.9899 4.19575ZM11.212 6.08473L8.8425 5.13693C8.8183 5.13495 8.788 5.13285 8.7522 5.13112C8.638 5.12562 8.47 5.12397 8.2672 5.14091C7.85866 5.17507 7.32995 5.28294 6.81631 5.5683C6.30115 5.8545 5.86396 6.28371 5.54574 6.66331L13.052 9.1654C13.0944 8.81713 13.0875 8.31602 12.884 7.70565C12.7731 7.37307 12.4075 6.97366 11.9609 6.61257C11.7532 6.44459 11.5539 6.30526 11.4062 6.2079C11.3328 6.15946 11.273 6.12203 11.2326 6.09725C11.225 6.09263 11.2182 6.08845 11.212 6.08473ZM14.2907 9.6394C15.0831 10.1401 15.4394 11.1534 15.0748 12.0649C14.6827 13.0452 13.5945 13.5499 12.5929 13.216L3.14729 10.0675C2.05889 9.7047 1.5004 8.50051 1.92649 7.43529C2.29567 6.51234 3.28197 6.01096 4.23202 6.23417C4.31692 6.11758 4.41967 5.98366 4.53915 5.84052C4.91192 5.3939 5.47151 4.82826 6.18497 4.4319C6.90457 4.03212 7.62586 3.88999 8.159 3.84543C8.3446 3.82992 8.5099 3.82601 8.6477 3.82766C8.6841 3.77311 8.725 3.71389 8.7706 3.65078C8.9979 3.33606 9.3442 2.92096 9.8276 2.50658C10.8014 1.67191 12.3221 0.850098 14.5006 0.850098C16.8222 0.850098 18.2688 1.78419 19.1121 2.69856C20.0206 3.68371 20.1506 5.02849 20.1506 6.12287V19.2501C20.1506 20.2994 19.3 21.1501 18.2506 21.1501C17.2013 21.1501 16.3506 20.2994 16.3506 19.2501V12.7501V6.88864C16.3506 6.31892 16.2642 5.78136 16.0761 5.38325C15.8979 5.00598 15.6499 4.78695 15.2905 4.71863C15.0714 4.67696 14.8102 4.6501 14.5006 4.6501C13.6732 4.6501 13.0567 4.95807 12.6406 5.2701C12.5895 5.30842 12.5416 5.34671 12.4969 5.38437C12.5867 5.4507 12.6815 5.52341 12.7784 5.60171C13.2445 5.97865 13.8788 6.57924 14.1173 7.29455C14.4028 8.15108 14.4067 8.87905 14.3316 9.4045C14.3197 9.4882 14.3057 9.5666 14.2907 9.6394ZM3.99729 7.51748C3.64871 7.40128 3.26997 7.57694 3.13351 7.9181C2.98522 8.28883 3.17959 8.70792 3.55839 8.83419L13.004 11.9827C13.3526 12.0989 13.7313 11.9233 13.8678 11.5821C14.0161 11.2114 13.8217 10.7923 13.4429 10.666L13.2951 10.6167L4.29509 7.61674L3.99729 7.51748Z" fill="#AAB2B7" fill-opacity="0.8"/>
  </symbol>

  <symbol id="atm" viewBox="0 0 20 20">
    <path d="M11.818 4.54503H12.728V18.182H11.818V4.54503ZM10 3.63603V19.091C10 19.593 10.407 20 10.91 20H13.636C13.8773 20 14.1088 19.9042 14.2795 19.7335C14.4501 19.5628 14.546 19.3314 14.546 19.09V3.63703C14.5457 3.39585 14.4497 3.16465 14.2791 2.99421C14.1085 2.82376 13.8772 2.72803 13.636 2.72803H10.91C10.6688 2.72829 10.4376 2.82428 10.2672 2.99491C10.0967 3.16554 10.001 3.39685 10.001 3.63803L10 3.63603Z" fill="#4A4A4A"/>
    <path d="M2.727 7.273H1.818C1.33584 7.273 0.87342 7.08146 0.53248 6.74052C0.19154 6.39958 0 5.93716 0 5.455V1.818C0 0.814 0.814 0 1.818 0H18.182C19.186 0 20 0.814 20 1.818V5.455C20 5.69374 19.953 5.93015 19.8616 6.15072C19.7702 6.37129 19.6363 6.5717 19.4675 6.74052C19.2987 6.90934 19.0983 7.04325 18.8777 7.13461C18.6571 7.22598 18.4207 7.273 18.182 7.273H17.272V9.09C17.2587 9.3219 17.1571 9.54 16.9882 9.6994C16.8193 9.8589 16.5958 9.9478 16.3635 9.9478C16.1312 9.9478 15.9077 9.8589 15.7388 9.6994C15.5699 9.54 15.4683 9.3219 15.455 9.09V4.545H4.545V17.273C4.545 17.775 4.952 18.182 5.455 18.182H14.545C14.7863 18.182 15.0178 18.0861 15.1885 17.9155C15.3591 17.7448 15.455 17.5133 15.455 17.272V8.728C15.4492 8.605 15.4685 8.4822 15.5115 8.3669C15.5546 8.2516 15.6207 8.1462 15.7056 8.0571C15.7906 7.96809 15.8928 7.89719 16.0059 7.84876C16.1191 7.80032 16.2409 7.77535 16.364 7.77535C16.4871 7.77535 16.6089 7.80032 16.7221 7.84876C16.8352 7.89719 16.9374 7.96809 17.0224 8.0571C17.1073 8.1462 17.1734 8.2516 17.2165 8.3669C17.2595 8.4822 17.2788 8.605 17.273 8.728V17.274C17.2729 17.6321 17.2022 17.9867 17.065 18.3175C16.9279 18.6483 16.7269 18.9489 16.4736 19.202C16.2203 19.4551 15.9196 19.6559 15.5887 19.7928C15.2577 19.9297 14.9031 20.0001 14.545 20H5.455C5.0968 20.0001 4.74209 19.9297 4.41112 19.7927C4.08014 19.6557 3.7794 19.4549 3.52607 19.2016C3.27274 18.9484 3.07178 18.6477 2.93468 18.3168C2.79757 17.9859 2.727 17.6312 2.727 17.273V7.273ZM2.727 5.455V3.636C2.72727 3.39483 2.82326 3.16362 2.99389 2.99318C3.16452 2.82274 3.39583 2.727 3.637 2.727H16.364C16.6052 2.72727 16.8364 2.82326 17.0068 2.99389C17.1773 3.16452 17.273 3.39583 17.273 3.637V5.455H18.182V1.818H1.818V5.455H2.728H2.727ZM7.273 12.727V16.364C7.26203 16.5977 7.16148 16.8182 6.99221 16.9797C6.82294 17.1412 6.59796 17.2313 6.364 17.2313C6.13004 17.2313 5.90506 17.1412 5.73579 16.9797C5.56652 16.8182 5.46597 16.5977 5.455 16.364V12.727C5.46597 12.4933 5.56652 12.2728 5.73579 12.1113C5.90506 11.9498 6.13004 11.8596 6.364 11.8596C6.59796 11.8596 6.82294 11.9498 6.99221 12.1113C7.16148 12.2728 7.26203 12.4933 7.273 12.727Z" fill="#B8BEC2"/>
  </symbol>

  <symbol id="aircon" viewBox="0 0 25 24">
    <path d="M11.9999 6.05952C11.7492 6.28389 11.3691 6.31804 11.0783 6.12032L8.57834 4.42032C8.23582 4.1874 8.14696 3.72091 8.37988 3.37839C8.61279 3.03587 9.07928 2.94701 9.42181 3.17993L11.9218 4.87993C11.9495 4.89878 11.9756 4.91916 11.9999 4.94087C12.026 4.91767 12.0539 4.89601 12.0838 4.87612L14.5799 3.21201C14.9246 2.98225 15.3902 3.07538 15.62 3.42003C15.8497 3.76467 15.7566 4.23033 15.412 4.46009L12.9158 6.12419C12.6252 6.31791 12.2486 6.2821 11.9999 6.05952Z" fill="#4A4A4A"/>
    <path d="M12.0071 19.5296C11.978 19.5566 11.9464 19.5816 11.9123 19.6043L9.4161 21.2684C9.07146 21.4982 8.60581 21.4051 8.37604 21.0604C8.14628 20.7158 8.23941 20.2501 8.58405 20.0204L11.0802 18.3563C11.3766 18.1586 11.7626 18.1999 12.011 18.4346C12.2615 18.2012 12.6485 18.1631 12.9436 18.3637L15.4436 20.0637C15.7861 20.2966 15.875 20.7631 15.642 21.1057C15.4091 21.4482 14.9426 21.537 14.6001 21.3041L12.1001 19.6041C12.0667 19.5814 12.0356 19.5564 12.0071 19.5296Z" fill="#4A4A4A"/>
    <path d="M12 2.5V21.5" stroke="#B8BEC2" stroke-width="1.5" stroke-linecap="round"/>
    <path d="M17.3898 8.60611C17.0705 8.50096 16.8512 8.18905 16.8771 7.83863L17.0993 4.82356C17.1298 4.41047 17.4893 4.10028 17.9024 4.13073C18.3155 4.16117 18.6257 4.52074 18.5952 4.93383L18.373 7.94889C18.3705 7.98248 18.3659 8.01539 18.3592 8.04748C18.3921 8.05838 18.4246 8.07169 18.4565 8.08748L21.1458 9.41716C21.5171 9.60075 21.6692 10.0506 21.4856 10.4219C21.3021 10.7932 20.8522 10.9454 20.4809 10.7618L17.7917 9.43209C17.4785 9.27723 17.3212 8.93293 17.3898 8.60611Z" fill="#4A4A4A"/>
    <path d="M5.72589 15.3478C5.68832 15.3362 5.65118 15.3214 5.61479 15.3034L2.92556 13.9737C2.55425 13.7902 2.40208 13.3403 2.58567 12.969C2.76926 12.5977 3.21909 12.4455 3.5904 12.6291L6.27963 13.9588C6.59903 14.1167 6.75628 14.4717 6.67714 14.8042C7.00391 14.9048 7.22993 15.2206 7.20373 15.5761L6.98148 18.5911C6.95103 19.0042 6.59147 19.3144 6.17838 19.284C5.76528 19.2535 5.45509 18.894 5.48554 18.4809L5.70778 15.4658C5.71076 15.4254 5.71688 15.386 5.72589 15.3478Z" fill="#4A4A4A"/>
    <path d="M20.4707 6.82642L4.01622 16.3264" stroke="#B8BEC2" stroke-width="1.5" stroke-linecap="round"/>
    <path d="M7.09924 9.45361C7.1685 9.78309 7.00803 10.1297 6.69123 10.2827L3.96899 11.5978C3.59601 11.7779 3.1476 11.6216 2.96742 11.2487C2.78725 10.8757 2.94354 10.4273 3.31651 10.2471L6.03875 8.93203C6.06859 8.91762 6.09891 8.90536 6.12953 8.89519C6.12238 8.86087 6.11756 8.82563 6.11524 8.78964L5.92216 5.79585C5.8955 5.3825 6.20898 5.0258 6.62233 4.99914C7.03569 4.97248 7.39239 5.28596 7.41905 5.69932L7.61213 8.6931C7.63458 9.04122 7.41578 9.34916 7.09924 9.45361Z" fill="#4A4A4A"/>
    <path d="M18.7701 16.1825C18.779 16.2213 18.7849 16.2613 18.7875 16.3023L18.9806 19.2961C19.0073 19.7095 18.6938 20.0662 18.2804 20.0928C17.8671 20.1195 17.5104 19.806 17.4837 19.3926L17.2906 16.3989C17.2677 16.0436 17.4961 15.7302 17.8231 15.6322C17.7461 15.2985 17.9066 14.9441 18.228 14.7888L20.9502 13.4738C21.3232 13.2936 21.7716 13.4499 21.9518 13.8229C22.132 14.1958 21.9757 14.6442 21.6027 14.8244L18.8804 16.1395C18.8443 16.157 18.8074 16.1713 18.7701 16.1825Z" fill="#4A4A4A"/>
    <path d="M4.01758 7.67334L20.4721 17.1733" stroke="#B8BEC2" stroke-width="1.5" stroke-linecap="round"/>
  </symbol>

  <symbol id="no-photo" viewBox="0 0 90 126.52">
    <path d="M15.41,124H16.7v-4.44h4.68V124h1.29v-9.8H21.38v4.19H16.7V114.2H15.41Z" style="fill:#74797c;fill-opacity:.8"></path>
    <path d="M28.23,124.15a4.08,4.08,0,0,0,2.37-.64v-1.25a3.52,3.52,0,0,1-2.28.8c-1.56,0-2.27-.77-2.3-2.42h5v-.57c0-2.51-.94-3.6-3.06-3.6s-3.21,1.22-3.21,3.81S25.87,124.15,28.23,124.15ZM28,117.53c1.41,0,1.83.81,1.83,2.17H26C26.06,118.19,26.74,117.53,28,117.53Z" style="fill:#74797c;fill-opacity:.8"></path>
    <path d="M34.38,124h1.23v-6.24h2.33v-1.12H32.06v1.12h2.32Z" style="fill:#74797c;fill-opacity:.8"></path>
    <path d="M46.32,126.52h1.17v-2.41a6.74,6.74,0,0,0,.69,0c2,0,3-1.06,3-3.83s-.93-3.85-3-3.85a3.9,3.9,0,0,0-.69.07v-3H46.32v3a5.41,5.41,0,0,0-.69,0c-2,0-3.05,1.08-3.05,3.85s1,3.83,3.05,3.83a6.74,6.74,0,0,0,.69,0Zm-2.54-6.2c0-2.06.7-2.75,2.09-2.75a3.14,3.14,0,0,1,.45.05V123a4,4,0,0,1-.45,0C44.45,123.06,43.78,122.4,43.78,120.32Zm6.24,0c0,2-.72,2.74-2.08,2.74a3.79,3.79,0,0,1-.45,0v-5.41a2.6,2.6,0,0,1,.45-.05C49.35,117.57,50,118.25,50,120.32Z" style="fill:#74797c;fill-opacity:.8"></path>
    <path d="M55.71,124.15c2.11,0,3.27-1.14,3.27-3.83s-1.09-3.85-3.27-3.85-3.28,1.24-3.28,3.85S53.56,124.15,55.71,124.15Zm0-6.53c1.34,0,2,.67,2,2.7s-.67,2.69-2,2.69-2-.68-2-2.69S54.42,117.62,55.71,117.62Z" style="fill:#74797c;fill-opacity:.8"></path>
    <path d="M62.49,124h1.23v-6.24h2.33v-1.12H60.17v1.12h2.32Z" style="fill:#74797c;fill-opacity:.8"></path>
    <path d="M70.06,124.15c2.12,0,3.28-1.14,3.28-3.83s-1.1-3.85-3.28-3.85-3.27,1.24-3.27,3.85S67.92,124.15,70.06,124.15Zm0-6.53c1.34,0,2,.67,2,2.7s-.68,2.69-2,2.69-2-.68-2-2.69S68.77,117.62,70.06,117.62Z" style="fill:#74797c;fill-opacity:.8"></path>
    <path d="M80,0H10A10,10,0,0,0,0,10V80A10,10,0,0,0,10,90H80A10,10,0,0,0,90,80V10A10,10,0,0,0,80,0Zm0,80H10V10H80ZM55.7,44.3l-15,19.3L30,50.7,15,70H75Z" style="fill:#aab2b7;fill-opacity:.8"></path>
  </symbol>

  <symbol id="walk" viewBox="0 0 6 9">
    <path d="M3.07476 1.22414C2.91823 1.37074 2.72441 1.44722 2.49334 1.45359C2.26227 1.45996 2.06101 1.39303 1.88955 1.25282C1.7181 1.11261 1.63239 0.943698 1.63239 0.746123C1.63239 0.548549 1.71065 0.376462 1.86719 0.229864C2.02373 0.083265 2.21754 0.00678208 2.44861 0.000414873C2.67969 -0.00595233 2.87723 0.0609702 3.04122 0.201183C3.2052 0.341376 3.29094 0.510269 3.29839 0.707882C3.30583 0.905456 3.2313 1.07754 3.07476 1.22414Z" fill="#949494"/>
    <path d="M4.09228 3.2998L5.3222 3.87342C5.44146 3.93715 5.5011 4.02638 5.5011 4.14111C5.5011 4.23032 5.46382 4.30998 5.38929 4.38011C5.31475 4.45023 5.2253 4.48528 5.12094 4.48528C5.09113 4.48528 5.03149 4.47252 4.94204 4.44703L3.62267 3.81606C3.57795 3.79057 3.54067 3.75869 3.51086 3.72045L3.13071 3.2042L2.97417 4.48528L4.3159 8.40502C4.3159 8.41775 4.31964 8.43373 4.32708 8.45286C4.33453 8.47198 4.33826 8.48769 4.33826 8.50066C4.33826 8.64066 4.28236 8.75879 4.17055 8.85439C4.05874 8.94999 3.9283 8.99779 3.77921 8.99779C3.51086 9.01053 3.32452 8.90219 3.22015 8.67274L2.25858 5.84284L2.14677 6.70328C2.14677 6.72871 2.13932 6.75424 2.12441 6.77977C2.10954 6.8052 2.09462 6.83388 2.07968 6.86581C2.06477 6.89764 2.05732 6.91992 2.05732 6.93273L1.11811 8.7301C1.01374 8.90835 0.849763 8.99779 0.626141 8.99779C0.462159 9.01049 0.324252 8.96911 0.212441 8.87351C0.10063 8.77791 0.0447244 8.65978 0.0447244 8.51978C0.0447244 8.45584 0.0596399 8.3859 0.0894487 8.30941L0.961574 6.6459L1.45354 3.12771L0.91685 3.58661L0.760314 4.84857C0.745399 4.92505 0.704409 4.99515 0.637322 5.05889C0.570236 5.1226 0.484521 5.1545 0.380157 5.1545C0.275793 5.1545 0.186344 5.1226 0.111811 5.05889C0.0372778 4.99515 0 4.91866 0 4.82945V4.79121L0.20126 3.31892C0.216175 3.25519 0.245984 3.19783 0.290708 3.14683L1.81134 1.82751C1.99023 1.6873 2.17658 1.61719 2.37039 1.61719C2.65365 1.61719 2.89217 1.71916 3.08598 1.92312L4.09228 3.2998Z" fill="#949494"/>
  </symbol>
</svg>
