<?xml version="1.0" encoding="utf-8"?>
<!-- Generator: Adobe Illustrator 22.0.1, SVG Export Plug-In . SVG Version: 6.00 Build 0)  -->
<svg version="1.1" id="Capa_1" xmlns="http://www.w3.org/2000/svg" xmlns:xlink="http://www.w3.org/1999/xlink" x="0px" y="0px"
	 viewBox="0 0 190.7 29.6" style="enable-background:new 0 0 190.7 29.6;" xml:space="preserve">
<style type="text/css">
	.st0{fill:none;stroke:#4ea31e;stroke-width:2;stroke-linecap:round;stroke-linejoin:round;stroke-miterlimit:10;}
	.st1{fill:#4ea31e;}
</style>
<path class="st0" d="M24.8,20c-2.3,0-3.7-0.8-4.6-1.5c2.6-0.7,3.7-2.7,3.9-3.8c0.1-0.3,0-0.6-0.2-0.8c-0.2-0.2-0.5-0.4-0.8-0.4
	c-2.4,0-3.9-0.9-4.7-1.6c1.8-0.7,2.5-2.6,2.5-3.9c0-0.5-0.4-1-1-1c-1.7,0-2.3-0.3-2.9-1c-0.4-0.4-0.7-1.1-1-2
	c-1.1-3.6-4.5-3.7-5.6,0c-0.3,0.9-0.5,1.7-0.9,2.2C9.1,6.8,8.4,6.9,6.9,6.9c-0.5,0-1,0.4-1,1c0,1.3,0.7,3.2,2.5,3.9
	c-0.8,0.8-2.3,1.6-4.7,1.6c-0.3,0-0.6,0.1-0.8,0.4c-0.2,0.2-0.3,0.5-0.2,0.8c0.2,1.2,1.3,3.1,3.9,3.8C5.7,19.2,4.3,20,2,20
	c-0.5,0-1,0.4-1,1c0,0.2,0.1,1.4,1.9,2.5c1.7,0.9,4.3,1.5,7.9,1.7v2.3c0,0.5,0.4,1,1,1H15c0.5,0,1-0.4,1-1v-2.3
	c3.6-0.2,6.2-0.7,7.9-1.7c1.8-1,1.9-2.3,1.9-2.5C25.8,20.4,25.3,20,24.8,20z"/>
<g>
	<path class="st1" d="M29.8,13.2c0.8-0.3,1.7-0.8,2.1-1.6c0.5-1,0.8-3.6,0.9-7.6h6.4v10.6h-2.1V5.6h-2.7c-0.3,4-0.5,6-1.2,7.3
		c-0.6,1-1.6,1.7-2.7,2.1L29.8,13.2z"/>
	<path class="st1" d="M41.3,10.7c0-3.3,1.7-4.4,4-4.4c2.4,0,3.3,1.6,3.3,4.1v0.7h-5.3c0,1.8,1.1,2.1,2.6,2.1c0.6,0,1.5-0.2,2.2-0.3
		l0.3,1.5c-0.7,0.2-1.8,0.4-2.9,0.4C43,14.9,41.3,14,41.3,10.7z M46.6,9.8c0-1.2-0.5-2.1-1.5-2.1c-1,0-1.7,0.7-1.8,2.1H46.6z"/>
	<path class="st1" d="M50,10.6c0-2.6,1.6-4.3,4.2-4.3c1.2,0,1.9,0.2,2.5,0.5l-0.5,1.5c-0.6-0.2-1-0.4-1.9-0.4C53,8,52,8.7,52,10.6
		c0,1.8,0.5,2.7,2.6,2.7c0.7,0,1.1-0.1,1.7-0.2l0.3,1.5c-0.7,0.1-1.2,0.3-2.1,0.3C51.3,14.9,50,13.6,50,10.6z"/>
	<path class="st1" d="M57.8,10.7c0-2.8,1.6-4.4,4.1-4.4c2.7,0,4,1.6,4,4.3c0,2.8-1.7,4.3-4.1,4.3C59.2,14.9,57.8,13.3,57.8,10.7z
		 M63.9,10.6c0-1.4-0.4-2.7-2-2.7c-1.6,0-2,1.3-2,2.7c0,1.5,0.5,2.7,2.1,2.7C63.5,13.3,63.9,12.1,63.9,10.6z"/>
	<path class="st1" d="M67.7,6.5H75v8.2h-2V8h-3.3v6.7h-2V6.5z"/>
	<path class="st1" d="M77.3,6.5h2v0.6c0.4-0.3,1.3-0.8,2.1-0.8c2.2,0,3.5,1.2,3.5,4c0,3.4-2.1,4.6-4.3,4.6c-0.5,0-0.9,0-1.3-0.1V18
		h-2V6.5z M82.9,10.4c0-1.6-0.5-2.4-2.1-2.4c-0.6,0-1.2,0.3-1.5,0.4v4.8c0.3,0,0.7,0.1,1.3,0.1C82.1,13.3,82.9,12.1,82.9,10.4z"/>
	<path class="st1" d="M86.3,10.7c0-2.8,1.7-4.4,4.1-4.4c2.7,0,4,1.6,4,4.3c0,2.8-1.7,4.3-4.1,4.3C87.7,14.9,86.3,13.3,86.3,10.7z
		 M92.3,10.6c0-1.4-0.4-2.7-2-2.7c-1.6,0-2,1.3-2,2.7c0,1.5,0.5,2.7,2.1,2.7C91.9,13.3,92.3,12.1,92.3,10.6z"/>
	<path class="st1" d="M96.2,6.5h2.5l2.1,6.5l2.4-6.5h2.4v8.2h-1.9v-3.6l0.1-1.9l-1.9,5.5h-2.2L98,9.2l0.1,1.9v3.6h-1.9V6.5z"/>
	<path class="st1" d="M108,6.5h2v6.7h1.3c0.9,0,1.4-0.4,1.4-1.3c0-1-0.7-1.3-1.7-1.3h-0.9V9.1h1c2.2,0,3.6,1,3.6,2.9
		c0,1.6-1.1,2.8-2.9,2.8H108V6.5z M115.7,6.5h2v8.2h-2V6.5z"/>
	<path class="st1" d="M120,6.5h2v6.7h2.5V6.5h2v6.7h2.5V6.5h2v8.2H120V6.5z"/>
	<path class="st1" d="M132.1,13.3c0.6-0.2,1.3-0.5,1.6-1.2c0.4-0.7,0.7-2.8,0.8-5.7h5.7v8.2h-2V8h-2c-0.2,2.8-0.5,4.4-1.1,5.4
		c-0.5,0.8-1.3,1.3-2.5,1.6L132.1,13.3z"/>
	<path class="st1" d="M142,10.7c0-3.3,1.7-4.4,4-4.4c2.4,0,3.3,1.6,3.3,4.1v0.7H144c0,1.8,1.1,2.1,2.6,2.1c0.6,0,1.5-0.2,2.2-0.3
		l0.3,1.5c-0.7,0.2-1.8,0.4-2.9,0.4C143.6,14.9,142,14,142,10.7z M147.3,9.8c0-1.2-0.5-2.1-1.5-2.1c-1,0-1.7,0.7-1.8,2.1H147.3z"/>
	<path class="st1" d="M151.1,6.5h2v3.3h3.4V6.5h2v8.2h-2v-3.3h-3.4v3.3h-2V6.5z"/>
	<path class="st1" d="M160.9,6.5h2v3.3h3.4V6.5h2v8.2h-2v-3.3h-3.4v3.3h-2V6.5z"/>
	<path class="st1" d="M170.7,6.5h2v6.7h1.3c0.9,0,1.4-0.4,1.4-1.3c0-1-0.7-1.3-1.7-1.3h-0.9V9.1h1c2.2,0,3.6,1,3.6,2.9
		c0,1.6-1.1,2.8-2.9,2.8h-3.8V6.5z M178.3,6.5h2v8.2h-2V6.5z"/>
	<path class="st1" d="M182.6,6.5h2v4.3l0,1.2l0.8-1.2l3-4.3h2v8.2h-2v-4.3l0-1.2l-0.8,1.2l-3,4.3h-2V6.5z M183.7,3.8l0.9-1
		c0.6,0.7,1.3,1,1.9,1c0.7,0,1.4-0.3,2-1l0.9,1c-0.6,1.1-1.7,1.7-2.9,1.7C185.3,5.5,184.3,4.8,183.7,3.8z"/>
	<path class="st1" d="M31.1,19.5h2v3.7l2.8-3.7h2.2L35,23.4l1.4,1.6c0.7,0.7,1.2,1.2,2.1,1.4l-0.3,1.5c-1-0.1-2-0.2-3.1-1.6
		l-1.9-2.4v3.8h-2V19.5z"/>
	<path class="st1" d="M39.3,23.7c0-2.8,1.6-4.4,4.1-4.4c2.7,0,4,1.6,4,4.3c0,2.8-1.7,4.3-4.1,4.3C40.7,27.9,39.3,26.3,39.3,23.7z
		 M45.4,23.6c0-1.4-0.4-2.7-2-2.7c-1.6,0-2,1.3-2,2.7c0,1.5,0.5,2.7,2.1,2.7C45,26.3,45.4,25.1,45.4,23.6z"/>
	<path class="st1" d="M49.2,19.5h2.5l2.1,6.5l2.4-6.5h2.4v8.2h-1.9v-3.6l0.1-1.9L55,27.7h-2.2L51,22.2l0.1,1.9v3.6h-1.9V19.5z"/>
	<path class="st1" d="M61.1,19.5h7.3v8.2h-2V21h-3.3v6.7h-2V19.5z"/>
	<path class="st1" d="M69.5,26.3c0.6-0.2,1.3-0.5,1.6-1.2c0.4-0.7,0.7-2.8,0.8-5.7h5.7v8.2h-2V21h-2c-0.2,2.8-0.5,4.4-1.1,5.4
		c-0.5,0.8-1.3,1.3-2.5,1.6L69.5,26.3z"/>
	<path class="st1" d="M79.4,23.7c0-3.3,1.7-4.4,4-4.4c2.4,0,3.3,1.6,3.3,4.1v0.7h-5.3c0,1.8,1.1,2.1,2.6,2.1c0.6,0,1.5-0.2,2.2-0.3
		l0.3,1.5c-0.7,0.2-1.8,0.4-2.9,0.4C81,27.9,79.4,27,79.4,23.7z M84.7,22.8c0-1.2-0.5-2.1-1.5-2.1c-1,0-1.7,0.7-1.8,2.1H84.7z"/>
	<path class="st1" d="M88.5,19.5h2v3.7l2.8-3.7h2.2l-3.2,3.8l1.4,1.6c0.7,0.7,1.2,1.2,2.1,1.4l-0.3,1.5c-1-0.1-2-0.2-3.1-1.6
		l-1.9-2.4v3.8h-2V19.5z"/>
	<path class="st1" d="M96.7,23.6c0-2.6,1.6-4.3,4.2-4.3c1.2,0,1.9,0.2,2.5,0.5l-0.5,1.5c-0.6-0.2-1-0.4-1.9-0.4
		c-1.2,0-2.3,0.7-2.3,2.6c0,1.8,0.5,2.7,2.6,2.7c0.7,0,1.1-0.1,1.7-0.2l0.3,1.5c-0.7,0.1-1.2,0.3-2.1,0.3
		C98,27.9,96.7,26.6,96.7,23.6z"/>
</g>
</svg>
