<?xml version="1.0" encoding="utf-8"?>
<!-- Generator: Adobe Illustrator 22.0.1, SVG Export Plug-In . SVG Version: 6.00 Build 0)  -->
<svg version="1.1" id="Слой_1" xmlns="http://www.w3.org/2000/svg" xmlns:xlink="http://www.w3.org/1999/xlink" x="0px" y="0px"
	 viewBox="0 0 202.4 57.9" style="enable-background:new 0 0 202.4 57.9;" xml:space="preserve">
<style type="text/css">
	.st0{fill:#299E30;}
	.st1{fill:#F59624;}
</style>
<path class="st0" d="M73.2,14.6c0-6.2,3.6-10.2,10.2-10.2c2.9,0,4.7,0.6,5.9,1.1l-0.9,2.3c-1.6-0.5-2.7-0.9-5-0.9
	c-4,0-7.1,2.1-7.1,7.4c0,5.4,3.3,7.7,7.7,7.7c1.9,0,3.3-0.3,4.6-0.7l0.7,2.3c-1.5,0.6-3.1,1-5.8,1C76.7,24.7,73.2,20.7,73.2,14.6
	 M102.6,16.9c0-2.4-1-4.3-3.8-4.3c-1.8,0-3.2,0.6-4.6,1.3l-0.1,1.7c0,4.5,1.4,6.6,4.2,6.6C101.6,22.2,102.6,19.5,102.6,16.9
	 M91.3,15.9c0-3.1,0.6-8,2.4-9.6c1.5-1.4,5.7-2.4,10.5-3.3l0.5,2.6c-4.3,0.7-8.1,1.4-9,2.3c-0.8,0.8-1.2,2.6-1.4,3.9
	c1.3-0.7,3.1-1.4,5.2-1.4c3.7,0,6,1.8,6,6.4c0,5.4-3.2,7.8-7.4,7.8S91.3,22,91.3,15.9 M118,15.4c0-2.7-1-4.4-3.2-4.4
	c-2,0-3.5,1.5-3.7,4.4C111.1,15.4,118,15.4,118,15.4z M108,17c0-6,3.1-8.2,7-8.2c4.3,0,6.1,2.7,6.1,7.6v1H111c0,4,2.3,4.8,5,4.8
	c1.5,0,2.7-0.2,4.2-0.7l0.5,2.2c-1.4,0.5-3.2,0.8-5.2,0.8C110.9,24.7,108,22.9,108,17"/>
<path class="st0" d="M134.5,16.5c0-2.7-1-5.2-3.9-5.2c-1.6,0-2.8,0.7-3.6,1.1V22c0.4,0.1,1.6,0.3,2.6,0.3
	C133.1,22.3,134.5,19.9,134.5,16.5 M124,9.2h2.9v1.2c1.3-0.9,2.5-1.6,4.4-1.6c3.6,0,6.1,2.5,6.1,7.5c0,6.2-3.7,8.3-7.9,8.3
	c-1,0-2-0.1-2.7-0.2v6h-2.9L124,9.2L124,9.2z M151.3,16.9c0-2.4-1-4.3-3.8-4.3c-1.8,0-3.2,0.6-4.6,1.3l-0.1,1.7
	c0,4.5,1.4,6.6,4.2,6.6C150.4,22.2,151.3,19.5,151.3,16.9 M140,15.9c0-3.1,0.6-8,2.4-9.6c1.5-1.4,5.7-2.4,10.5-3.3l0.5,2.6
	c-4.3,0.7-8.1,1.4-9,2.3c-0.8,0.8-1.2,2.6-1.4,3.9c1.3-0.7,3.1-1.4,5.2-1.4c3.7,0,6,1.8,6,6.4c0,5.4-3.2,7.8-7.4,7.8
	C142.6,24.6,140,22,140,15.9 M165.6,20.9v-3.5l-3.3,0.1c-2.1,0.1-3.3,0.9-3.3,2.5c0,1.5,1.1,2.2,2.6,2.2
	C163,22.3,164.5,21.6,165.6,20.9 M156.1,20.2c0-3.8,3.4-4.6,6.1-4.6l3.4-0.1v-1.6c0-2.1-1.1-2.6-3.3-2.6c-1.6,0-3,0.3-4.3,0.7
	l-0.6-2.2c1.4-0.6,3.2-1,5.4-1c3.7,0,5.7,1.3,5.7,4.4V21c0,0.9,0.8,1.1,1.6,1.2l-0.2,2.2l-0.6,0.1c-1.6,0-3.1-0.5-3.4-1.8
	c-1,0.7-2.5,1.9-5,1.9C158,24.6,156.1,23,156.1,20.2"/>
<path class="st0" d="M172.6,9.2h3v6.4h7.2V9.2h3v15.1h-3v-6.4h-7.2v6.4h-3V9.2z M196.8,21.7l-4.4-5.2l6.1-7.4h3.3l-6.3,7.2l3.1,3.3
	c1.4,1.5,2.6,2.4,3.8,2.7l-0.5,2.2C200.6,24.5,198.9,24.2,196.8,21.7 M189.4,9.2h3v15.2h-3V9.2z"/>
<path class="st0" d="M18.3,17L45.2,1.7c-1.1-0.6-2.3-1.2-3.5-1.7L18.3,13.2L7.9,7.3C7.2,8.1,6.5,9,5.8,9.9L18.3,17z M50.8,5.9
	c-0.8-0.8-1.7-1.5-2.6-2.2l-29.9,17L4,12.6c-0.5,0.9-1,1.9-1.5,2.9l15.7,8.9L50.8,5.9z M18.3,28.1L1.4,18.5
	c-0.3,1.1-0.6,2.1-0.8,3.3l17.7,10L55.1,11c-0.6-0.9-1.3-1.8-2-2.6L18.3,28.1z M60,27.2c0,16.3-13.4,29.5-30,29.5
	c-16.5,0-30-13.2-30-29.5c0-0.7,0-1.3,0.1-2l18.1,10.3l38.4-21.8C58.8,17.8,60,22.4,60,27.2"/>
<g>
	<path class="st1" d="M71.9,49.9c1.4-0.6,3-1.7,3.6-2.9c0.9-1.8,1.5-6.8,1.9-14.4h10.9v19.3h-2.9v-17h-5.4c-0.6,7-0.9,11.3-2.2,13.8
		c-0.9,1.8-2.6,2.9-4.5,3.8L71.9,49.9z"/>
	<path class="st1" d="M92.5,44.7c0-6,3-8.1,6.9-8.1c4,0,5.7,2.7,5.7,7.5v1h-9.8c0.1,4.1,2.2,4.7,5.1,4.7c1.1,0,2.9-0.4,3.8-0.6
		l0.5,2.3c-0.8,0.3-2.7,0.7-5,0.7C95.3,52.2,92.5,50.5,92.5,44.7z M102.1,43.1c0-2.6-1-4.4-3-4.4c-2,0-3.5,1.5-3.7,4.4H102.1z"/>
	<path class="st1" d="M107.7,44.4c0-4.8,2.8-7.8,7.3-7.8c2.1,0,3.4,0.4,4.2,0.9l-0.8,2.2c-0.9-0.4-1.8-0.7-3.4-0.7
		c-2.5,0-4.4,1.7-4.4,5.4c0,3.7,1.1,5.4,5.2,5.4c1.2,0,2.2-0.3,2.9-0.4l0.4,2.2c-0.8,0.2-2,0.5-3.6,0.5
		C110,52.2,107.7,49.9,107.7,44.4z"/>
	<path class="st1" d="M122.5,37h12.4v14.9h-2.8V39.2h-6.8v12.6h-2.8V37z"/>
	<path class="st1" d="M139.6,37h2.8v1.2c0.9-0.7,2.5-1.5,4-1.5c3.9,0,6.2,2.5,6.2,7.3c0,6.2-3.6,8.3-7.5,8.3c-1.1,0-2-0.1-2.7-0.2
		v5.9h-2.8V37z M149.7,44.4c0-3-0.8-5.3-4-5.3c-1.3,0-2.8,0.8-3.2,1.1v9.4c0.6,0.1,1.3,0.3,2.8,0.3
		C148.2,49.9,149.7,47.5,149.7,44.4z"/>
	<path class="st1" d="M155.4,44.6c0-5.1,2.9-8,7.1-8c4.7,0,6.9,2.9,6.9,7.8c0,5.2-3,7.8-7.1,7.8C157.9,52.2,155.4,49.4,155.4,44.6z
		 M166.5,44.4c0-2.6-0.8-5.5-4.1-5.5c-3.3,0-4.1,2.9-4.1,5.6c0,2.9,1,5.4,4.2,5.4C165.7,49.9,166.5,47.3,166.5,44.4z"/>
	<path class="st1" d="M173.1,37h3.7l4.3,12.7l4.8-12.7h3.6v14.9h-2.7v-8.3l0.1-2.9l-4.2,11.2h-3.4l-3.8-11.3l0.2,3v8.3h-2.7V37z"/>
</g>
</svg>
