<svg width="32" height="31" viewBox="0 0 32 31" fill="none" xmlns="http://www.w3.org/2000/svg">
<path d="M4.16579 3.97793L9.72336 7.17274L22.2024 0C22.8465 0.271334 23.4711 0.58464 24.0716 0.936399L9.72336 9.18364L3.05232 5.34679C3.3981 4.87101 3.76988 4.4131 4.16579 3.97793Z" fill="#17BB4F"/>
<path d="M9.72336 11.1959L2.10361 6.81502C1.81421 7.32059 1.55271 7.84214 1.32048 8.37614L9.72309 13.2049L27.0939 3.22134C26.6492 2.79376 26.1793 2.39191 25.688 2.01848L9.72336 11.1959Z" fill="#17BB4F"/>
<path d="M0.705888 10.0337L9.72336 15.215L28.3127 4.53116C28.3659 4.5948 28.4182 4.65898 28.4699 4.72342C28.5664 4.84176 28.6615 4.96253 28.7542 5.08439C28.9658 5.36331 29.168 5.64872 29.3612 5.94064L9.72336 17.2294L0.271233 11.7949C0.305377 11.6091 0.344127 11.4244 0.384774 11.2406C0.477179 10.8333 0.583404 10.4304 0.705888 10.0337Z" fill="#17BB4F"/>
<path d="M0.0365623 13.6709L9.72336 19.2387L30.2397 7.44651C31.0223 8.97676 31.5521 10.6283 31.8144 12.3297C31.9165 12.9961 31.9767 13.6604 31.994 14.3184C31.9978 14.4581 32 14.5979 32 14.7381C32 15.4888 31.9474 16.228 31.8477 16.9508C31.8062 17.2448 31.7572 17.5365 31.6998 17.8257C31.2578 20.07 30.3389 22.1754 29.0322 24.0079C27.7906 25.751 26.1999 27.2474 24.3426 28.3831C22.42 29.5575 20.251 30.3114 18.0179 30.5965C17.4889 30.6642 16.9624 30.7051 16.4399 30.72H15.5489C14.5707 30.6926 13.6139 30.5781 12.6874 30.3834C12.031 30.2412 11.3818 30.062 10.7563 29.8437C9.32177 29.3444 7.95764 28.6409 6.72386 27.7627C4.89094 26.4577 3.33116 24.7699 2.17895 22.7928C1.26818 21.2388 0.610774 19.5062 0.266897 17.637C0.0774806 16.6058 -0.0122145 15.5594 0.00133457 14.5147C0.0053993 14.2307 0.0178645 13.9496 0.0365623 13.6709Z" fill="#17BB4F"/>
</svg>
