<svg width="604" height="570" viewBox="0 0 604 570" fill="none" xmlns="http://www.w3.org/2000/svg">
  <path d="M324.176 22.8347C294.195 22.5508 112.661 19.74 107.252 70.3474C102.128 118.811 172.495 101.067 173.191 122.573C173.915 145.173 160.5 151.717 123.038 150.283C106.812 149.658 55.5804 155.393 54.757 187.731C53.9337 220.069 111.156 215.838 108.317 242.512C106.685 272.848 63.2318 279.421 46.1119 287.455C27.5156 297.179 -6.71003 313.22 1.15434 347.645C11.503 387.534 77.2287 380.437 101.986 385.306C118.51 387.989 171.09 392.616 163.609 427.992C159.677 449.285 116.522 450.492 124.784 477.776C133.131 503.328 208.382 508.311 223.628 509.134C286.898 512.569 425.859 518.163 487.667 492.099C510.38 482.603 530.509 471.161 528.181 437.035C527.045 406.557 510.621 402.099 538.302 378.549C555.792 363.388 589.293 364.608 587.32 320.347C586.284 296.455 525.243 286.547 526.662 261.577C528.791 222.326 603.73 255.657 604 186.24C604.17 142.901 467.835 167.147 469.227 124.291C467.395 106.887 497.405 99.5052 496.113 80.2844C496.851 49.4373 461.462 26.6249 324.176 22.8347Z" fill="#DFF1EA"/>
  <path d="M205.217 337.145C205.056 337.247 204.867 337.296 204.677 337.287H100.297C100.062 337.291 99.8317 337.217 99.6438 337.076C99.4559 336.934 99.321 336.733 99.2606 336.506C98.1108 331.538 103.86 327.648 107.778 329.55C108.07 328.307 108.811 327.216 109.86 326.487C110.908 325.758 112.189 325.444 113.456 325.604C112.724 323.391 112.866 320.982 113.853 318.87C114.84 316.758 116.598 315.104 118.765 314.247C120.657 313.337 122.813 313.135 124.841 313.676C126.87 314.218 128.637 315.468 129.824 317.2C131.243 309.506 137.944 302.862 146.021 302.309C150.506 301.946 154.96 303.312 158.471 306.127C161.878 308.967 162.985 312.118 163.837 315.951C165.026 314.129 166.787 312.756 168.844 312.046C170.9 311.337 173.134 311.332 175.193 312.033C179.878 313.452 180.46 318.279 180.247 322.58C184.023 319.443 188.565 317.924 193.491 320.891C197.58 323.347 198.474 327.293 198.63 331.594C201.994 329.593 205.472 331.594 205.728 336.18C205.764 336.374 205.733 336.576 205.64 336.751C205.547 336.926 205.398 337.065 205.217 337.145Z" fill="#EAF9F3"/>
  <path d="M496.383 120.829C496.383 140.831 550.667 144.522 553.492 120.829C556.317 97.1365 496.383 90.8479 496.383 120.829Z" fill="#DFF1EA"/>
  <path d="M58.1215 428.579C58.1215 448.595 125.295 452.457 127.68 428.579C130.732 399.138 58.1215 393.545 58.1215 428.579Z" fill="#DFF1EA"/>
  <path d="M449.637 541.445C449.637 565.18 529.302 569.766 532.184 541.445C535.747 506.538 449.637 499.895 449.637 541.445Z" fill="#DFF1EA"/>
  <path d="M52.4433 122.237C52.4433 135.297 89.4654 137.852 90.7714 122.237C92.4607 103.016 52.4433 99.368 52.4433 122.237Z" fill="#DFF1EA"/>
  <path d="M264.626 354.89C265.733 349.326 257.528 344.229 251.182 346.274C252.204 342.469 251.026 339.005 245.419 337.302C242.924 336.613 240.29 336.613 237.796 337.302C242.225 328.472 238.108 318.422 224.424 316.335C209.546 314.078 193.037 321.389 190.084 333.128C177.975 321.247 152.338 335.485 159.919 349.169C155.234 348.431 150.422 351.072 150.138 355.004C149.161 354.6 148.077 354.533 147.058 354.812C146.038 355.091 145.14 355.701 144.505 356.546C143.869 357.391 143.533 358.423 143.548 359.48C143.563 360.537 143.928 361.559 144.587 362.386C144.723 362.541 144.892 362.664 145.081 362.748C145.269 362.831 145.474 362.872 145.68 362.868H272.021C272.291 362.876 272.557 362.807 272.788 362.669C272.995 362.555 273.152 362.368 273.228 362.144C274.605 358.028 269.31 354.152 264.626 354.89Z" fill="white"/>
  <path d="M265.931 449.088C266.414 446.633 262.779 444.375 259.983 445.284C260.437 443.595 259.983 442.062 257.442 441.309C256.336 441.011 255.17 441.011 254.063 441.309C256.022 437.405 254.205 432.962 248.158 432.054C241.571 431.046 234.275 434.282 232.969 439.478C227.617 434.211 216.275 440.514 219.625 446.576C217.552 446.249 215.366 447.413 215.295 449.159C214.863 448.978 214.383 448.946 213.93 449.069C213.478 449.192 213.08 449.463 212.799 449.838C212.518 450.214 212.371 450.672 212.381 451.141C212.391 451.609 212.557 452.061 212.853 452.424C212.912 452.495 212.986 452.55 213.07 452.587C213.154 452.624 213.245 452.641 213.336 452.637H269.168C269.287 452.643 269.405 452.613 269.508 452.552C269.599 452.496 269.669 452.411 269.707 452.311C270.346 450.48 268.003 448.762 265.931 449.088Z" fill="white"/>
  <path d="M491.358 221.447C491.483 221.52 491.626 221.554 491.77 221.547H569.406C569.579 221.547 569.748 221.49 569.887 221.385C570.025 221.28 570.126 221.132 570.172 220.964C570.313 220.148 570.235 219.309 569.946 218.532C569.657 217.756 569.167 217.07 568.526 216.545C567.885 216.02 567.117 215.674 566.299 215.542C565.48 215.411 564.642 215.499 563.869 215.797C563.652 214.866 563.095 214.048 562.308 213.505C561.52 212.962 560.559 212.731 559.611 212.859C560.147 211.215 560.036 209.429 559.3 207.864C558.564 206.3 557.258 205.075 555.65 204.441C554.243 203.768 552.641 203.619 551.134 204.023C549.627 204.426 548.314 205.355 547.431 206.641C546.882 203.746 545.414 201.106 543.246 199.111C541.077 197.116 538.323 195.874 535.393 195.569C532.054 195.301 528.739 196.316 526.123 198.408C523.956 200.29 522.54 202.891 522.134 205.733C521.25 204.359 519.928 203.323 518.383 202.792C516.838 202.262 515.159 202.267 513.617 202.808C510.125 203.901 509.685 207.45 509.841 210.658C507.002 208.316 503.666 207.195 499.989 209.395C496.951 211.226 496.298 214.165 496.17 217.359C493.672 215.868 491.074 217.359 490.875 220.766C490.869 220.917 490.913 221.066 491 221.189C491.087 221.312 491.213 221.403 491.358 221.447Z" fill="white"/>
  <path d="M288.971 81.9788C289.059 82.003 289.152 82.003 289.24 81.9788H341.764C341.883 81.9799 342 81.9415 342.095 81.8696C342.19 81.7977 342.258 81.6963 342.289 81.5814C342.385 81.0297 342.332 80.4626 342.137 79.938C341.941 79.4133 341.61 78.9499 341.177 78.5949C340.744 78.2399 340.225 78.0061 339.672 77.9172C339.12 77.8284 338.553 77.8878 338.031 78.0892C337.882 77.4682 337.511 76.9231 336.988 76.5569C336.465 76.1907 335.826 76.0288 335.192 76.1019C335.548 74.9934 335.471 73.7909 334.976 72.737C334.48 71.6832 333.604 70.8564 332.523 70.4236C331.577 69.9635 330.499 69.8536 329.48 70.1136C328.461 70.3735 327.568 70.9863 326.958 71.8432C326.585 69.8882 325.593 68.1052 324.128 66.7579C322.663 65.4107 320.803 64.5706 318.824 64.3621C316.569 64.1809 314.331 64.8662 312.564 66.2785C311.092 67.5411 310.133 69.298 309.867 71.2186C309.267 70.2946 308.374 69.5991 307.331 69.2439C306.288 68.8886 305.157 68.8941 304.117 69.2596C301.761 69.9835 301.463 72.3826 301.576 74.5545C300.725 73.6835 299.604 73.1255 298.396 72.971C297.187 72.8164 295.962 73.0742 294.919 73.7028C292.86 74.9378 292.42 76.9252 292.335 79.0829C290.646 78.075 288.9 79.0829 288.758 81.3826C288.732 81.4356 288.716 81.4932 288.713 81.5522C288.709 81.6112 288.718 81.6703 288.738 81.7259C288.758 81.7816 288.788 81.8326 288.828 81.8761C288.869 81.9195 288.917 81.9545 288.971 81.9788Z" fill="white"/>
  <path d="M413.268 537.244C413.252 536.98 413.141 536.732 412.955 536.544C412.77 536.356 412.523 536.242 412.26 536.222L372.612 536.875C372.344 536.875 372.088 536.981 371.899 537.17C371.71 537.359 371.604 537.615 371.604 537.883C371.916 545.52 371.263 553.398 372.527 560.965C373.705 568.062 381.441 568.559 387.418 568.9C395.083 569.354 406.014 569.624 410.429 565.564C415.525 560.865 413.538 544.725 413.268 537.244Z" fill="#17BB4F"/>
  <path d="M378.488 552.209C376.803 552.214 375.163 551.659 373.827 550.631C372.491 549.603 371.534 548.161 371.106 546.531C371.072 546.374 371.101 546.211 371.186 546.076C371.271 545.94 371.405 545.844 371.561 545.807C371.639 545.788 371.72 545.784 371.8 545.797C371.88 545.81 371.956 545.838 372.024 545.88C372.093 545.922 372.153 545.978 372.2 546.043C372.247 546.108 372.281 546.182 372.299 546.261C372.299 546.488 373.718 552.038 380.248 550.86C384.578 550.065 384.905 541.008 384.905 540.923C384.913 540.779 384.972 540.642 385.07 540.536C385.168 540.429 385.301 540.361 385.444 540.341C385.588 540.323 385.733 540.357 385.854 540.438C385.974 540.519 386.06 540.641 386.097 540.781C386.211 541.165 386.338 541.69 386.466 542.272C386.963 544.472 387.73 547.794 389.305 549.171C391.293 550.903 395.849 551.116 398.192 550.08C400.534 549.043 401.812 545.707 401.726 542.613C401.726 542.173 401.627 541.704 401.599 541.193C401.584 541.031 401.633 540.87 401.737 540.745C401.841 540.62 401.99 540.541 402.152 540.526C402.314 540.511 402.475 540.561 402.601 540.664C402.726 540.768 402.804 540.918 402.819 541.079C402.893 541.549 402.935 542.024 402.947 542.499C403.458 545.821 405.403 548.589 407.887 549.327C409.846 549.923 411.763 549.086 413.253 546.971C413.3 546.904 413.359 546.848 413.427 546.805C413.496 546.762 413.572 546.732 413.652 546.718C413.732 546.704 413.813 546.706 413.892 546.724C413.971 546.742 414.046 546.775 414.112 546.822C414.178 546.868 414.235 546.927 414.278 546.996C414.321 547.064 414.351 547.14 414.364 547.22C414.378 547.3 414.376 547.382 414.359 547.461C414.341 547.54 414.308 547.614 414.261 547.68C412.458 550.207 410.002 551.244 407.532 550.52C406.427 550.126 405.418 549.5 404.573 548.685C403.729 547.87 403.068 546.884 402.635 545.792C402.46 546.948 402.008 548.045 401.318 548.989C400.629 549.933 399.722 550.696 398.674 551.215C395.949 552.422 390.909 552.209 388.51 550.108C387.053 548.517 386.07 546.55 385.671 544.43C385.089 547.467 383.712 551.527 380.405 552.081C379.771 552.179 379.129 552.222 378.488 552.209Z" fill="#3ED170"/>
  <path d="M391.52 533.555C387.332 533.555 373.065 533.739 371.504 536.947C369.417 541.476 392.613 541.121 397.056 540.965C418.321 540.269 420.862 532.49 391.52 533.555Z" fill="#0AA63F"/>
  <path d="M391.52 532.744C389.092 532.744 368.807 532.389 370.595 537.897C371.504 540.58 375.819 540.822 378.091 541.148C383.154 541.742 388.254 541.974 393.351 541.844C397.849 541.885 402.343 541.533 406.78 540.793C408.767 540.438 413.069 539.757 413.949 537.457C416.22 531.495 393.138 532.688 391.52 532.744C391.305 532.744 391.099 532.83 390.948 532.981C390.796 533.133 390.711 533.339 390.711 533.553C390.711 533.768 390.796 533.974 390.948 534.126C391.099 534.277 391.305 534.363 391.52 534.363C396.149 534.171 400.786 534.27 405.403 534.661C406.226 534.746 414.29 535.811 411.649 537.5C406.766 540.694 398.958 540.126 393.351 540.183C387.119 540.183 380.447 540.353 374.371 538.763C371.447 537.968 373.42 536.279 375.365 535.711C377.445 535.186 379.569 534.858 381.711 534.732C384.961 534.419 388.255 534.363 391.52 534.348C391.714 534.322 391.892 534.227 392.022 534.079C392.151 533.932 392.222 533.742 392.222 533.546C392.222 533.35 392.151 533.161 392.022 533.013C391.892 532.866 391.714 532.77 391.52 532.744Z" fill="#3ED170"/>
  <path d="M413.551 488.583C413.281 504.638 412.714 520.693 412.501 536.748C412.501 536.91 412.565 537.065 412.679 537.18C412.794 537.294 412.949 537.359 413.111 537.359C413.273 537.359 413.428 537.294 413.543 537.18C413.657 537.065 413.722 536.91 413.722 536.748C413.934 520.693 414.516 504.638 414.772 488.583C414.772 488.421 414.708 488.265 414.593 488.151C414.479 488.036 414.324 487.972 414.162 487.972C414 487.972 413.844 488.036 413.73 488.151C413.616 488.265 413.551 488.421 413.551 488.583Z" fill="#3ED170"/>
  <path d="M368.48 488.321C368.977 504.575 369.19 520.772 370.893 536.955C370.979 537.736 372.199 537.736 372.114 536.955C370.411 520.772 370.198 504.575 369.701 488.321C369.701 487.54 368.452 487.54 368.48 488.321Z" fill="#3ED170"/>
  <path d="M390.469 491.039C391.889 507.42 390.129 523.859 391.562 540.241C391.633 541.007 392.854 541.021 392.783 540.241C391.364 523.859 393.067 507.42 391.69 491.039C391.69 490.258 390.413 490.244 390.469 491.039Z" fill="#3ED170"/>
  <path d="M476.424 348.741C471.313 335.752 461.873 322.82 447.096 320.151H446.769C446.689 320.144 446.608 320.144 446.528 320.151C435.498 319.03 429.081 330.088 425.234 338.449C418.222 353.667 415.156 370.702 412.458 387.069C407.064 419.251 401.499 454.513 410.939 486.439C411.061 486.826 411.292 487.171 411.603 487.432C411.914 487.693 412.294 487.86 412.697 487.912C413.1 487.964 413.51 487.9 413.877 487.727C414.245 487.554 414.556 487.279 414.772 486.936C424.865 471.42 445.69 466.096 459.006 453.718C472.918 440.786 479.987 421.877 482.244 403.593C484.487 384.841 483.38 366.386 476.424 348.741Z" fill="#3ED170"/>
  <path d="M366.578 400.792C361.681 374.317 350.111 347.857 336.767 324.391C336.586 324.045 336.301 323.763 335.953 323.585C335.605 323.407 335.21 323.341 334.822 323.398C334.495 323.412 334.175 323.5 333.885 323.653C320.471 330.552 313.259 343.768 308.745 357.424C303.89 372.074 301.349 389.932 303.606 405.264C306.53 425.138 317.802 442.627 332.508 456.198C344.603 467.313 359.665 474.524 370.468 487.243C370.762 487.523 371.13 487.712 371.528 487.789C371.927 487.867 372.339 487.828 372.716 487.679C373.093 487.53 373.42 487.276 373.658 486.948C373.896 486.619 374.035 486.229 374.059 485.824C373.775 457.433 371.745 428.701 366.578 400.792Z" fill="#F3F5F7"/>
  <path d="M430.388 304.807C418.535 298.333 404.694 297.24 391.591 299.838C391.266 299.888 390.961 300.027 390.71 300.24C390.46 300.453 390.273 300.732 390.172 301.045C382.251 312.401 381.101 328.144 379.937 341.36C378.105 362.143 378.602 383.138 379.525 403.949C380.774 432.014 383.131 460.121 386.708 487.987C386.726 488.534 386.955 489.054 387.346 489.437C387.737 489.82 388.261 490.038 388.809 490.045H412.941C413.307 490.049 413.668 489.957 413.987 489.777C414.306 489.598 414.572 489.338 414.759 489.023C437.031 448.14 443.263 398.966 446.983 353.384C447.834 342.993 448.516 332.559 448.686 322.154C448.743 315.255 435.413 307.546 430.388 304.807Z" fill="#F3F5F7"/>
  <path d="M396.999 307.897C393.223 286.135 354.81 303.496 344.646 310.934C335.249 317.805 332.693 324.307 332.097 334.811C331.194 352.348 331.916 369.931 334.255 387.335C337.17 411.365 343.504 434.855 353.064 457.093C356.017 463.84 359.258 470.436 362.788 476.881C364.392 479.806 367.941 489.089 371.405 490.026C376.487 491.446 383.485 490.026 388.78 490.026C389.215 490.042 389.642 489.91 389.992 489.652C390.343 489.395 390.596 489.026 390.711 488.607C390.799 488.389 390.856 488.159 390.881 487.925C394.203 448.249 396.829 408.43 398.192 368.682C398.902 348.78 400.435 327.699 396.999 307.897Z" fill="#3ED170"/>
  <path d="M367.927 490.967C383.646 493.764 399.735 493.764 415.454 490.967C419.897 490.186 418.009 484.239 413.58 485.005C399.1 487.574 384.281 487.574 369.801 485.005C365.372 484.182 363.498 490.144 367.927 490.967Z" fill="#3ED170"/>
  <path d="M224.366 103.935C224.366 103.858 224.342 103.783 224.295 103.722C224.264 103.651 224.212 103.592 224.146 103.551C224.08 103.51 224.004 103.491 223.926 103.495L206.75 103.779C206.633 103.779 206.521 103.825 206.439 103.907C206.356 103.99 206.31 104.102 206.31 104.219C206.243 107.536 206.38 110.855 206.721 114.156C207.232 117.208 210.583 117.449 213.166 117.591C216.488 117.79 221.215 117.903 223.103 116.171C225.332 114.17 224.48 107.185 224.366 103.935Z" fill="#17BB4F"/>
  <path d="M209.305 110.407C208.565 110.403 207.848 110.152 207.266 109.694C206.685 109.237 206.274 108.598 206.097 107.88C206.083 107.81 206.096 107.738 206.133 107.678C206.17 107.618 206.227 107.573 206.295 107.553C206.329 107.545 206.364 107.544 206.398 107.549C206.432 107.555 206.465 107.567 206.494 107.586C206.523 107.604 206.548 107.629 206.568 107.657C206.587 107.686 206.601 107.718 206.608 107.752C206.807 108.469 207.28 109.08 207.926 109.452C208.571 109.823 209.336 109.927 210.057 109.739C211.931 109.399 212.073 105.481 212.073 105.481C212.087 105.421 212.12 105.369 212.168 105.331C212.216 105.293 212.275 105.272 212.336 105.272C212.396 105.272 212.455 105.293 212.503 105.331C212.551 105.369 212.584 105.421 212.598 105.481C212.598 105.651 212.698 105.878 212.754 106.134C212.892 107.224 213.318 108.258 213.989 109.129C214.555 109.492 215.198 109.716 215.867 109.782C216.535 109.849 217.21 109.756 217.836 109.512C218.372 109.173 218.8 108.689 219.072 108.116C219.343 107.543 219.446 106.905 219.369 106.276C219.369 106.091 219.369 105.892 219.369 105.694C219.365 105.624 219.388 105.556 219.433 105.503C219.478 105.45 219.542 105.417 219.611 105.41C219.678 105.405 219.744 105.426 219.797 105.468C219.849 105.51 219.884 105.57 219.895 105.637C219.895 105.836 219.895 106.034 219.895 106.233C219.947 106.875 220.174 107.489 220.552 108.01C220.93 108.531 221.444 108.938 222.038 109.186C222.485 109.298 222.956 109.259 223.377 109.074C223.799 108.889 224.147 108.568 224.366 108.164C224.383 108.127 224.407 108.095 224.438 108.069C224.469 108.043 224.505 108.025 224.544 108.015C224.582 108.004 224.623 108.003 224.662 108.011C224.702 108.018 224.739 108.034 224.771 108.058C224.804 108.082 224.83 108.112 224.849 108.148C224.868 108.183 224.879 108.222 224.881 108.262C224.883 108.302 224.876 108.342 224.861 108.379C224.845 108.416 224.822 108.449 224.792 108.476C224.512 108.957 224.085 109.335 223.574 109.555C223.063 109.774 222.495 109.824 221.953 109.697C221.473 109.527 221.035 109.257 220.668 108.905C220.301 108.552 220.013 108.125 219.824 107.653C219.75 108.155 219.555 108.632 219.255 109.043C218.956 109.453 218.562 109.785 218.106 110.009C217.387 110.284 216.613 110.384 215.847 110.3C215.082 110.216 214.348 109.951 213.705 109.526C213.088 108.827 212.671 107.973 212.499 107.056C212.257 108.377 211.661 110.123 210.227 110.378C209.922 110.417 209.613 110.427 209.305 110.407Z" fill="#3ED170"/>
  <path d="M214.941 102.348C213.124 102.348 206.948 102.419 206.267 103.768C205.359 105.727 215.409 105.571 217.354 105.514C226.553 105.258 227.646 101.88 214.941 102.348Z" fill="#0AA63F"/>
  <path d="M214.941 101.991C213.89 101.991 205.075 101.835 205.87 104.22C206.267 105.384 208.141 105.498 209.12 105.64C211.315 105.907 213.526 106.011 215.735 105.952C217.685 105.964 219.632 105.812 221.556 105.498C222.422 105.341 224.281 105.043 224.665 104.078C225.644 101.494 215.636 102.006 214.941 102.034C214.86 102.05 214.788 102.094 214.736 102.157C214.685 102.221 214.656 102.3 214.656 102.382C214.656 102.464 214.685 102.543 214.736 102.606C214.788 102.67 214.86 102.713 214.941 102.73C216.948 102.651 218.958 102.694 220.959 102.857C221.314 102.857 224.806 103.368 223.657 104.121C221.541 105.54 218.163 105.242 215.735 105.271C212.98 105.426 210.216 105.216 207.516 104.646C206.239 104.305 207.105 103.567 207.942 103.326C208.84 103.1 209.757 102.957 210.682 102.9C212.101 102.758 213.521 102.744 214.941 102.73C214.989 102.73 215.037 102.72 215.082 102.701C215.127 102.683 215.167 102.656 215.202 102.621C215.236 102.587 215.263 102.546 215.282 102.502C215.3 102.457 215.31 102.409 215.31 102.36C215.31 102.312 215.3 102.264 215.282 102.219C215.263 102.174 215.236 102.134 215.202 102.099C215.167 102.065 215.127 102.038 215.082 102.019C215.037 102.001 214.989 101.991 214.941 101.991Z" fill="#3ED170"/>
  <path d="M224.494 82.8577C224.367 89.8135 224.125 96.7694 224.026 103.725C224.04 103.784 224.073 103.837 224.121 103.875C224.169 103.913 224.228 103.933 224.288 103.933C224.349 103.933 224.408 103.913 224.456 103.875C224.504 103.837 224.537 103.784 224.551 103.725C224.65 96.7694 224.906 89.8135 225.019 82.8577C225.006 82.7984 224.972 82.7456 224.924 82.7078C224.877 82.67 224.818 82.6494 224.757 82.6494C224.696 82.6494 224.637 82.67 224.589 82.7078C224.542 82.7456 224.508 82.7984 224.494 82.8577Z" fill="#3ED170"/>
  <path d="M204.961 82.7409C205.174 89.8387 205.259 96.7945 205.997 103.807C205.997 104.148 206.565 104.148 206.537 103.807C205.799 96.7945 205.699 89.7819 205.486 82.7409C205.486 82.4002 204.947 82.4002 204.961 82.7409Z" fill="#3ED170"/>
  <path d="M214.486 83.9215C215.083 91.0193 214.344 98.1172 214.955 105.215C214.955 105.541 215.523 105.541 215.494 105.215C214.87 98.1172 215.608 91.0193 215.026 83.9215C215.026 83.5808 214.458 83.5808 214.486 83.9215Z" fill="#3ED170"/>
  <path d="M251.721 22.2832C249.507 16.605 245.418 11.0403 239.016 9.89044H238.775C233.991 9.3936 231.208 14.1491 229.533 17.8116C226.51 24.4126 225.175 31.7943 223.983 38.8779C221.641 52.818 219.227 68.0925 223.316 81.919C223.372 82.0864 223.473 82.2346 223.61 82.3465C223.746 82.4585 223.911 82.5297 224.086 82.552C224.261 82.5742 224.439 82.5466 224.599 82.4723C224.759 82.398 224.895 82.28 224.991 82.132C229.363 75.4032 238.377 73.1035 244.141 67.7376C250.174 62.1445 253.24 53.9537 254.22 46.0183C255.415 38.0228 254.555 29.8546 251.721 22.2832Z" fill="#3ED170"/>
  <path d="M204.138 44.8222C202.009 33.3521 197.04 21.8821 191.22 11.718C191.144 11.5672 191.021 11.4447 190.871 11.3681C190.72 11.2915 190.549 11.2649 190.382 11.2921C190.238 11.2983 190.098 11.3371 189.971 11.4057C184.165 14.3868 181.042 20.1218 179.083 26.0272C176.818 32.6862 176.056 39.7644 176.854 46.7528C178.117 55.3553 182.986 62.95 189.374 68.827C194.613 73.6393 201.143 76.7623 205.827 82.2702C205.953 82.3951 206.113 82.4802 206.287 82.5152C206.461 82.5501 206.642 82.5334 206.806 82.4669C206.971 82.4005 207.112 82.2873 207.213 82.1413C207.314 81.9954 207.37 81.8231 207.375 81.6456C207.355 69.301 206.272 56.9809 204.138 44.8222Z" fill="#F3F5F7"/>
  <path d="M231.776 3.24944C226.599 0.583723 220.651 -0.179926 214.969 1.0917C214.824 1.10814 214.688 1.16674 214.577 1.26016C214.466 1.35358 214.385 1.47768 214.344 1.61694C210.909 6.51443 210.412 13.3567 209.915 19.0776C209.257 28.1015 209.196 37.1591 209.731 46.1912C210.27 58.3568 211.292 70.5225 212.839 82.603C212.85 82.8392 212.95 83.0626 213.118 83.2285C213.287 83.3943 213.512 83.4904 213.748 83.4973H224.196C224.355 83.4974 224.511 83.4571 224.65 83.3801C224.789 83.3031 224.907 83.192 224.991 83.0572C234.63 65.3411 237.327 44.0335 238.945 24.2874C239.314 19.7873 239.612 15.2731 239.683 10.7589C239.726 7.76365 233.948 4.42768 231.776 3.24944Z" fill="#F3F5F7"/>
  <path d="M217.311 4.58149C215.679 -4.8444 199.042 2.67928 194.598 5.90169C190.538 8.86857 189.431 11.6935 189.162 16.2503C188.779 23.834 189.092 31.4369 190.098 38.9633C191.37 49.3679 194.113 59.539 198.247 69.1716C199.539 72.0959 200.93 74.9492 202.505 77.6889C203.201 78.9665 204.734 82.9839 206.239 83.3672C208.439 83.9634 211.477 83.3672 213.763 83.3672C213.949 83.3776 214.134 83.3242 214.286 83.2159C214.438 83.1075 214.549 82.9506 214.6 82.771C214.643 82.6764 214.672 82.5759 214.685 82.4729C216.105 65.282 217.255 48.0485 217.851 30.815C218.121 22.2976 218.802 13.1557 217.311 4.58149Z" fill="#3ED170"/>
  <path d="M204.72 83.8919C211.528 85.0986 218.495 85.0986 225.303 83.8919C227.234 83.5512 226.425 80.9818 224.509 81.3083C218.231 82.4226 211.806 82.4226 205.529 81.3083C203.613 80.9534 202.803 83.537 204.72 83.8919Z" fill="#3ED170"/>
</svg>
