<?xml version="1.0" encoding="utf-8"?>
<!-- Generator: Adobe Illustrator 22.1.0, SVG Export Plug-In . SVG Version: 6.00 Build 0)  -->
<svg version="1.1" id="Слой_1" xmlns="http://www.w3.org/2000/svg" xmlns:xlink="http://www.w3.org/1999/xlink" x="0px" y="0px"
	 viewBox="0 0 224 26" style="enable-background:new 0 0 224 26;" xml:space="preserve">
<style type="text/css">
	.st0{fill:#25A129;}
</style>
<g>
	<g>
		<path class="st0" d="M20.5,0.8c-0.5-0.3-1-0.6-1.6-0.8L8.4,6L3.7,3.4C3.4,3.7,3,4.1,2.8,4.5l5.6,3.2L20.5,0.8z"/>
		<path class="st0" d="M23,2.7c-0.4-0.4-0.8-0.7-1.2-1L8.4,9.4L2,5.7C1.7,6.2,1.5,6.6,1.3,7.1l7.1,4.1L23,2.7z"/>
		<path class="st0" d="M24.9,5c-0.3-0.4-0.6-0.8-0.9-1.2l-15.6,9L0.8,8.5C0.7,9,0.5,9.5,0.4,10l8,4.6L24.9,5z"/>
		<path class="st0" d="M25.6,6.3L8.4,16.2l-8.2-4.7c0,0.3,0,0.6,0,0.9c0,7.4,6,13.5,13.5,13.5c7.4,0,13.5-6,13.5-13.5
			C27.1,10.2,26.6,8.1,25.6,6.3z"/>
	</g>
	<g>
		<rect x="35.2" y="20.9" class="st0" width="188.6" height="1.4"/>
	</g>
	<g>
		<g>
			<path class="st0" d="M45.1,15.5l0.4,0.8c-1.3,0.8-3,1.3-4.8,1.3c-4.2,0-6.6-2.2-6.6-7C34.1,6,36,3.2,41,3.2
				c2.2,0,3.7,0.5,4.1,0.6c0,0.9,0,2,0,2.9h-0.9L44,5.9c-0.3-1-0.9-1.8-2.8-1.8c-3,0-3.7,2.2-3.7,6c0,3.6,0.7,6.3,4.2,6.3
				C43.3,16.4,44.3,16,45.1,15.5z M51.6,4.3c-0.9,0-1,0.2-1,0.8v3.3h0.8c3.8,0,6.5,0.4,6.5,4.3c0,3.8-2.1,4.7-5.5,4.7h-5.6V17
				c0.7-0.2,0.8-0.4,0.8-1.1V5c0-0.8-0.1-1-0.8-1.1V3.5h10.4c0,1,0,2,0,3h-0.8l-0.2-0.6c-0.4-1.4-0.9-1.6-2.8-1.6H51.6z M52.3,16.5
				c1.8,0,2.5-1.2,2.5-3.7c0-2.3-0.6-3.6-3-3.6h-1.2v6c0,0.9,0.2,1.2,1.2,1.2h0.5V16.5z M64,4.3c-0.6,0-0.7,0.2-0.7,0.6v4.3h1.9
				c0.8,0,2-0.1,2.5-0.4v1.8c-0.5-0.3-1.7-0.4-2.5-0.4h-1.9v5.2c0,0.8,0.3,1.1,2.2,1.1h0.4c1.8,0,2.3-0.1,2.7-1.9l0.1-0.5h0.9
				c0,1.1,0,2.2,0,3.3H59.5V17c0.7-0.2,0.8-0.4,0.8-1.1V5c0-0.8-0.1-1-0.8-1.1V3.5h9.7c0,1,0,2,0,3h-0.8l-0.2-0.6
				c-0.4-1.4-0.9-1.6-2.8-1.6H64z M71.3,17.4V17c0.7-0.2,0.8-0.4,0.8-1.1V5c0-0.8-0.1-1-0.8-1.1V3.5h5.8c2.8,0,4.8,0.7,4.8,4
				c0,3.4-2.1,4.4-5.4,4.4h-1.4v4c0,0.8,0.1,1,0.8,1.1v0.4H71.3z M76.6,11c1.9,0,2.3-1.5,2.3-3.7c0-1.8-0.6-3-2.5-3H76
				c-0.6,0-0.9,0.1-0.9,0.8V11H76.6z M88,4.3c-0.9,0-1,0.2-1,0.8v3.3h0.8c3.8,0,6.5,0.4,6.5,4.3c0,3.8-2.1,4.7-5.5,4.7h-5.6V17
				c0.7-0.2,0.8-0.4,0.8-1.1V5c0-0.8-0.1-1-0.8-1.1V3.5h10.4c0,1,0,2,0,3h-0.8l-0.2-0.6c-0.4-1.4-0.9-1.6-2.8-1.6H88z M88.7,16.5
				c1.8,0,2.5-1.2,2.5-3.7c0-2.3-0.6-3.6-3-3.6H87v6c0,0.9,0.2,1.2,1.2,1.2h0.5V16.5z M104.5,17.4c-0.1-0.8-0.6-2.2-0.9-3.3
				l-0.6-1.8h-4.4c-0.5,1.4-0.8,2.5-1,3.3s-0.3,1.4-0.3,1.7h-2.5c0.3-0.5,1-1.8,1.9-4.1L99.3,7c0.6-1.4,0.7-1.9,0.7-2.3
				c0-0.3-0.1-0.7-0.8-0.8V3.5h4c0.1,0.4,0.1,0.9,0.5,2.1l2.9,8.4c0.6,1.6,1.2,3,1.5,3.5h-3.6V17.4z M102.7,11.4l-1.9-5.6l-1.9,5.6
				H102.7z M118.3,10.2h-5.4v5.6c0,0.8,0.1,1,0.8,1.1v0.4h-4.6V17c0.7-0.2,0.8-0.4,0.8-1.1V5c0-0.8-0.1-1-0.8-1.1V3.5h4.6v0.4
				c-0.7,0.2-0.8,0.4-0.8,1.1v4.3h5.4V5c0-0.8-0.1-1-0.8-1.1V3.5h4.6v0.4c-0.7,0.2-0.8,0.4-0.8,1.1v10.9c0,0.8,0.1,1,0.8,1.1v0.4
				h-4.6V17c0.7-0.2,0.8-0.4,0.8-1.1V10.2z M125.1,5c0-0.8-0.1-1-0.8-1.1V3.5h4.6v0.4c-0.7,0.2-0.8,0.4-0.8,1.1v10.9
				c0,0.8,0.1,1,0.8,1.1v0.4h-4.6V17c0.7-0.2,0.8-0.4,0.8-1.1V5z M132.6,11.3c1,1.4,3.3,4.4,4.9,6.1h-4.7c-0.3-0.7-0.8-2-2.3-4.2
				l-2.1-3.2l1.8-2.4c1.1-1.4,2.5-3.3,2.9-4.3h3.3l0,0c-1.3,0.8-3.5,3-4.2,3.7l-1.5,1.6L132.6,11.3z"/>
		</g>
		<path class="st0" d="M208.1,10.2h-5.4v5.6c0,0.8,0.1,1,0.8,1.1v0.4h-4.6V17c0.7-0.2,0.8-0.4,0.8-1.1V5c0-0.8-0.1-1-0.8-1.1V3.5
			h4.6v0.4c-0.7,0.2-0.8,0.4-0.8,1.1v4.3h5.4V5c0-0.8-0.1-1-0.8-1.1V3.5h4.6v0.4c-0.7,0.2-0.8,0.4-0.8,1.1v10.9c0,0.8,0.1,1,0.8,1.1
			v0.4h-4.6V17c0.7-0.2,0.8-0.4,0.8-1.1V10.2z"/>
		<path class="st0" d="M172.2,3.9V3.4h-4.6v0.4c0.7,0.2,0.8,0.4,0.8,1.1v1.9l-5.6,5.1v-7c0-0.8,0.1-1,0.8-1.1V3.4H159v0.4
			c0.7,0.2,0.8,0.4,0.8,1.1v10.9c0,0.8-0.1,1-0.8,1.1v0.4h4.6V17c-0.7-0.2-0.8-0.4-0.8-1.1v-2.4l5.6-5.2v7.6c0,0.8-0.1,1-0.8,1.1
			v0.4h4.6V17c-0.7-0.2-0.8-0.4-0.8-1.1V5C171.4,4.2,171.5,4,172.2,3.9z"/>
		<path class="st0" d="M197.1,3.9V3.4h-4.6v0.4c0.7,0.2,0.8,0.4,0.8,1.1v1.9l-5.6,5.1v-7c0-0.8,0.1-1,0.8-1.1V3.4h-4.6v0.4
			c0.7,0.2,0.8,0.4,0.8,1.1v10.9c0,0.8-0.1,1-0.8,1.1v0.4h4.6V17c-0.7-0.2-0.8-0.4-0.8-1.1v-2.4l5.6-5.2v7.6c0,0.8-0.1,1-0.8,1.1
			v0.4h4.6V17c-0.7-0.2-0.8-0.4-0.8-1.1V5C196.3,4.2,196.4,4,197.1,3.9z"/>
		<path class="st0" d="M157.1,3.9V3.4h-9.2v0.4c0.7,0.2,0.8,0.6,0.8,0.8v0.1c-0.1,2.5-1.1,8.1-1.9,9.2c-0.5,0.7-1.5,1.2-2.7,1.5
			l1,2.3c4.1-1.2,4-5.3,4.6-10l0.3-3.4h3.4v11.5c0,0.8-0.1,1-0.8,1.1v0.4h4.6V17c-0.7-0.2-0.8-0.4-0.8-1.1V5
			C156.3,4.2,156.4,4,157.1,3.9z"/>
		<path class="st0" d="M223.8,3.5H217h-3.2v0.4c0.7,0.2,0.8,0.4,0.8,1.1v10.9c0,0.8-0.1,1-0.8,1.1v0.4h2.9h1.7V17
			c-0.7-0.2-0.8-0.4-0.8-1.1V5.5l0,0V5.1c0-0.6,0.1-0.8,1-0.8h1.5c1.8,0,2.3,0.1,2.8,1.6l0.2,0.6h0.8C223.8,5.5,223.8,4.5,223.8,3.5
			z"/>
		<path class="st0" d="M179.6,9.8c1.4-0.3,2.9-1.1,2.9-3V6.7c0-1.4-0.5-2.2-1.3-2.6c-0.5-0.3-1.2-0.6-2.3-0.7c0,0-0.2,0-0.3,0
			c-1.2-0.1-2.3-0.1-3.1,0c-0.5,0.1-1,0.2-1.3,0.3h-0.1l0,0c-0.5,0.2-0.8,0.3-0.8,0.3c0,1,0,1.8,0,2.8h0.7l0,0c0,0,0.3-0.9,0.4-1.1
			c0.1-0.2,0.8-1.6,2.8-1.4c0.6,0.1,1.1,0.3,1.5,0.6c0.1,0.1,0.2,0.2,0.3,0.3l0,0c0.6,0.7,0.7,1.5,0.7,1.7c0,0.2,0.4,3-3.6,2.8h-0.5
			v0.7c0,0,1.7-0.2,2.7,0.3c1.1,0.5,1.8,1.6,1.4,3.6c-0.4,1.9-3,3.1-6.3,1.4l0,0l-0.4,0.8c1.1,0.7,2.4,1.2,3.9,1.3c0,0,0.5,0,0.7,0
			c0.9,0,1.7-0.1,2.5-0.4c1.7-0.5,2.8-1.6,2.8-4C182.9,11.2,181.3,9.9,179.6,9.8z"/>
	</g>
</g>
</svg>
