<?xml version="1.0" encoding="utf-8"?>
<!-- Generator: Adobe Illustrator 21.1.0, SVG Export Plug-In . SVG Version: 6.00 Build 0)  -->
<svg version="1.1" id="Слой_1" xmlns="http://www.w3.org/2000/svg" xmlns:xlink="http://www.w3.org/1999/xlink" x="0px" y="0px"
	 viewBox="0 0 346 62" style="enable-background:new 0 0 346 62;" xml:space="preserve">
<style type="text/css">
	.st0{fill:white;}
</style>
<g>
	<g>
		<path class="st0" d="M275.7,44.4h7.3l-0.1,1.2H277l-0.5,4.7h5.4l-0.1,1.2h-5.5l-0.5,4.8h6.3l-0.1,1.2h-7.8L275.7,44.4z"/>
		<path class="st0" d="M284.9,51.6h5.6l-0.1,1.3h-5.6L284.9,51.6z"/>
		<path class="st0" d="M294.6,43.6h1.4l-1.5,14.1h-1.4L294.6,43.6z"/>
		<path class="st0" d="M297.4,54.1c0-3.7,1.7-6.9,4.9-6.9c1.8,0,2.6,1.1,2.6,2.3c0,1.5-1.3,2.2-2.7,2.7l-3.3,1.2V54
			c0,1.7,0.3,2.6,1.2,2.6c1,0,2.1-0.5,3.2-1l0.5,1.1c-1.1,0.6-2.3,1.2-3.9,1.2C297.9,57.9,297.4,56,297.4,54.1z M302,51
			c0.9-0.4,1.5-0.9,1.5-1.5c0-0.9-0.6-1.2-1.2-1.2c-2.1,0-2.9,2-3.2,3.8L302,51z"/>
		<path class="st0" d="M305.9,54.8c0-3.3,2.2-7.5,6.1-7.5c0.6,0,1.4,0.1,1.8,0.1l-1,10.1h-1.4l0.2-1.8c-1.4,1.3-2.6,2.1-3.6,2.1
			C306.5,57.9,305.9,56.6,305.9,54.8z M311.7,54.3l0.6-5.7c-0.1,0-0.4,0-0.6,0c-2.8,0-4.3,3.5-4.3,6.1c0,1,0.3,1.8,1,1.8
			C309.2,56.5,311.1,54.9,311.7,54.3z"/>
		<path class="st0" d="M314.9,57.3l0.4-1.2c0.8,0.3,1.6,0.5,2.5,0.5c0.8,0,2.3-0.2,2.3-1.5c0-2-3.9-2.4-3.9-5c0-2.1,1.6-2.8,3.3-2.8
			c0.9,0,2.1,0.3,2.7,0.6l-0.4,1.1c-0.9-0.3-1.5-0.5-2.4-0.5c-0.9,0-1.8,0.3-1.8,1.4c0,2,4,2.4,4,5.2c0,2.1-2.1,2.8-3.8,2.8
			C316.7,57.8,315.8,57.7,314.9,57.3z"/>
		<path class="st0" d="M324.5,47.4h1.4l-1.1,10.2h-1.4L324.5,47.4z M324.4,44.3l1.3-1.2l1.1,1.2l-1.4,1.2L324.4,44.3z"/>
		<path class="st0" d="M328.9,47.4h1.4l-0.2,1.7c1.1-1,2.3-1.9,3.7-1.9c1.3,0,1.8,0.6,1.8,2c0,0.3,0,0.7-0.1,1.1l-0.8,7.4h-1.4
			l0.8-7.1c0.1-0.4,0.1-0.7,0.1-1c0-0.8-0.2-1.1-0.8-1.1c-0.8,0-1.8,0.6-3.3,1.9l-0.8,7.2h-1.4L328.9,47.4z"/>
		<path class="st0" d="M336.3,61.5l0.3-1.3c0.6,0.1,1.8,0.4,2.7,0.4c1.8,0,3.2-0.4,3.5-2.7l0.2-2.2c-1.4,1.4-2.5,2.1-3.6,2.1
			c-1.4,0-2-1-2-3.1c0-3.9,2.6-7.5,6-7.5c0.6,0,1.4,0.1,1.8,0.1l-1.1,10.8c-0.3,2.8-2.6,3.6-4.6,3.6C338,61.9,336.7,61.6,336.3,61.5
			z M343.1,54.3l0.6-5.7c-0.1,0-0.4,0-0.6,0c-2.5,0-4.3,3.1-4.3,6c0,1.5,0.4,1.9,0.9,1.9C340.7,56.5,342.6,54.9,343.1,54.3z"/>
	</g>
	<g>
		<g>
			<path class="st0" d="M31.4,1.3c-0.8-0.5-1.6-0.9-2.4-1.2L12.7,9.4L5.5,5.3C5,5.8,4.5,6.4,4.1,7l8.7,5L31.4,1.3z"/>
			<path class="st0" d="M35.4,4.3c-0.6-0.6-1.2-1.1-1.8-1.6l-20.8,12L2.8,8.9c-0.4,0.7-0.7,1.3-1,2l10.9,6.3L35.4,4.3z"/>
			<path class="st0" d="M38.3,7.8c-0.4-0.6-0.9-1.3-1.4-1.8L12.7,19.9L1,13.1c-0.2,0.7-0.4,1.5-0.6,2.3l12.3,7.1L38.3,7.8z"/>
			<path class="st0" d="M39.5,9.8L12.7,25.1L0.1,17.9c0,0.5,0,0.9,0,1.4c0,11.5,9.3,20.8,20.8,20.8c11.5,0,20.8-9.3,20.8-20.8
				C41.7,15.8,40.9,12.6,39.5,9.8z"/>
		</g>
		<g>
			<g>
				<g>
					<g>
						<g>
							<g>
								<rect x="54.2" y="32.5" class="st0" width="291.7" height="2.2"/>
							</g>
						</g>
					</g>
				</g>
			</g>
		</g>
		<g>
			<g>
				<path class="st0" d="M69.6,24.1l0.7,1.3c-2,1.3-4.6,2-7.4,2c-6.5,0-10.2-3.5-10.2-10.9c0-7.1,3-11.4,10.6-11.4
					c3.4,0,5.7,0.7,6.3,1c-0.1,1.5-0.1,3.1,0,4.5h-1.4l-0.4-1.4c-0.5-1.6-1.4-2.7-4.4-2.7c-4.6,0-5.8,3.4-5.8,9.2
					c0,5.6,1.1,9.7,6.5,9.7C66.7,25.4,68.3,24.8,69.6,24.1z M79.6,6.8C78.2,6.8,78,7.1,78,8v5.1h1.2c5.9,0,10.1,0.7,10.1,6.6
					c0,5.8-3.3,7.2-8.5,7.2h-8.6v-0.7c1.1-0.2,1.2-0.6,1.2-1.7V7.8c0-1.2-0.2-1.5-1.2-1.7V5.4h16.1c-0.1,1.6-0.1,3.1,0,4.7h-1.2
					l-0.3-0.9c-0.7-2.2-1.4-2.4-4.3-2.4H79.6z M80.6,25.7c2.8,0,3.9-1.9,3.9-5.6c0-3.5-1-5.5-4.6-5.5H78v9.3c0,1.4,0.4,1.9,1.9,1.9
					H80.6z M98.7,6.8c-0.9,0-1.1,0.2-1.1,1v6.7h2.9c1.2,0,3.1-0.1,3.8-0.6v2.7c-0.7-0.5-2.6-0.6-3.8-0.6h-2.9v8.1
					c0,1.3,0.5,1.7,3.4,1.7h0.6c2.8,0,3.5-0.2,4.2-2.9L106,22h1.4c-0.1,1.7-0.1,3.4,0,5H91.8v-0.7c1.1-0.2,1.2-0.6,1.2-1.7V7.8
					c0-1.2-0.2-1.5-1.2-1.7V5.4h15.1c-0.1,1.6-0.1,3.1,0,4.7h-1.2l-0.3-0.9c-0.7-2.2-1.5-2.4-4.3-2.4H98.7z M110.1,27v-0.7
					c1.1-0.2,1.2-0.6,1.2-1.7V7.8c0-1.2-0.2-1.5-1.2-1.7V5.4h8.9c4.3,0,7.5,1,7.5,6.2c0,5.3-3.2,6.8-8.4,6.8H116v6.1
					c0,1.2,0.2,1.5,1.2,1.7V27H110.1z M118.2,17.1c2.9,0,3.5-2.3,3.5-5.7c0-2.8-1-4.7-3.9-4.7h-0.5c-0.9,0-1.4,0.2-1.4,1.2v9.2
					H118.2z M135.9,6.8c-1.4,0-1.5,0.3-1.5,1.3v5.1h1.2c5.9,0,10.1,0.7,10.1,6.6c0,5.8-3.3,7.2-8.5,7.2h-8.6v-0.7
					c1.1-0.2,1.2-0.6,1.2-1.7V7.8c0-1.2-0.2-1.5-1.2-1.7V5.4h16.1c-0.1,1.6-0.1,3.1,0,4.7h-1.2l-0.3-0.9c-0.7-2.2-1.5-2.4-4.3-2.4
					H135.9z M136.9,25.7c2.8,0,3.9-1.9,3.9-5.6c0-3.5-1-5.5-4.6-5.5h-1.9v9.3c0,1.4,0.4,1.9,1.9,1.9H136.9z M161.4,27
					c-0.2-1.2-0.9-3.3-1.4-5.1l-0.9-2.7h-6.8c-0.7,2.2-1.2,3.9-1.5,5.2c-0.2,1.2-0.4,2.2-0.5,2.7h-3.9c0.5-0.8,1.5-2.7,3-6.4l4-9.8
					c0.9-2.2,1-2.9,1-3.5c0-0.4-0.1-1-1.2-1.3V5.4h6.2c0.1,0.6,0.2,1.4,0.8,3.2l4.5,12.9c0.9,2.5,1.9,4.7,2.3,5.5H161.4z
					 M158.6,17.8l-2.9-8.7l-3,8.7H158.6z M182.8,15.9h-8.3v8.7c0,1.2,0.2,1.5,1.2,1.7V27h-7.1v-0.7c1.1-0.2,1.2-0.6,1.2-1.7V7.8
					c0-1.2-0.2-1.5-1.2-1.7V5.4h7.1v0.7c-1.1,0.2-1.2,0.6-1.2,1.7v6.6h8.3V7.8c0-1.2-0.2-1.5-1.2-1.7V5.4h7.1v0.7
					c-1.1,0.2-1.2,0.6-1.2,1.7v16.8c0,1.2,0.2,1.5,1.2,1.7V27h-7.1v-0.7c1.1-0.2,1.2-0.6,1.2-1.7V15.9z M193.3,7.8
					c0-1.2-0.2-1.5-1.2-1.7V5.4h7.1v0.7c-1.1,0.2-1.2,0.6-1.2,1.7v16.8c0,1.2,0.2,1.5,1.2,1.7V27h-7.1v-0.7c1.1-0.2,1.2-0.6,1.2-1.7
					V7.8z M204.8,17.5c1.5,2.1,5,6.9,7.6,9.5h-7.2c-0.5-1.1-1.3-3-3.5-6.4l-3.3-4.9l2.8-3.7c1.7-2.2,3.9-5.1,4.5-6.6h5.1v0
					c-2,1.2-5.5,4.6-6.4,5.7l-2.3,2.4L204.8,17.5z"/>
			</g>
			<path class="st0" d="M321.6,15.9h-8.3v8.7c0,1.2,0.2,1.5,1.2,1.7V27h-7.1v-0.7c1.1-0.2,1.2-0.6,1.2-1.7V7.8
				c0-1.2-0.2-1.5-1.2-1.7V5.4h7.1v0.7c-1.1,0.2-1.2,0.6-1.2,1.7v6.6h8.3V7.8c0-1.2-0.2-1.5-1.2-1.7V5.4h7.1v0.7
				c-1.1,0.2-1.2,0.6-1.2,1.7v16.8c0,1.2,0.2,1.5,1.2,1.7V27h-7.1v-0.7c1.1-0.2,1.2-0.6,1.2-1.7V15.9z"/>
			<path class="st0" d="M266,6.1V5.4h-7.1v0.7c1.1,0.2,1.2,0.6,1.2,1.7v2.9l-8.7,8l0-10.9c0-1.2,0.2-1.5,1.2-1.7V5.4h-7.1v0.7
				c1.1,0.2,1.2,0.6,1.2,1.7v16.8c0,1.2-0.2,1.5-1.2,1.7V27h7.1v-0.7c-1.1-0.2-1.2-0.6-1.2-1.7v-3.7l8.7-8l0,11.7
				c0,1.2-0.2,1.5-1.2,1.7V27h7.1v-0.7c-1.1-0.2-1.2-0.6-1.2-1.7V7.8C264.8,6.6,265,6.3,266,6.1z"/>
			<path class="st0" d="M304.6,6.1V5.4h-7.1v0.7c1.1,0.2,1.2,0.6,1.2,1.7v2.9l-8.7,8l0-10.9c0-1.2,0.2-1.5,1.2-1.7V5.4h-7.1v0.7
				c1.1,0.2,1.2,0.6,1.2,1.7v16.8c0,1.2-0.2,1.5-1.2,1.7V27h7.1v-0.7c-1.1-0.2-1.2-0.6-1.2-1.7v-3.7l8.7-8l0,11.7
				c0,1.2-0.2,1.5-1.2,1.7V27h7.1v-0.7c-1.1-0.2-1.2-0.6-1.2-1.7V7.8C303.4,6.6,303.5,6.3,304.6,6.1z"/>
			<path class="st0" d="M242.8,6.1V5.4h-14.3v0.7c1.1,0.2,1.2,0.9,1.2,1.3c0,0,0,0.1,0,0.1c-0.1,3.9-1.8,12.5-3,14.2
				c-0.8,1.1-2.4,1.8-4.2,2.3l1.6,3.6c6.3-1.9,6.2-8.1,7.1-15.4l0.4-5.3h5.3v17.7c0,1.2-0.2,1.5-1.2,1.7V27h7.1v-0.7
				c-1.1-0.2-1.2-0.6-1.2-1.7V7.8C241.6,6.6,241.7,6.3,242.8,6.1z"/>
			<path class="st0" d="M345.9,5.4h-10.5h-4.9v0.7c1.1,0.2,1.2,0.6,1.2,1.7v16.8c0,1.2-0.2,1.5-1.2,1.7V27h4.5h2.6v-0.7
				c-1.1-0.2-1.2-0.6-1.2-1.7V8.5l0,0V8c0-0.9,0.2-1.3,1.5-1.3h2.3c2.8,0,3.6,0.2,4.3,2.4l0.3,0.9h1.2C345.8,8.5,345.8,7,345.9,5.4z
				"/>
			<path class="st0" d="M277.5,15.2c2.2-0.5,4.5-1.7,4.5-4.6c0-0.1,0-0.1,0-0.2c0-2.1-0.8-3.3-2-4c-0.8-0.5-1.9-0.9-3.5-1.1
				c0,0-0.3,0-0.4,0c-1.9-0.2-3.5-0.1-4.8,0.1c-0.8,0.1-1.5,0.3-2,0.5c-0.1,0-0.1,0-0.2,0.1c0,0,0,0,0,0c-0.8,0.2-1.2,0.5-1.2,0.5
				c0.1,1.5,0.1,2.8,0,4.3h1.1c0,0,0,0,0,0s0.4-1.3,0.6-1.7c0.2-0.4,1.2-2.5,4.4-2.2c1,0.1,1.7,0.5,2.3,0.9c0.2,0.1,0.3,0.3,0.4,0.4
				c0,0,0,0,0,0c1,1,1.1,2.4,1.1,2.6c0,0.3,0.6,4.7-5.6,4.3l-0.7,0l0,1.1c0,0,2.6-0.3,4.2,0.5c1.7,0.8,2.8,2.4,2.1,5.6
				c-0.6,2.9-4.6,4.8-9.8,2.2c0,0,0,0,0,0l-0.6,1.3c1.6,1.1,3.8,1.8,6,2c0,0,0.8,0,1.1,0c1.4,0,2.7-0.2,3.8-0.5
				c2.6-0.8,4.3-2.5,4.3-6.2C282.7,17.4,280.2,15.4,277.5,15.2z"/>
		</g>
	</g>
</g>
</svg>
