<?xml version="1.0" encoding="utf-8"?>
<!-- Generator: Adobe Illustrator 22.0.1, SVG Export Plug-In . SVG Version: 6.00 Build 0)  -->
<svg version="1.1" id="Слой_1" xmlns="http://www.w3.org/2000/svg" xmlns:xlink="http://www.w3.org/1999/xlink" x="0px" y="0px"
	 viewBox="0 0 400 300" style="enable-background:new 0 0 400 300;" xml:space="preserve">
<style type="text/css">
	.st0{fill:#ECF0C0;}
	.st1{fill:#D6D6D6;}
	.st2{fill:none;stroke:#767573;stroke-width:0.25;stroke-miterlimit:10;}
	.st3{fill:#D34F6B;}
	.st4{fill:#EDED99;}
	.st5{fill:#C9C9C9;}
	.st6{fill:none;stroke:#FFFFFF;stroke-width:4;stroke-miterlimit:10;}
	.st7{fill:#D34F6B;stroke:#C8556C;stroke-width:3;stroke-miterlimit:10;}
	.st8{fill:#FFFFFF;}
	.st9{fill:#0E0F0F;}
	.st10{fill:#AF546D;}
	.st11{fill:#CACACA;}
	.st12{fill:#D65E53;}
	.st13{fill:#C25349;}
	.st14{fill:#DFDFE0;}
	.st15{fill:#C97C47;}
	.st16{fill:#D2D1D1;}
	.st17{fill:#ECEBEB;}
	.st18{fill:#B67048;}
	.st19{fill:#DBDADB;}
	.st20{fill:#ECB262;}
	.st21{fill:#E9C465;}
	.st22{fill:#E6E6E6;}
	.st23{fill:#D6A156;}
	.st24{fill:#EFEEEF;}
	.st25{fill:#DDDDDD;}
	.st26{fill:#BFBFBF;}
	.st27{fill:#F6DA7C;}
	.st28{fill:#E69E4F;}
	.st29{fill:#E18E47;}
	.st30{fill:#D9668B;}
	.st31{fill:#C95670;}
	.st32{fill:#F6D7B3;}
	.st33{fill:#878492;}
	.st34{fill:#8F95AA;}
	.st35{fill:#50957F;}
	.st36{fill:#F7D489;}
	.st37{fill:#E69E68;}
	.st38{fill:#DA6E70;}
	.st39{fill:#BBD57E;}
	.st40{fill:#A47DB5;}
	.st41{fill:#866DAD;}
	.st42{fill:#75598D;}
	.st43{fill:#4F9C97;}
	.st44{fill:#F0F0F0;}
	.st45{fill:#E0E0E3;}
	.st46{fill:#DFE359;}
	.st47{fill:#B5B351;}
	.st48{fill:#8C884E;}
	.st49{fill:#DEC149;}
	.st50{opacity:0.3;fill:#D4D4D8;enable-background:new    ;}
	.st51{fill:#C05746;}
	.st52{fill:#A7C45C;}
</style>
<g>
	<g>
		<path class="st34" d="M103.2,95.1c-0.8,0-1.6-0.5-1.9-1.3c-0.4-1.1,0.1-2.3,1.1-2.7l24-10l12.1-30.2c0.3-0.6,0.8-1.1,1.5-1.3
			c0.7-0.1,1.4,0.1,1.9,0.6l17.1,17.1l15.6-17c0.8-0.8,2.1-0.9,2.9-0.1c0.8,0.8,0.9,2.1,0.1,2.9l-17.1,18.6
			c-0.4,0.4-0.9,0.7-1.5,0.7c-0.5,0-1.1-0.2-1.5-0.6l-16.4-16.4l-11.2,28.1c-0.2,0.5-0.6,0.9-1.1,1.1L104,94.9
			C103.7,95,103.4,95.1,103.2,95.1z"/>
		<path class="st34" d="M190,43.9c-0.8,0-1.6-0.5-1.9-1.2c-0.5-1,0-2.3,1.1-2.7L214,29.1c1-0.5,2.3,0,2.7,1.1c0.5,1,0,2.3-1.1,2.7
			l-24.8,10.9C190.6,43.8,190.3,43.9,190,43.9z"/>
	</g>
	<circle class="st35" cx="214.9" cy="31" r="4.1"/>
	<circle class="st36" cx="159" cy="70.3" r="4.1"/>
	<circle class="st37" cx="140.4" cy="51.6" r="4.1"/>
	<circle class="st38" cx="128" cy="82.7" r="4.1"/>
	<g>
		<circle class="st8" cx="181.8" cy="4.1" r="2.1"/>
		<circle class="st8" cx="181.8" cy="12.3" r="2.1"/>
		<circle class="st8" cx="181.8" cy="20.6" r="2.1"/>
		<circle class="st8" cx="181.8" cy="28.9" r="2.1"/>
	</g>
	<circle class="st39" cx="181.8" cy="45.4" r="4.1"/>
	<circle class="st8" cx="181.8" cy="62" r="2.1"/>
	<circle class="st8" cx="181.8" cy="70.3" r="2.1"/>
	<path class="st8" d="M181.8,55.8c-5.7,0-10.3-4.6-10.3-10.3s4.6-10.3,10.3-10.3s10.3,4.6,10.3,10.3S187.5,55.8,181.8,55.8z
		 M181.8,39.2c-3.4,0-6.2,2.8-6.2,6.2c0,3.4,2.8,6.2,6.2,6.2s6.2-2.8,6.2-6.2C188,42,185.2,39.2,181.8,39.2z"/>
</g>
<g>
	<g>
		<rect x="294" y="225.7" class="st46" width="42.3" height="42.3"/>
		<polygon class="st47" points="330.1,268 330.1,261.8 336.3,261.8 		"/>
		<polygon class="st48" points="336.3,261.8 336.3,268 330.1,268 		"/>
	</g>
	<g>
		<path class="st0" d="M327.1,235.2h-23.9c-0.6,0-1-0.4-1-1v-0.7c0-0.5,0.4-1,1-1h23.9c0.5,0,1,0.5,1,1v0.7
			C328.1,234.8,327.7,235.2,327.1,235.2z"/>
		<path class="st0" d="M327.1,240.7h-23.9c-0.6,0-1-0.4-1-1V239c0-0.6,0.4-1,1-1h23.9c0.5,0,1,0.4,1,1v0.7
			C328.1,240.3,327.7,240.7,327.1,240.7z"/>
		<path class="st0" d="M321.7,246.2h-18.5c-0.6,0-1-0.5-1-1v-0.7c0-0.6,0.4-1,1-1h18.5c0.6,0,1,0.4,1,1v0.7
			C322.7,245.7,322.2,246.2,321.7,246.2z"/>
	</g>
</g>
<g>
	<g>
		<rect x="330.8" y="167" class="st46" width="42.3" height="42.3"/>
		<polygon class="st47" points="366.9,209.3 366.9,203.1 373.2,203.1 		"/>
		<polygon class="st48" points="373.1,203.1 373.2,209.3 366.9,209.3 		"/>
	</g>
	<g>
		<path class="st0" d="M364,184.7H340c-0.5,0-1-0.4-1-1V183c0-0.5,0.4-1,1-1H364c0.5,0,1,0.4,1,1v0.7
			C365,184.3,364.5,184.7,364,184.7z"/>
		<path class="st0" d="M364,190.2H340c-0.5,0-1-0.4-1-1v-0.7c0-0.5,0.4-1,1-1H364c0.5,0,1,0.5,1,1v0.7
			C365,189.8,364.5,190.2,364,190.2z"/>
		<path class="st0" d="M361.2,195.7h-18.5c-0.6,0-1-0.5-1-1v-0.7c0-0.6,0.4-1,1-1h18.5c0.6,0,1,0.4,1,1v0.7
			C362.2,195.2,361.8,195.7,361.2,195.7z"/>
	</g>
</g>
<g>
	<g>
		<rect x="356.8" y="109.7" class="st46" width="42.3" height="42.3"/>
		<polygon class="st47" points="392.9,152 392.9,145.8 399.1,145.8 		"/>
		<polygon class="st48" points="399.1,145.8 399.1,152 392.9,152 		"/>
	</g>
	<g>
		<path class="st0" d="M394,119.2h-23.9c-0.6,0-1-0.4-1-1v-0.7c0-0.5,0.4-1,1-1H394c0.5,0,1,0.4,1,1v0.7
			C395,118.8,394.5,119.2,394,119.2z"/>
		<path class="st0" d="M394,124.7h-23.9c-0.6,0-1-0.4-1-1V123c0-0.5,0.4-1,1-1H394c0.5,0,1,0.5,1,1v0.7
			C395,124.2,394.5,124.7,394,124.7z"/>
		<path class="st0" d="M394,130.2h-18.5c-0.5,0-1-0.4-1-1v-0.7c0-0.6,0.5-1,1-1H394c0.5,0,1,0.4,1,1v0.7
			C395,129.7,394.5,130.2,394,130.2z"/>
	</g>
</g>
<g>
	<g>
		<rect x="324" y="51" class="st46" width="42.3" height="42.3"/>
		<polygon class="st47" points="360.1,93.3 360.1,87.1 366.3,87.1 		"/>
		<polygon class="st48" points="366.3,87.1 366.3,93.3 360.1,93.3 		"/>
	</g>
	<g>
		<path class="st0" d="M355.8,74.2h-23.9c-0.6,0-1-0.4-1-1v-0.7c0-0.5,0.4-1,1-1h23.9c0.5,0,1,0.5,1,1v0.7
			C356.8,73.8,356.3,74.2,355.8,74.2z"/>
		<path class="st0" d="M346.2,79.7h-14.4c-0.6,0-1-0.4-1-1v-0.7c0-0.6,0.4-1,1-1h14.4c0.6,0,1,0.4,1,1v0.7
			C347.2,79.2,346.8,79.7,346.2,79.7z"/>
		<path class="st0" d="M350.3,85.1h-18.5c-0.6,0-1-0.5-1-1v-0.7c0-0.6,0.4-1,1-1h18.5c0.5,0,1,0.4,1,1v0.7
			C351.3,84.7,350.9,85.1,350.3,85.1z"/>
	</g>
</g>
<g>
	<path class="st8" d="M76.4,239.5c0,4.7-2.4,8.9-6.1,11.2c0,0,50.3,0,55,0c4.7,0,11-3.2,11-11.2s-6.3-11.2-11-11.2c-4.7,0-55,0-55,0
		C73.9,230.6,76.4,234.8,76.4,239.5z"/>
	<path class="st49" d="M64.9,225.3h59.8c7.8,0,14.2,6.4,14.2,14.2c0,7.8-6.4,14.2-14.2,14.2H64.9v-5.5h59.8c4.8,0,8.7-3.9,8.7-8.7
		c0-4.8-3.9-8.7-8.7-8.7H64.9V225.3z"/>
	<path class="st50" d="M76.4,239.5c0,3.3-1.2,6.3-3.2,8.7h-8.3v5.5h59.8c7.8,0,14.2-6.4,14.2-14.2H76.4L76.4,239.5z"/>
	<path class="st8" d="M127.3,267.8c0,4.7,2.4,8.9,6.1,11.2c0,0-50.3,0-55,0s-11-3.2-11-11.2c0-8.1,6.3-11.2,11-11.2c4.7,0,55,0,55,0
		C129.8,259,127.3,263.1,127.3,267.8z"/>
	<path class="st51" d="M138.8,253.7H79c-7.8,0-14.2,6.4-14.2,14.2c0,7.8,6.4,14.2,14.2,14.2h59.8v-5.5H79c-4.8,0-8.7-3.9-8.7-8.7
		c0-4.8,3.9-8.7,8.7-8.7h59.8L138.8,253.7L138.8,253.7z"/>
	<path class="st50" d="M127.3,267.8c0,3.3,1.2,6.3,3.2,8.7h8.3v5.5H79c-7.8,0-14.2-6.4-14.2-14.2H127.3z"/>
	<path class="st8" d="M127.3,211.2c0,4.7,2.4,8.9,6.1,11.2c0,0-50.3,0-55,0s-11-3.2-11-11.2c0-8.1,6.3-11.2,11-11.2c4.7,0,55,0,55,0
		C129.8,202.3,127.3,206.4,127.3,211.2z"/>
	<path class="st52" d="M138.8,197H79c-7.8,0-14.2,6.4-14.2,14.2c0,7.8,6.4,14.2,14.2,14.2h59.8v-5.5H79c-4.8,0-8.7-3.9-8.7-8.7
		c0-4.8,3.9-8.7,8.7-8.7h59.8L138.8,197L138.8,197z"/>
	<path class="st50" d="M127.3,211.2c0,3.3,1.2,6.3,3.2,8.7h8.3v5.5H79c-7.8,0-14.2-6.4-14.2-14.2H127.3z"/>
</g>
</svg>
