<?xml version="1.0" encoding="utf-8"?>
<!-- Generator: Adobe Illustrator 22.0.1, SVG Export Plug-In . SVG Version: 6.00 Build 0)  -->
<svg version="1.1" id="Слой_1" xmlns="http://www.w3.org/2000/svg" xmlns:xlink="http://www.w3.org/1999/xlink" x="0px" y="0px"
	 viewBox="0 0 400 300" style="enable-background:new 0 0 400 300;" xml:space="preserve">
<style type="text/css">
	.st0{fill:#ECF0C0;}
	.st1{fill:#EDED99;}
	.st2{fill:#C4E0F7;}
	.st3{fill:#F4E3EF;}
	.st4{fill:none;stroke:#FFFFFF;stroke-width:4;stroke-miterlimit:10;}
	.st5{fill:#D34F6B;stroke:#C8556C;stroke-width:3;stroke-miterlimit:10;}
	.st6{fill:#FFFFFF;}
	.st7{fill:#0E0F0F;}
	.st8{fill:none;stroke:#FFFFFF;stroke-width:4;stroke-linecap:round;stroke-linejoin:round;stroke-miterlimit:10;}
	.st9{fill:#F8EF78;stroke:#F8EF78;stroke-width:3;stroke-linecap:round;stroke-linejoin:round;stroke-miterlimit:10;}
	.st10{fill:#D34F6B;}
	.st11{fill:#AF546D;}
	.st12{fill:#D6D6D6;}
	.st13{fill:#CACACA;}
	.st14{fill:#D65E53;}
	.st15{fill:#C25349;}
	.st16{fill:#DFDFE0;}
	.st17{fill:#C97C47;}
	.st18{fill:#D2D1D1;}
	.st19{fill:#ECEBEB;}
	.st20{fill:#B67048;}
	.st21{fill:#DBDADB;}
	.st22{fill:#ECB262;}
	.st23{fill:#E9C465;}
	.st24{fill:#E6E6E6;}
	.st25{fill:#D6A156;}
	.st26{fill:#EFEEEF;}
	.st27{fill:#DDDDDD;}
	.st28{fill:#BFBFBF;}
	.st29{fill:#F6DA7C;}
	.st30{fill:#E69E4F;}
	.st31{fill:#E18E47;}
	.st32{fill:#D9668B;}
	.st33{fill:#C95670;}
	.st34{fill:#F6D7B3;}
	.st35{fill:#878492;}
	.st36{fill:#8F95AA;}
	.st37{fill:#50957F;}
	.st38{fill:#F7D489;}
	.st39{fill:#E69E68;}
	.st40{fill:#DA6E70;}
	.st41{fill:#BBD57E;}
	.st42{fill:#A47DB5;}
	.st43{fill:#866DAD;}
	.st44{fill:#75598D;}
	.st45{fill:#4F9C97;}
	.st46{fill:#F0F0F0;}
	.st47{fill:#E0E0E3;}
	.st48{fill:#DFE359;}
	.st49{fill:#B5B351;}
	.st50{fill:#8C884E;}
	.st51{fill:#DEC149;}
	.st52{opacity:0.3;fill:#D4D4D8;enable-background:new    ;}
	.st53{fill:#C05746;}
	.st54{fill:#A7C45C;}
	.st55{fill:#5B666F;}
	.st56{fill:#F3EF8C;}
	.st57{fill:#D2D4D6;}
	.st58{fill:#F5D193;}
	.st59{fill:#F0D247;}
	.st60{fill:#E7AE53;}
	.st61{fill:#D34F6B;stroke:#D34F6B;stroke-width:6;stroke-linecap:round;stroke-miterlimit:10;}
	.st62{fill:#778FC8;}
	.st63{fill:#5BB4A4;}
	.st64{fill:#63A6DD;}
</style>
<g>
	<path class="st10" d="M135.3,295.1l-18.1-6.8c-1.9-0.7-2.8-2.8-2.1-4.7l29.4-76.6c0.7-1.9,2.8-2.8,4.7-2.1l18.1,6.8
		c1.9,0.7,2.8,2.8,2.1,4.7L140,293C139.3,294.9,137.2,295.8,135.3,295.1z"/>
	<path class="st11" d="M117.5,288.2l-0.1,0.2l3.7,1.3l39.2-61.5C160.2,228.3,117.5,288.2,117.5,288.2z"/>
	<path class="st12" d="M167.3,211.8l-18.1-6.8c-1.9-0.7-4,0.2-4.7,2.1l-9.3,24.2l24.6,10.2l9.6-25
		C170.1,214.6,169.2,212.5,167.3,211.8z"/>
	<path class="st13" d="M152.8,238.6l0.6,0.3l6.8-10.6L152.8,238.6z"/>
	<path class="st14" d="M112.5,289L97,277.8c-1.6-1.2-2-3.5-0.8-5.1l47.2-66.2c1.2-1.6,3.4-2,5-0.8l15.5,11.2c1.6,1.2,2,3.5,0.8,5.1
		l-47.2,66.2C116.3,289.8,114.1,290.2,112.5,289z"/>
	<path class="st15" d="M98.1,278.5l3.5,2.6l48.1-44.7C149.7,236.4,98.1,278.5,98.1,278.5z"/>
	<path class="st16" d="M148.4,205.7c-1.6-1.2-3.8-0.8-5,0.8l-16,22.5l21.1,15.7l16.2-22.7c1.2-1.6,0.8-3.9-0.8-5.1
		C163.9,216.9,148.4,205.7,148.4,205.7z"/>
	<path class="st17" d="M92.9,278l-12.3-15c-1.3-1.6-1-3.9,0.5-5.1l64-52.2c1.6-1.3,3.9-1,5.1,0.5l12.3,15c1.3,1.6,1,3.9-0.5,5.1
		l-64,52.2C96.5,279.8,94.2,279.6,92.9,278z"/>
	<path class="st18" d="M143.8,241.3l0.4,0.3l5.5-5.1L143.8,241.3z"/>
	<path class="st19" d="M162.6,221.2l-12.3-15c-1.3-1.6-3.6-1.8-5.1-0.5l-22.4,18.2l17.5,20.2l21.7-17.7
		C163.7,225,163.9,222.7,162.6,221.2z"/>
	<path class="st20" d="M81.9,261.4c-0.6,0.3-1.3,0.4-2,0.3c0.2,0.5,0.4,0.9,0.7,1.3l2.5,3l63.3-33.9L81.9,261.4z M157.1,222.2l0-0.2
		l-0.1,0L157.1,222.2z"/>
	<path class="st21" d="M157.1,222.2l0-0.2l-0.1,0L157.1,222.2z M134.7,237.5l0.6,0.7l11.2-6L134.7,237.5z"/>
	<path class="st22" d="M77.2,259.6L69.3,242c-0.8-1.8-0.1-3.9,1.7-4.8l73.7-33.5c1.8-0.8,3.9,0,4.7,1.8l7.9,17.7
		c0.8,1.8,0.1,3.9-1.7,4.8l-73.7,33.4C80.1,262.2,78,261.4,77.2,259.6z"/>
	<path class="st23" d="M66,238L63.3,221c-0.4-2.4,1.2-4.6,3.6-4.9l79.8-13c2.4-0.4,4.6,1.2,4.9,3.6l2.7,16.9
		c0.4,2.4-1.2,4.6-3.6,4.9l-79.8,13C68.6,241.9,66.4,240.3,66,238z"/>
	<path class="st24" d="M131.5,238.9l24.1-11c1.8-0.8,2.6-2.9,1.7-4.8l-7.9-17.7c-0.8-1.8-2.9-2.6-4.7-1.8l-23.8,10.9L131.5,238.9z"
		/>
	<path class="st25" d="M71,241.5c-0.7,0.1-1.3,0-1.8-0.1c0,0.2,0.1,0.4,0.2,0.6l1.8,4.1l64.4-15.1L71,241.5z"/>
	<path class="st26" d="M123.9,232.9l26.9-4.4c2.4-0.4,3.9-2.6,3.6-4.9l-2.7-16.9c-0.4-2.4-2.6-3.9-4.9-3.6l-26.9,4.4L123.9,232.9z"
		/>
	<path class="st27" d="M128.6,232.2l0.2,0.5l6.8-1.6L128.6,232.2z"/>
	<path class="st28" d="M127.4,228.2l4.1-0.7l-2.3-13.9l-4.1,0.7L127.4,228.2z M148.6,224.7l-0.9-5.7l-2.5,0.4l0.9,5.7L148.6,224.7z
		 M142.9,225.6l-0.9-5.7l-2.5,0.4l0.9,5.7L142.9,225.6z M137.2,226.6l-0.9-5.7l-2.5,0.4l0.9,5.7L137.2,226.6z M142.2,211.1
		c-0.2-1.1,0.6-2.2,1.7-2.4c1.1-0.2,2.2,0.6,2.4,1.7c0.2,1.1-0.6,2.2-1.7,2.4C143.4,213,142.4,212.2,142.2,211.1z"/>
</g>
<g id="XMLID_1_">
	<g>
		<path class="st6" d="M373.8,123.6c1.2,2.1,1.6,4.5,1,6.8l-21.7,84.9H246.2c-0.1-0.5-0.1-1-0.1-1.5c0-5,4.1-9,9-9c0,0,0,0,0,0
			l82,0.1l20.2-78.9c0.6-2.3,2.1-4.3,4.1-5.5c2.1-1.2,4.5-1.6,6.8-1C370.6,120,372.6,121.5,373.8,123.6z"/>
		<path class="st19" d="M353.1,215.3l-0.2,0.9c-1,4-4.7,6.8-8.8,6.8c-0.3,0-0.5,0-0.7,0l-88.2-0.1c-4.5,0-8.2-3.3-8.9-7.5H353.1z"/>
	</g>
</g>
<g>
	<path class="st36" d="M98.4,87.5c0-0.7-0.1-1.2-0.1-1.6c0-21.7,0-43.4,0-65.1c0-2,0.7-2.4,2.6-2.4c20.6,0,41.2,0.1,61.8,0
		c2,0,2.7,0.5,2.6,2.6c-0.1,21.4-0.1,42.8,0,64.1c0,1.6-0.1,2.6-2.1,2.6c-21.1-0.1-42.1,0-63.2,0C99.4,87.7,99,87.6,98.4,87.5z
		 M162.8,85.7c0.1-0.5,0.1-0.7,0.1-0.9c0-18.5,0-37,0-55.6c0-1.9-0.9-2-2.4-2c-19.1,0-38.3,0.1-57.4,0c-2.1,0-2.6,0.6-2.6,2.6
		c0.1,18,0,36,0,54c0,0.7,0.1,1.3,0.1,2C121.5,85.7,142,85.7,162.8,85.7z M106.6,24.7c18.9,0,37.5,0,56.1,0c0-1.4,0-2.6,0-3.8
		c-18.8,0-37.4,0-56.1,0C106.6,22.2,106.6,23.4,106.6,24.7z M103.8,21.2c-1.2,0-2.1,0-3.1,0c0,1.3,0,2.4,0,3.5c1.1,0,2.1,0,3.1,0
		C103.8,23.5,103.8,22.5,103.8,21.2z"/>
	<path class="st6" d="M162.8,85.7c-20.7,0-41.3,0-62,0c0-0.7-0.1-1.4-0.1-2c0-18,0-36,0-54c0-2,0.5-2.6,2.6-2.6
		c19.1,0.1,38.3,0.1,57.4,0c1.5,0,2.4,0.1,2.4,2c-0.1,18.5,0,37,0,55.6C162.9,85,162.8,85.2,162.8,85.7z M121.1,62.8
		c5.1,0,10.1,0,15.2,0c1.5,0,2.1-0.5,2.1-2c0-9.1,0-18.1,0-27.2c0-1.6-0.6-2.3-2.3-2.3c-9.9,0.1-19.8,0.1-29.7,0
		c-1.8,0-2.5,0.8-2.4,2.5c0,9,0,18,0,27c0,1.7,0.7,2,2.2,2C111.1,62.7,116.1,62.8,121.1,62.8z M141.9,81.7c4.8,0,9.7-0.1,14.5,0
		c1.6,0,2.2-0.7,2.2-2.2c0-3.8,0.1-7.7-0.1-11.5c0-0.7-1.2-1.9-1.9-1.9c-9.8-0.1-19.6-0.1-29.5-0.1c-1.6,0-2.2,0.8-2.1,2.3
		c0,3.7,0,7.4,0,11c0,1.6,0.7,2.3,2.4,2.3C132.2,81.6,137.1,81.7,141.9,81.7z M104.1,66.4c0,4.8,0,9.5,0.1,14.1c0,0.4,1,1,1.6,1.1
		c4.5,0.1,8.9,0,13.4,0.1c1.3,0,1.8-0.5,1.8-1.8c0-3.9,0.1-7.8-0.1-11.7c0-0.6-1-1.6-1.5-1.6C114.3,66.4,109.4,66.4,104.1,66.4z
		 M143.2,45.5c5.2,0,10,0,15,0c0-0.8,0-1.6,0-2.3c-5.1,0-10,0-15,0C143.2,44,143.2,44.6,143.2,45.5z M143,31.4
		c0.1,0.9,0.2,1.5,0.2,2.1c5.1,0,10,0,14.9,0c0-0.8,0-1.4,0-2.1C153.1,31.4,148.3,31.4,143,31.4z M143.2,39.5c5.1,0,10.1,0,15.2,0
		c-0.1-0.8-0.2-1.4-0.2-2.1c-5.1,0-10,0-14.9,0C143.2,38.2,143.2,38.8,143.2,39.5z M143.2,51.1c5.1,0,10.1,0,15.2,0
		c-0.1-0.8-0.1-1.4-0.2-2.1c-5.1,0-10,0-14.9,0C143.2,49.7,143.2,50.3,143.2,51.1z M158.2,55c-5.1,0-10,0-15,0c0,0.7,0,1.4,0,2.1
		c5.1,0,10,0,15,0C158.2,56.3,158.2,55.7,158.2,55z M143.1,62.6c5.2,0,10.1,0,15.2,0c-0.1-0.8-0.1-1.4-0.2-2c-5.1,0-9.9,0-15,0
		C143.1,61.3,143.1,61.8,143.1,62.6z"/>
	<path class="st6" d="M106.6,24.7c0-1.3,0-2.5,0-3.8c18.7,0,37.4,0,56.1,0c0,1.3,0,2.5,0,3.8C144.1,24.7,125.5,24.7,106.6,24.7z"/>
	<path class="st6" d="M103.8,21.2c0,1.2,0,2.3,0,3.5c-1,0-2,0-3.1,0c0-1.1,0-2.2,0-3.5C101.7,21.2,102.7,21.2,103.8,21.2z"/>
	<path class="st36" d="M121.1,62.8c-5,0-10,0-15,0c-1.5,0-2.2-0.3-2.2-2c0-9,0-18,0-27c0-1.7,0.6-2.5,2.4-2.5
		c9.9,0.1,19.8,0.1,29.7,0c1.7,0,2.3,0.7,2.3,2.3c0,9.1,0,18.1,0,27.2c0,1.5-0.6,2-2.1,2C131.3,62.7,126.2,62.8,121.1,62.8z
		 M135.9,58.9c0-8,0-15.5,0-23.5c-4.5,4.1-8.7,7.8-13,11.7C127.3,51.1,131.5,54.9,135.9,58.9z M134,33.9c-8.9,0-17,0-25.7,0
		c3.2,2.9,6,5.4,8.8,7.9c1.3,1.2,2.6,3.2,3.9,3.2c1.3,0,2.7-1.9,4-3.1C127.9,39.4,130.7,36.8,134,33.9z M106.7,58.8
		c4.4-4,8.5-7.7,12.7-11.6c-4.3-3.9-8.4-7.5-12.7-11.5C106.7,43.6,106.7,51,106.7,58.8z M121.3,48.8c-4.1,3.8-8.2,7.5-12.6,11.5
		c8.6,0,16.8,0,25.1,0C129.5,56.3,125.5,52.6,121.3,48.8z"/>
	<path class="st36" d="M141.9,81.7c-4.8,0-9.7-0.1-14.5,0c-1.7,0-2.4-0.7-2.4-2.3c0-3.7,0-7.4,0-11c0-1.5,0.6-2.3,2.1-2.3
		c9.8,0,19.6,0,29.5,0.1c0.7,0,1.9,1.2,1.9,1.9c0.2,3.8,0.1,7.7,0.1,11.5c0,1.5-0.6,2.2-2.2,2.2C151.6,81.6,146.7,81.7,141.9,81.7z
		 M156.3,68.9c-9.8,0-19.3,0-28.8,0c0,3.6,0,7,0,10.4c9.7,0,19.2,0,28.8,0C156.3,75.7,156.3,72.4,156.3,68.9z"/>
	<path class="st36" d="M104.1,66.4c5.3,0,10.3-0.1,15.2,0.1c0.5,0,1.5,1.1,1.5,1.6c0.1,3.9,0.1,7.8,0.1,11.7c0,1.2-0.5,1.8-1.8,1.8
		c-4.5,0-8.9,0-13.4-0.1c-0.6,0-1.6-0.7-1.6-1.1C104,75.9,104.1,71.3,104.1,66.4z M106.6,79.2c4.1,0,8,0,11.8,0c0-3.6,0-7,0-10.3
		c-4,0-7.9,0-11.8,0C106.6,72.4,106.6,75.7,106.6,79.2z"/>
	<path class="st36" d="M143.2,45.5c0-0.8,0-1.5,0-2.3c5,0,9.9,0,15,0c0,0.8,0,1.5,0,2.3C153.2,45.5,148.3,45.5,143.2,45.5z"/>
	<path class="st36" d="M143,31.4c5.2,0,10.1,0,15.1,0c0,0.7,0,1.4,0,2.1c-4.9,0-9.8,0-14.9,0C143.2,32.9,143.1,32.3,143,31.4z"/>
	<path class="st36" d="M143.2,39.5c0-0.8,0-1.3,0-2.1c5,0,9.9,0,14.9,0c0.1,0.6,0.1,1.3,0.2,2.1C153.2,39.5,148.3,39.5,143.2,39.5z"
		/>
	<path class="st36" d="M143.2,51.1c0-0.8,0-1.4,0-2.1c5,0,9.9,0,14.9,0c0.1,0.6,0.1,1.3,0.2,2.1C153.2,51.1,148.3,51.1,143.2,51.1z"
		/>
	<path class="st36" d="M158.2,55c0,0.7,0,1.3,0,2.1c-5,0-9.9,0-15,0c0-0.7,0-1.3,0-2.1C148.2,55,153.1,55,158.2,55z"/>
	<path class="st36" d="M143.1,62.6c0-0.8,0.1-1.4,0.1-2c5,0,9.9,0,15,0c0.1,0.6,0.1,1.3,0.2,2C153.2,62.6,148.3,62.6,143.1,62.6z"/>
	<path class="st6" d="M135.9,58.9c-4.5-4.1-8.6-7.9-13-11.8c4.3-3.9,8.4-7.6,13-11.7C135.9,43.5,135.9,50.9,135.9,58.9z"/>
	<path class="st6" d="M134,33.9c-3.3,3-6.1,5.5-9,8c-1.3,1.1-2.7,3.1-4,3.1c-1.3,0-2.6-2.1-3.9-3.2c-2.8-2.5-5.6-5-8.8-7.9
		C117,33.9,125.1,33.9,134,33.9z"/>
	<path class="st6" d="M106.7,58.8c0-7.8,0-15.1,0-23.1c4.4,3.9,8.4,7.6,12.7,11.5C115.1,51,111,54.8,106.7,58.8z"/>
	<path class="st6" d="M121.3,48.8c4.2,3.8,8.2,7.6,12.5,11.5c-8.3,0-16.5,0-25.1,0C113,56.3,117.1,52.5,121.3,48.8z"/>
	<path class="st6" d="M156.3,68.9c0,3.5,0,6.9,0,10.4c-9.6,0-19.1,0-28.8,0c0-3.4,0-6.8,0-10.4C137,68.9,146.6,68.9,156.3,68.9z"/>
	<path class="st6" d="M106.6,79.2c0-3.4,0-6.8,0-10.3c3.9,0,7.7,0,11.8,0c0,3.3,0,6.7,0,10.3C114.6,79.2,110.8,79.2,106.6,79.2z"/>
</g>
</svg>
