<?xml version="1.0" encoding="utf-8"?>
<!-- Generator: Adobe Illustrator 22.0.1, SVG Export Plug-In . SVG Version: 6.00 Build 0)  -->
<svg version="1.1" id="Слой_1" xmlns="http://www.w3.org/2000/svg" xmlns:xlink="http://www.w3.org/1999/xlink" x="0px" y="0px"
	 viewBox="0 0 400 300" style="enable-background:new 0 0 400 300;" xml:space="preserve">
<style type="text/css">
	.st0{fill:#ECF0C0;}
	.st1{fill:#D6D6D6;}
	.st2{fill:none;stroke:#767573;stroke-width:0.25;stroke-miterlimit:10;}
	.st3{fill:#D34F6B;}
	.st4{fill:#EDED99;}
	.st5{fill:#C4E0F7;}
	.st6{fill:#C9C9C9;}
	.st7{fill:none;stroke:#FFFFFF;stroke-width:4;stroke-miterlimit:10;}
	.st8{fill:#D34F6B;stroke:#C8556C;stroke-width:3;stroke-miterlimit:10;}
	.st9{fill:#FFFFFF;}
	.st10{fill:#0E0F0F;}
	.st11{fill:#AF546D;}
	.st12{fill:#CACACA;}
	.st13{fill:#D65E53;}
	.st14{fill:#C25349;}
	.st15{fill:#DFDFE0;}
	.st16{fill:#C97C47;}
	.st17{fill:#D2D1D1;}
	.st18{fill:#ECEBEB;}
	.st19{fill:#B67048;}
	.st20{fill:#DBDADB;}
	.st21{fill:#ECB262;}
	.st22{fill:#E9C465;}
	.st23{fill:#E6E6E6;}
	.st24{fill:#D6A156;}
	.st25{fill:#EFEEEF;}
	.st26{fill:#DDDDDD;}
	.st27{fill:#BFBFBF;}
	.st28{fill:#F6DA7C;}
	.st29{fill:#E69E4F;}
	.st30{fill:#E18E47;}
	.st31{fill:#D9668B;}
	.st32{fill:#C95670;}
	.st33{fill:#F6D7B3;}
	.st34{fill:#878492;}
	.st35{fill:#8F95AA;}
	.st36{fill:#50957F;}
	.st37{fill:#F7D489;}
	.st38{fill:#E69E68;}
	.st39{fill:#DA6E70;}
	.st40{fill:#BBD57E;}
	.st41{fill:#A47DB5;}
	.st42{fill:#866DAD;}
	.st43{fill:#75598D;}
	.st44{fill:#4F9C97;}
	.st45{fill:#F0F0F0;}
	.st46{fill:#E0E0E3;}
	.st47{fill:#DFE359;}
	.st48{fill:#B5B351;}
	.st49{fill:#8C884E;}
	.st50{fill:#DEC149;}
	.st51{opacity:0.3;fill:#D4D4D8;enable-background:new    ;}
	.st52{fill:#C05746;}
	.st53{fill:#A7C45C;}
	.st54{fill:#5B666F;}
	.st55{fill:#F3EF8C;}
	.st56{fill:#D2D4D6;}
	.st57{fill:#F5D193;}
	.st58{fill:#F0D247;}
	.st59{fill:#E7AE53;}
</style>
<g>
	<path class="st54" d="M308.9,211c-1.1,0-1.9-0.9-1.9-1.9v-10.3c0-5,4.1-9.1,9.1-9.1h12.7c1.8,0,3.3-1.5,3.3-3.3v-6.5
		c0-1.1,0.9-1.9,1.9-1.9c1.1,0,1.9,0.9,1.9,1.9v6.5c0,4-3.2,7.2-7.2,7.2H316c-2.9,0-5.2,2.3-5.2,5.2v10.3
		C310.8,210.1,310,211,308.9,211z"/>
	<path class="st9" d="M330.1,249.8c0,11.7-9.5,21.2-21.2,21.2s-21.2-9.5-21.2-21.2v-21.4c0-11.7,9.5-21.2,21.2-21.2
		s21.2,9.5,21.2,21.2V249.8z"/>
	<path class="st54" d="M312.2,224c0,1.8-1.5,3.3-3.3,3.3c-1.8,0-3.3-1.5-3.3-3.3V222c0-1.8,1.5-3.3,3.3-3.3c1.8,0,3.3,1.5,3.3,3.3
		V224z"/>
</g>
<g>
	<g>
		<path class="st22" d="M336.2,63.9c0-1.8-1.3-3.7-2.9-4.3c-1.6-0.6-3.1-1.9-3.6-3c-0.4-1.1-0.3-3.2,0.4-4.7c0.7-1.5,0.3-3.8-1-5.1
			c-1.3-1.3-3.5-1.7-5.1-1c-1.5,0.7-3.6,0.8-4.7,0.4s-2.5-2-3-3.6c-0.6-1.6-2.5-2.9-4.3-2.9s-3.7,1.3-4.3,2.9
			c-0.6,1.6-1.9,3.1-3,3.6s-3.2,0.3-4.7-0.4s-3.8-0.3-5.1,1s-1.7,3.5-1,5.1c0.7,1.5,0.8,3.6,0.4,4.7s-2,2.5-3.6,3
			c-1.6,0.6-2.9,2.5-2.9,4.3c0,1.8,1.3,3.7,2.9,4.3c1.6,0.6,3.1,1.9,3.6,3c0.5,1.1,0.3,3.2-0.4,4.7s-0.3,3.8,1,5.1
			c1.3,1.3,3.5,1.7,5.1,1s3.6-0.8,4.7-0.4c1.1,0.5,2.5,2,3,3.6c0.6,1.6,2.5,2.9,4.3,2.9s3.7-1.3,4.3-2.9c0.6-1.6,1.9-3.1,3-3.6
			c1.1-0.5,3.2-0.3,4.7,0.4c1.5,0.7,3.8,0.3,5.1-1c1.3-1.3,1.7-3.5,1-5.1c-0.7-1.5-0.8-3.6-0.4-4.7c0.4-1.1,2-2.5,3.6-3
			C334.9,67.6,336.2,65.7,336.2,63.9z M312.1,72.7c-4.9,0-8.8-4-8.8-8.8c0-4.9,4-8.8,8.8-8.8c4.9,0,8.8,4,8.8,8.8
			C320.9,68.8,316.9,72.7,312.1,72.7z"/>
	</g>
	<g>
		<path class="st55" d="M297.1,35.5c0.5-1.7-0.1-3.9-1.5-4.9c-1.4-1-2.4-2.8-2.5-4c-0.1-1.2,0.6-3.1,1.8-4.4
			c1.1-1.2,1.4-3.5,0.6-5.1c-0.8-1.6-2.9-2.7-4.5-2.4c-1.7,0.2-3.7-0.3-4.6-1c-0.9-0.8-1.8-2.6-1.8-4.3c-0.1-1.7-1.5-3.5-3.2-4
			s-3.9,0.1-4.9,1.5s-2.8,2.4-4,2.5c-1.2,0.1-3.1-0.6-4.4-1.8c-1.2-1.1-3.5-1.4-5.1-0.6c-1.6,0.8-2.7,2.9-2.4,4.5s-0.3,3.7-1,4.6
			c-0.8,0.9-2.6,1.8-4.3,1.8c-1.7,0.1-3.5,1.5-4,3.2c-0.5,1.7,0.1,3.9,1.5,4.9c1.4,1,2.4,2.8,2.5,4c0.1,1.2-0.6,3.1-1.8,4.4
			c-1.1,1.2-1.4,3.5-0.6,5.1c0.8,1.6,2.9,2.7,4.5,2.4c1.7-0.2,3.7,0.3,4.6,1c0.9,0.8,1.8,2.6,1.8,4.3c0.1,1.7,1.5,3.5,3.2,4
			c1.7,0.5,3.9-0.1,4.9-1.5c1-1.4,2.8-2.4,4-2.5c1.2-0.1,3.1,0.6,4.4,1.8c1.2,1.1,3.5,1.4,5.1,0.6c1.6-0.8,2.7-2.9,2.4-4.5
			c-0.2-1.7,0.3-3.7,1-4.6c0.8-0.9,2.6-1.8,4.3-1.8C294.8,38.6,296.6,37.2,297.1,35.5z M271.5,36.8c-4.7-1.5-7.3-6.4-5.8-11.1
			c1.5-4.7,6.4-7.3,11.1-5.8c4.7,1.4,7.3,6.4,5.8,11.1C281.1,35.6,276.2,38.2,271.5,36.8z"/>
	</g>
	<g>
		<path class="st9" d="M249.1,50.6c0.2-1.8-0.9-3.8-2.4-4.5c-1.5-0.7-2.9-2.3-3.2-3.4c-0.3-1.1,0-3.2,0.9-4.6
			c0.9-1.4,0.7-3.7-0.4-5.1c-1.1-1.4-3.3-2.1-4.9-1.5c-1.6,0.6-3.7,0.5-4.7-0.1c-1-0.6-2.2-2.2-2.6-3.9c-0.4-1.6-2.2-3.1-3.9-3.3
			c-1.8-0.2-3.8,0.9-4.6,2.4s-2.3,2.9-3.4,3.3c-1.1,0.3-3.2,0-4.6-0.9c-1.4-0.9-3.7-0.7-5.1,0.4c-1.4,1.1-2.1,3.3-1.5,4.9
			c0.6,1.6,0.5,3.7-0.1,4.7c-0.6,1-2.2,2.2-3.9,2.6c-1.6,0.4-3.1,2.2-3.3,3.9c-0.2,1.8,0.9,3.8,2.4,4.6c1.5,0.7,2.9,2.3,3.2,3.4
			c0.3,1.1,0,3.2-0.9,4.6c-0.9,1.4-0.7,3.7,0.4,5.1c1.1,1.4,3.3,2.1,4.9,1.5s3.7-0.5,4.7,0.1c1,0.6,2.2,2.2,2.6,3.9
			c0.4,1.6,2.2,3.1,3.9,3.3c1.8,0.2,3.8-0.9,4.6-2.4c0.7-1.5,2.3-2.9,3.4-3.3c1.1-0.3,3.2,0,4.6,0.9c1.4,0.9,3.7,0.7,5.1-0.4
			c1.4-1.1,2.1-3.3,1.5-4.9c-0.6-1.6-0.5-3.7,0.1-4.7c0.6-1,2.2-2.2,3.9-2.6C247.4,54.2,248.9,52.4,249.1,50.6z M224.2,56.9
			c-4.9-0.5-8.4-4.9-7.9-9.7c0.5-4.9,4.9-8.4,9.7-7.9c4.9,0.5,8.4,4.9,7.9,9.7C233.4,53.9,229.1,57.4,224.2,56.9z"/>
	</g>
</g>
<g>
	<path class="st56" d="M148.8,249.6c0,0-15.1,11.4-47.9,11.4s-47.9-11.3-47.9-11.4H148.8z"/>
	<path class="st56" d="M132.8,235.4c-1,0-1.8-0.8-1.8-1.8c0-1,0.8-1.8,1.8-1.8c10.6,0,18.5-6.6,19.4-16h-15.9c-1,0-1.8-0.8-1.8-1.8
		s0.8-1.8,1.8-1.8h17.7c1,0,1.8,0.8,1.8,1.8C155.9,226.3,146,235.4,132.8,235.4z"/>
	<path class="st9" d="M81.3,199.5c-0.5,0-0.9-0.2-1.3-0.5c-1.5-1.5-2.4-3.6-2.4-5.8s0.8-4.2,2.4-5.8c0.9-0.9,1.4-2,1.4-3.3
		s-0.5-2.4-1.4-3.3c-0.7-0.7-0.7-1.8,0-2.5c0.7-0.7,1.8-0.7,2.5,0c1.5,1.5,2.4,3.6,2.4,5.8c0,2.2-0.8,4.2-2.4,5.8
		c-0.9,0.9-1.4,2-1.4,3.3c0,1.2,0.5,2.4,1.4,3.3c0.7,0.7,0.7,1.8,0,2.5C82.2,199.3,81.8,199.5,81.3,199.5z"/>
	<path class="st9" d="M120.3,199.5c-0.5,0-0.9-0.2-1.3-0.5c-1.5-1.5-2.4-3.6-2.4-5.8s0.8-4.2,2.4-5.8c0.9-0.9,1.4-2,1.4-3.3
		s-0.5-2.4-1.4-3.3c-0.7-0.7-0.7-1.8,0-2.5c0.7-0.7,1.8-0.7,2.5,0c1.5,1.5,2.4,3.6,2.4,5.8c0,2.2-0.8,4.2-2.4,5.8
		c-0.9,0.9-1.4,2-1.4,3.3c0,1.2,0.5,2.4,1.4,3.3c0.7,0.7,0.7,1.8,0,2.5C121.2,199.3,120.8,199.5,120.3,199.5z"/>
	<path class="st9" d="M100.7,194.2c-0.5,0-0.9-0.2-1.3-0.5c-2-2-3-4.6-3-7.3s1.1-5.4,3-7.3c1.3-1.3,2-3,2-4.8s-0.7-3.5-2-4.8
		c-0.7-0.7-0.7-1.8,0-2.5s1.8-0.7,2.5,0c2,2,3,4.6,3,7.3s-1.1,5.4-3,7.3c-1.3,1.3-2,3-2,4.8c0,1.8,0.7,3.5,2,4.8
		c0.7,0.7,0.7,1.8,0,2.5C101.6,194,101.2,194.2,100.7,194.2z"/>
	<path class="st23" d="M82.2,249.6h37.4c12.6-7.6,18.5-22.7,18.5-40.8H63.7C63.7,226.9,69.6,242.1,82.2,249.6z"/>
	<path class="st57" d="M88.5,226.6c-1,0-1.8-0.8-1.8-1.8v-17.7c0-1,0.8-1.8,1.8-1.8s1.8,0.8,1.8,1.8v17.7
		C90.3,225.8,89.5,226.6,88.5,226.6z"/>
	<rect x="80.4" y="221.2" class="st58" width="16.3" height="20.4"/>
	<rect x="80.4" y="233.6" class="st59" width="16.3" height="8"/>
</g>
</svg>
