<?xml version="1.0" encoding="utf-8"?>
<!-- Generator: Adobe Illustrator 21.1.0, SVG Export Plug-In . SVG Version: 6.00 Build 0)  -->
<svg version="1.1" id="Слой_1" xmlns="http://www.w3.org/2000/svg" xmlns:xlink="http://www.w3.org/1999/xlink" x="0px" y="0px"
	 viewBox="0 0 72.8 45.9" style="enable-background:new 0 0 72.8 45.9;" xml:space="preserve">
<style type="text/css">
	.st0{fill:none;stroke:#FFFFFF;stroke-miterlimit:10;}
	.st1{fill:#E01462;stroke:#E01462;stroke-miterlimit:10;}
	.st2{fill:#FFFFFF;}
</style>
<g>
	<path class="st0" d="M72.3,14.8c0,0.1,0,0.1,0,0.2c0,0.7-0.4,4.6-1.2,7.4c-0.9,3.2-3.8,8-6,10c-1.9,1.8-5.1,4-6.2,4.7
		c-0.2,0.1-0.2,0.4-0.1,0.5c0.2,0.3,0.6,0.7,0.7,0.9c0.9,1.3,3.1,2.5,4.4,3.9c0.8,0.9-1.4,2.8-5.1,3c-7.3,0.5-11.9-3.4-12.7-4.1
		c-0.1-0.1-0.2-0.1-0.3-0.1c-0.9,0.2-5.9,0.8-11.4-1c-7.8-2.5-12-6.9-15.4-9.9c-2.1-1.8-3.9-4.1-7.1-8.2c-2.2-2.9-4.7-2.7-6.3-2.2
		c-1.9,0.5-5.3,3.3-5.3,2.6c0.2-2,1.7-4.7,2.7-5.5c1.1-0.9,3.7-2.1,4.4-2.5c0.1-0.1,0.2-0.2,0.2-0.4c-0.1-1.3-0.5-7.5,2-8
		c0.5-0.1,0.3,1.4,0.5,1.8c0.6,1.8,1.2,5.9,2.1,7.4c2.8,4.5,3.7,4.3,8.4,3.8c4.3-0.4,15.2-7.5,17.2-8.8c0.2-0.1,0.4-0.1,0.5,0.1
		c0.3,0.6,1.1,1.8,1.7,2.2c0.8,0.6,2.5,1.8,3.5,2.4c1.7,0.9,5,2.4,6.9,2.7c2,0.4,5.2,0.7,7.8,0.7c0.9,0,1.7,0,2.4-0.1
		c0.3,0,0.6-0.1,1-0.1c1.8-0.3,4.5-0.8,5.5-1.4C69.1,16,72.5,14.6,72.3,14.8z"/>
	<path class="st0" d="M59.3,0.6c8.5,0.9,10.8,6.2,10.8,6.2s-5.3,2.5-11.8,2.9c-2.2,0.1-4.5,0-6.8-0.6c-8-1.9-7.7-2.7-7.7-2.7
		S50.8-0.3,59.3,0.6z"/>
	<path class="st1" d="M70.2,6.8c0,0-5.3,2.5-11.8,2.9c-2.2,0.1-4.5,0-6.8-0.6c-8-1.9-7.7-2.7-7.7-2.7l0.6-3.7c0-0.1-0.1-0.3-0.2-0.3
		l-1.6-0.1c-0.1,0-0.1,0-0.2,0L41,1.6c-0.1-0.1-0.2,0-0.3,0.1l-0.7,4.6c0,0-10-0.1-10.1-0.1c0,0,0,0,0,0c0.2,0.9,1.1,2.2,0.5,4.3
		c-0.4,1.6,4,0.6,4,0.6l3.9-0.9c0,0,1.1,2,1.9,2.6c0.9,0.6,2.5,1.8,3.5,2.4c1.7,0.9,5,2.4,6.9,2.7c2,0.4,5.2,0.7,7.8,0.7
		c0.9,0,1.7,0,2.4-0.1c0.3,0,0.6-0.1,1-0.1c1.8-0.3,4.7-0.8,5.8-1.3c1.9-0.9,4.7-2.5,4.7-2.5C72.2,11.8,70.2,6.8,70.2,6.8z M60,17.3
		c-3,1.4-5.9-1.5-4.5-4.5c0.3-0.6,0.8-1.1,1.4-1.4c3-1.4,5.9,1.5,4.5,4.5C61.1,16.5,60.6,17,60,17.3z"/>
	<path class="st2" d="M58.5,11c1.8,0,3.3,1.5,3.3,3.3s-1.5,3.3-3.3,3.3s-3.3-1.5-3.3-3.3S56.6,11,58.5,11z M60,14.3
		c0-0.9-0.7-1.6-1.6-1.6c-0.3,0-0.6,0.1-0.9,0.3c0.2,0.1,0.3,0.3,0.3,0.5c0,0.3-0.3,0.6-0.6,0.6c-0.1,0-0.2,0-0.3-0.1
		c0,0.1,0,0.1,0,0.2c0,0.9,0.7,1.6,1.6,1.6S60,15.2,60,14.3z"/>
	<path d="M58.5,12.8c0.9,0,1.6,0.7,1.6,1.6c0,0.9-0.7,1.6-1.6,1.6s-1.6-0.7-1.6-1.6c0-0.1,0-0.1,0-0.2c0.1,0,0.2,0.1,0.3,0.1
		c0.3,0,0.6-0.3,0.6-0.6c0-0.2-0.1-0.4-0.3-0.5C57.8,12.9,58.1,12.8,58.5,12.8z"/>
</g>
</svg>
