<?xml version="1.0" encoding="utf-8"?>
<!-- Generator: Adobe Illustrator 22.0.1, SVG Export Plug-In . SVG Version: 6.00 Build 0)  -->
<svg version="1.1" id="Слой_1" xmlns="http://www.w3.org/2000/svg" xmlns:xlink="http://www.w3.org/1999/xlink" x="0px" y="0px"
	 viewBox="0 0 400 300" style="enable-background:new 0 0 400 300;" xml:space="preserve">
<style type="text/css">
	.st0{fill:#ECF0C0;}
	.st1{fill:#D6D6D6;}
	.st2{fill:none;stroke:#767573;stroke-width:0.25;stroke-miterlimit:10;}
	.st3{fill:#D34F6B;}
	.st4{fill:#EDED99;}
	.st5{fill:#C4E0F7;}
	.st6{fill:#F4E3EF;}
	.st7{fill:none;stroke:#FFFFFF;stroke-width:4;stroke-miterlimit:10;}
	.st8{fill:#D34F6B;stroke:#C8556C;stroke-width:3;stroke-miterlimit:10;}
	.st9{fill:#FFFFFF;}
	.st10{fill:#0E0F0F;}
	.st11{fill:none;stroke:#FFFFFF;stroke-width:4;stroke-linecap:round;stroke-linejoin:round;stroke-miterlimit:10;}
	.st12{fill:#F8EF78;stroke:#F8EF78;stroke-width:3;stroke-linecap:round;stroke-linejoin:round;stroke-miterlimit:10;}
	.st13{fill:#AF546D;}
	.st14{fill:#CACACA;}
	.st15{fill:#D65E53;}
	.st16{fill:#C25349;}
	.st17{fill:#DFDFE0;}
	.st18{fill:#C97C47;}
	.st19{fill:#D2D1D1;}
	.st20{fill:#ECEBEB;}
	.st21{fill:#B67048;}
	.st22{fill:#DBDADB;}
	.st23{fill:#ECB262;}
	.st24{fill:#E9C465;}
	.st25{fill:#E6E6E6;}
	.st26{fill:#D6A156;}
	.st27{fill:#EFEEEF;}
	.st28{fill:#DDDDDD;}
	.st29{fill:#BFBFBF;}
	.st30{fill:#F6DA7C;}
	.st31{fill:#E69E4F;}
	.st32{fill:#E18E47;}
	.st33{fill:#D9668B;}
	.st34{fill:#C95670;}
	.st35{fill:#F6D7B3;}
	.st36{fill:#878492;}
	.st37{fill:#8F95AA;}
	.st38{fill:#50957F;}
	.st39{fill:#F7D489;}
	.st40{fill:#E69E68;}
	.st41{fill:#DA6E70;}
	.st42{fill:#BBD57E;}
	.st43{fill:#A47DB5;}
	.st44{fill:#866DAD;}
	.st45{fill:#75598D;}
	.st46{fill:#4F9C97;}
	.st47{fill:#F0F0F0;}
	.st48{fill:#E0E0E3;}
	.st49{fill:#DFE359;}
	.st50{fill:#B5B351;}
	.st51{fill:#8C884E;}
	.st52{fill:#DEC149;}
	.st53{opacity:0.3;fill:#D4D4D8;enable-background:new    ;}
	.st54{fill:#C05746;}
	.st55{fill:#A7C45C;}
	.st56{fill:#5B666F;}
	.st57{fill:#F3EF8C;}
	.st58{fill:#D2D4D6;}
	.st59{fill:#F5D193;}
	.st60{fill:#F0D247;}
	.st61{fill:#E7AE53;}
	.st62{fill:#D34F6B;stroke:#D34F6B;stroke-width:6;stroke-linecap:round;stroke-miterlimit:10;}
	.st63{fill:#778FC8;}
	.st64{fill:#5BB4A4;}
	.st65{fill:#63A6DD;}
</style>
<g>
	<path class="st11" d="M296.5,134.1c0,0.1,0,0.1,0,0.3c0,0.9,0.5,6.1,1.6,9.8c1.2,4.2,5,10.6,8,13.3c2.5,2.4,6.8,5.3,8.2,6.2
		c0.3,0.1,0.3,0.5,0.1,0.7c-0.3,0.4-0.8,0.9-0.9,1.2c-1.2,1.7-4.1,3.3-5.8,5.2c-1.1,1.2,1.9,3.7,6.8,4c9.7,0.7,15.8-4.5,16.8-5.4
		c0.1-0.1,0.3-0.1,0.4-0.1c1.2,0.3,7.8,1.1,15.1-1.3c10.3-3.3,15.9-9.2,20.4-13.1c2.8-2.4,5.2-5.4,9.4-10.9c2.9-3.8,6.2-3.6,8.4-2.9
		c2.5,0.7,7,4.4,7,3.4c-0.3-2.7-2.3-6.2-3.6-7.3c-1.5-1.2-4.9-2.8-5.8-3.3c-0.1-0.1-0.3-0.3-0.3-0.5c0.1-1.7,0.7-9.9-2.7-10.6
		c-0.7-0.1-0.4,1.9-0.7,2.4c-0.8,2.4-1.6,7.8-2.8,9.8c-3.7,6-4.9,5.7-11.1,5c-5.7-0.5-20.2-9.9-22.8-11.7c-0.3-0.1,0,0,0,0
		s-8-5.2-8.1-5.3c-1.2-1.1-9.9-8.6-20.4-7.6c-10.7,1.2-14.1,7.7-14.3,8.2C299.4,123.5,296.5,134.1,296.5,134.1z"/>
	<path class="st12" d="M297.3,128.6c-0.4,1.8-0.8,3.2-1.1,4.3c0,0.3-0.3,1.6-0.3,1.6s3.9,2.4,6.4,3.6c1.3,0.7,4.8,1.2,7.8,1.7
		c0.4,0.1,0.7,0.1,0.8,0.1c0.3,0.1,0.4,0.1,0.7,0.1c0.9,0.1,2,0.1,3.2,0.1c3.4,0,7.7-0.4,10.5-0.9c2.5-0.4,6.9-2.4,9.3-3.6
		c0.8-0.5,2-1.3,3.1-2.1c0.5-0.4,1.2-0.8,1.6-1.1c0.9-0.7,2-2.4,2.5-3.2l4.6,1.1c1.1,0.3,4.5,0.9,5.7-0.3c0.4-0.3,0.5-0.8,0.4-1.3
		c-0.5-2,0-3.3,0.4-4.4c0.1-0.4,0.1-0.8,0.3-1.1l0.1-0.1h-0.8c0-0.6-10.3-0.6-12.8-0.6l-0.9-5.5l-0.1-0.1c-0.1-0.1-0.4-0.4-0.8-0.4
		h-0.3l-0.1,0.1l-1.9,0.8l-2.1,0.1c-0.7,0-0.9,0.6-0.9,1l0.8,4.6c-0.4,0.3-2.3,1.3-9.7,2.9c-2.7,0.8-5.4,0.9-8.9,0.8
		c-8.4-0.5-15.3-3.7-15.4-3.7l-0.4-0.1C299,123.2,297.8,126.1,297.3,128.6z"/>
	<path class="st9" d="M316.7,133.9c0,2.4-2,4.4-4.4,4.4c-2.4,0-4.4-2-4.4-4.4s2-4.4,4.4-4.4C314.9,129.5,316.7,131.5,316.7,133.9z"
		/>
	<path class="st10" d="M313.6,132.3c-0.3,0.1-0.4,0.4-0.4,0.7c0,0.4,0.4,0.8,0.8,0.8c0.1,0,0.3-0.1,0.4-0.1c0,0.1,0,0.1,0,0.3
		c0,1.3-1.1,2.2-2.4,2.1c-1-0.1-1.8-0.9-1.9-1.9c-0.1-1.3,0.8-2.4,2.1-2.4C312.8,131.8,313.2,131.9,313.6,132.3z"/>
</g>
<path class="st63" d="M320,143.6c-0.1-0.4-0.2-0.7-0.3-1c-0.8-1.7-2.6-3.6-2.6-3.6l0,0c0,0-1.8,1.8-2.6,3.6c-0.2,0.3-0.3,0.7-0.3,1
	c0,0.1,0,0.3,0,0.4c0,1.7,1.3,3,3,3s3-1.3,3-3C320,143.9,320,143.7,320,143.6z"/>
<g>
	<path class="st24" d="M337,169.2l-6.6-2.7l4-9.5l-2.6-1.1l-9.9,24c-0.1,0.3-0.1,0.7,0,1l2.3,6.4l-3.1,7.5l2.6,1.1c0,0,0,0,0,0
		l3.1-7.5l6.2-2.9c0.3-0.2,0.6-0.4,0.7-0.7l9.9-24l-2.6-1.1L337,169.2z M331.2,183.1l-4.8,2.2l-1.8-4.9l4.7-11.3l6.6,2.7
		L331.2,183.1z"/>
	<path class="st3" d="M344.1,155.3c0,0-5-1.6-9-3.7c-1.9-0.8-4,0.1-4.8,2l-0.4,0.9c-0.1,0.3,0,0.7,0.3,0.8l1.4,0.6l2.6,1.1l6.6,2.7
		l2.6,1.1l1.4,0.6c0.3,0.1,0.7,0,0.8-0.3l0.4-0.9C346.9,158.2,346,156.1,344.1,155.3z"/>
	<path class="st38" d="M321,194.7L321,194.7c0,0-1.2,1.8-1,2.4c0.3,0.7,2,1.4,2.6,1.1c0.5-0.2,0.9-2.1,1-2.3c0,0,0,0,0,0L321,194.7z
		"/>
</g>
<g>
	<path class="st64" d="M178.9,211.7c-0.1-0.4-0.4-0.6-0.8-0.6h-7.9c-0.4,0-0.7,0.2-0.8,0.6l-9.9,31.5c-0.1,0.4,0.1,0.9,0.5,1.1
		c0.1,0,0.2,0,0.3,0h5.4c0.4,0,0.7-0.2,0.8-0.6l6.8-23.1c0,0,0.2-0.6,0.8-0.6c0.6,0,0.8,0.6,0.8,0.6l3.2,11h-4.4
		c-0.4,0-0.7,0.3-0.8,0.6l-1.2,4.3c-0.1,0.3,0,0.5,0.1,0.7c0.2,0.2,0.4,0.3,0.7,0.3h7.3l1.9,6.1c0.1,0.4,0.4,0.6,0.8,0.6h5.4
		c0.5,0,0.8-0.4,0.8-0.8c0-0.1,0-0.2,0-0.3L178.9,211.7"/>
	<path class="st64" d="M141.9,217.3h6.6c3.4,0,4.1,1.3,4.1,3.5v3.2c0,2.7-1,3.6-4.1,3.6h-6.6V217.3z M161.9,242.9l-7.2-10.4
		c3.1-1.3,4.7-4,4.7-8v-4.2c0-6.3-3.3-9.1-10.7-9.1h-12.8c-0.5,0-0.8,0.4-0.8,0.8v31.5c0,0.5,0.4,0.8,0.8,0.8l0,0h5.2
		c0.5,0,0.8-0.4,0.8-0.8v-9.9h5.3l7.2,10.3c0.2,0.2,0.4,0.4,0.7,0.4h6.2c0.5,0,0.8-0.4,0.8-0.8C162.1,243.2,162,243,161.9,242.9
		L161.9,242.9z M128.8,211.1h-5.2c-0.5,0-0.8,0.4-0.8,0.8v31.5c0,0.5,0.4,0.8,0.8,0.8h5.2c0.5,0,0.8-0.4,0.8-0.8V212
		C129.6,211.5,129.2,211.1,128.8,211.1L128.8,211.1 M116.7,211.1h-5.2c-0.4,0-0.8,0.4-0.8,0.8v24.6c0,3.1-2.4,4.1-4,4.2
		c-0.2,0-0.5,0.1-0.6,0.3c-0.1,0.2-0.2,0.5-0.1,0.7l1.3,4.1c0.1,0.3,0.5,0.6,1.1,0.6c5,0,9.2-3.9,9.2-9.2v-25.3
		C117.5,211.5,117.1,211.1,116.7,211.1C116.7,211.1,116.7,211.1,116.7,211.1"/>
	<g>
		<path class="st64" d="M76.1,202.6c-1.6,0-2.9,1.3-2.9,2.9c0,1.6,1.3,2.9,2.9,2.9c1.6,0,2.9-1.3,2.9-2.9
			C79,203.9,77.7,202.6,76.1,202.6 M95.3,202.6c-1.6,0-2.9,1.3-2.9,2.9c0,1.6,1.3,2.9,2.9,2.9c1.6,0,2.9-1.3,2.9-2.9
			C98.2,203.9,96.9,202.6,95.3,202.6 M85.7,199.9c-1.6,0-2.9,1.3-2.9,2.9c0,1.6,1.3,2.9,2.9,2.9c1.6,0,2.9-1.3,2.9-2.9
			C88.6,201.2,87.3,199.9,85.7,199.9 M102.1,210.7c-0.2-0.1-0.4-0.2-0.6-0.2c-0.1,0-0.2,0-0.3,0.1c-2,0.8-4,1.3-5.8,1.8
			c-0.4,0.1-0.7,0.4-0.8,0.7c-1.3,3.6-4.7,7.1-8.3,10.7c-0.1,0.1-0.3,0.3-0.7,0.3c-0.3,0-0.5-0.2-0.7-0.3c-3.6-3.6-7-7.1-8.3-10.7
			c-0.1-0.3-0.4-0.6-0.8-0.7c-1.8-0.4-3.8-1-5.8-1.8c-0.1,0-0.2-0.1-0.3-0.1c-0.2,0-0.4,0.1-0.5,0.2c-0.2,0.2-0.4,0.5-0.4,0.8
			c0.3,3,1.5,6,3.7,9.1c2,2.9,4.7,5.6,7.2,8.2c4.7,4.8,9.2,9.4,9.6,14.6c0,0.5,0.4,0.8,0.9,0.8h5.5c0.5,0,0.9-0.4,0.9-0.9
			c0,0,0,0,0,0c-0.2-3.5-1.5-7.1-4.1-10.8c-0.5-0.8-1.1-1.5-1.7-2.3c-0.2-0.3-0.1-0.7,0-0.9c0.2-0.2,0.4-0.4,0.6-0.6
			c2.6-2.6,5.2-5.3,7.2-8.2c2.2-3.1,3.4-6.1,3.7-9.1C102.5,211.2,102.4,210.9,102.1,210.7 M79.7,232.9c-0.1-0.1-0.3-0.3-0.6-0.3
			c-0.4,0-0.7,0.3-0.8,0.4c-2.3,3.5-3.5,6.9-3.7,10.3c0,0.3,0.1,0.5,0.3,0.7c0.2,0.2,0.4,0.3,0.7,0.3h5.5c0.5,0,0.9-0.4,0.9-0.8
			c0.1-1.6,0.6-3.2,1.5-5c0.3-0.6,0.1-1.1-0.1-1.4C82.5,235.9,81.4,234.6,79.7,232.9"/>
		<path class="st64" d="M85.7,213.4c1.7,0,2.7-0.1,3.1-0.1c0.4,0,0.8,0.4,0.8,0.8c0,0.1,0,0.2-0.1,0.3c-0.2,0.6-1.3,2.8-3.2,4.7
			c-0.2,0.2-0.5,0.3-0.6,0.3h0c-0.2,0-0.4,0-0.6-0.3c-2-1.9-3-4.1-3.2-4.7c0-0.1-0.1-0.2-0.1-0.3c0-0.5,0.4-0.8,0.8-0.8
			C82.9,213.3,84,213.4,85.7,213.4L85.7,213.4"/>
	</g>
</g>
<g>
	<path class="st9" d="M183.7,16.4c-2.1,0-4.1,0.3-6.1,0.9c-2.3-6.5-8.4-11.2-15.7-11.2c-7.8,0-14.3,5.4-16.1,12.6
		c-1.9-1.5-4.3-2.4-6.9-2.4c-6.4,0-11.5,5.2-11.5,11.5c0,1.5,0.3,3,0.9,4.4c-1.1-0.3-2.2-0.5-3.4-0.5c-7.1,0-12.8,5.7-12.8,12.8
		s5.7,12.8,12.8,12.8h58.9c11.3,0,20.5-9.2,20.5-20.5C204.2,25.5,195,16.4,183.7,16.4"/>
	<path id="SVGCleanerId_0" class="st65" d="M142.7,70.1l-0.3-8.8l-7.4,4.4c-1.6,0.9-2.7,2.6-2.7,4.6c0.1,2.8,2.5,5.1,5.3,5
		C140.6,75.2,142.8,72.9,142.7,70.1"/>
	<path class="st65" d="M137.6,89.2l-0.3-8.8l-7.4,4.4c-1.6,0.9-2.7,2.6-2.7,4.6c0.1,2.8,2.5,5.1,5.3,5
		C135.5,94.3,137.7,92,137.6,89.2"/>
	<g transform="translate(-6.979 -3)">
		<path id="SVGCleanerId_0_1_" class="st65" d="M130.2,81.4l-0.3-8.8l-7.4,4.4c-1.6,0.9-2.7,2.6-2.7,4.6c0.1,2.8,2.5,5.1,5.3,5
			C128.1,86.6,130.3,84.2,130.2,81.4"/>
	</g>
	<path class="st65" d="M170.9,70.1l-0.3-8.8l-7.3,4.4c-1.6,0.9-2.7,2.6-2.7,4.6c0.1,2.8,2.5,5.1,5.3,5
		C168.8,75.2,171,72.9,170.9,70.1"/>
	<path id="SVGCleanerId_1" class="st65" d="M155.5,80.3l-0.3-8.8l-7.3,4.4c-1.6,0.9-2.7,2.6-2.7,4.6c0.1,2.8,2.5,5.1,5.3,5
		C153.4,85.5,155.6,83.1,155.5,80.3"/>
	<path class="st65" d="M168.4,91.7l-0.3-8.8l-7.3,4.4c-1.6,0.9-2.7,2.6-2.7,4.6c0.1,2.8,2.5,5.1,5.3,5
		C166.2,96.9,168.5,94.6,168.4,91.7"/>
	<g transform="translate(12 1)">
		<path id="SVGCleanerId_1_1_" class="st65" d="M176.9,76.5l-0.3-8.8l-7.3,4.4c-1.6,0.9-2.7,2.6-2.7,4.6c0.1,2.8,2.5,5.1,5.3,5
			C174.8,81.7,177,79.3,176.9,76.5"/>
	</g>
</g>
</svg>
