<?xml version="1.0" encoding="UTF-8" standalone="no"?>
<svg width="18px" height="18px" viewBox="0 0 18 18" version="1.1" xmlns="http://www.w3.org/2000/svg" xmlns:xlink="http://www.w3.org/1999/xlink">
    <!-- Generator: Sketch 41 (35326) - http://www.bohemiancoding.com/sketch -->
    <title>company</title>
    <desc>Created with Sketch.</desc>
    <defs></defs>
    <g id="Controls-and-icon" stroke="none" stroke-width="1" fill="none" fill-rule="evenodd">
        <g id="company">
            <rect id="Rectangle" x="0" y="0" width="18" height="18"></rect>
            <g id="Group" transform="translate(1.000000, 1.000000)" fill="#949494">
                <path d="M16.0003228,3.00610816 L9.95843506,3.00610816 L9.95843506,8.10038488e-14 C9.95843506,8.10038488e-14 9.53076923,7.90478794e-14 9.34945055,7.90478794e-14 L0.352747253,7.90478794e-14 C0.171428571,7.90478794e-14 0.0263736264,0.143673469 0.0263736264,0.323265306 L0.0263736264,15.6702041 C0.0263736264,15.8497959 0.171428571,15.9934694 0.352747253,15.9934694 L9.34945055,15.9934694 L15.6739491,15.9934694 C15.8552678,15.9934694 16.0003228,15.8497959 16.0003228,15.6702041 L16.0003228,3.30338687 C16.0003228,3.12379504 16.1816415,3.00610816 16.0003228,3.00610816 Z M9.02307692,15.0180744 L0.994048956,15.0180744 L0.994048956,0.953036231 L9.02307692,0.953036231 L9.02307692,4.28408163 L9.02307692,15.0180744 Z M15.0264305,15.0109615 L9.95564748,15.0109615 L9.95564748,3.92978294 L15.0264305,3.92978294 L15.0264305,15.0109615 Z" id="Shape" />
                <path d="M11.337587,12.0078125 L13.6349237,12.0078125 C13.8308206,12.0078125 14,11.6834981 14,11.5039062 C14,11.3243144 13.8308206,11 13.6349237,11 L11.337587,11 C11.1416901,11 11,11.3243144 11,11.5039062 C11,11.6834981 11.1416901,12.0078125 11.337587,12.0078125 Z" id="Shape" />
                <path d="M11.337587,14.0078125 L13.6349237,14.0078125 C13.8308206,14.0078125 14,13.6834981 14,13.5039062 C14,13.3243144 13.8308206,13 13.6349237,13 L11.337587,13 C11.1416901,13 11,13.3243144 11,13.5039062 C11,13.6834981 11.1416901,14.0078125 11.337587,14.0078125 Z" id="Shape-Copy-4" />
                <path d="M11.337587,10.0078125 L13.6349237,10.0078125 C13.8308206,10.0078125 14,9.68349809 14,9.50390625 C14,9.32431441 13.8308206,9 13.6349237,9 L11.337587,9 C11.1416901,9 11,9.32431441 11,9.50390625 C11,9.68349809 11.1416901,10.0078125 11.337587,10.0078125 Z" id="Shape-Copy" />
                <path d="M11.337587,8.0078125 L13.6349237,8.0078125 C13.8308206,8.0078125 14,7.68349809 14,7.50390625 C14,7.32431441 13.8308206,7 13.6349237,7 L11.337587,7 C11.1416901,7 11,7.32431441 11,7.50390625 C11,7.68349809 11.1416901,8.0078125 11.337587,8.0078125 Z" id="Shape-Copy-2" />
                <path d="M11.337587,6.0078125 L13.6349237,6.0078125 C13.8308206,6.0078125 14,5.68349809 14,5.50390625 C14,5.32431441 13.8308206,5 13.6349237,5 L11.337587,5 C11.1416901,5 11,5.32431441 11,5.50390625 C11,5.68349809 11.1416901,6.0078125 11.337587,6.0078125 Z" id="Shape-Copy-3" />
                <path d="M2.22505799,3.0078125 L3.7566158,3.0078125 C3.88721376,3.0078125 4,2.68349809 4,2.50390625 C4,2.32431441 3.88721376,2 3.7566158,2 L2.22505799,2 C2.09446004,2 2,2.32431441 2,2.50390625 C2,2.68349809 2.09446004,3.0078125 2.22505799,3.0078125 Z" id="Shape-Copy-5" />
                <path d="M2.22505799,5.0078125 L3.7566158,5.0078125 C3.88721376,5.0078125 4,4.68349809 4,4.50390625 C4,4.32431441 3.88721376,4 3.7566158,4 L2.22505799,4 C2.09446004,4 2,4.32431441 2,4.50390625 C2,4.68349809 2.09446004,5.0078125 2.22505799,5.0078125 Z" id="Shape-Copy-7" />
                <path d="M2.22505799,7.0078125 L3.7566158,7.0078125 C3.88721376,7.0078125 4,6.68349809 4,6.50390625 C4,6.32431441 3.88721376,6 3.7566158,6 L2.22505799,6 C2.09446004,6 2,6.32431441 2,6.50390625 C2,6.68349809 2.09446004,7.0078125 2.22505799,7.0078125 Z" id="Shape-Copy-9" />
                <path d="M2.22505799,9.0078125 L3.7566158,9.0078125 C3.88721376,9.0078125 4,8.68349809 4,8.50390625 C4,8.32431441 3.88721376,8 3.7566158,8 L2.22505799,8 C2.09446004,8 2,8.32431441 2,8.50390625 C2,8.68349809 2.09446004,9.0078125 2.22505799,9.0078125 Z" id="Shape-Copy-11" />
                <path d="M2.22505799,11.0078125 L3.7566158,11.0078125 C3.88721376,11.0078125 4,10.6834981 4,10.5039062 C4,10.3243144 3.88721376,10 3.7566158,10 L2.22505799,10 C2.09446004,10 2,10.3243144 2,10.5039062 C2,10.6834981 2.09446004,11.0078125 2.22505799,11.0078125 Z" id="Shape-Copy-13" />
                <path d="M2.22505799,13.0078125 L3.7566158,13.0078125 C3.88721376,13.0078125 4,12.6834981 4,12.5039062 C4,12.3243144 3.88721376,12 3.7566158,12 L2.22505799,12 C2.09446004,12 2,12.3243144 2,12.5039062 C2,12.6834981 2.09446004,13.0078125 2.22505799,13.0078125 Z" id="Shape-Copy-15" />
                <path d="M6.22505799,3.0078125 L7.7566158,3.0078125 C7.88721376,3.0078125 8,2.68349809 8,2.50390625 C8,2.32431441 7.88721376,2 7.7566158,2 L6.22505799,2 C6.09446004,2 6,2.32431441 6,2.50390625 C6,2.68349809 6.09446004,3.0078125 6.22505799,3.0078125 Z" id="Shape-Copy-6" />
                <path d="M6.22505799,5.0078125 L7.7566158,5.0078125 C7.88721376,5.0078125 8,4.68349809 8,4.50390625 C8,4.32431441 7.88721376,4 7.7566158,4 L6.22505799,4 C6.09446004,4 6,4.32431441 6,4.50390625 C6,4.68349809 6.09446004,5.0078125 6.22505799,5.0078125 Z" id="Shape-Copy-8" />
                <path d="M6.22505799,7.0078125 L7.7566158,7.0078125 C7.88721376,7.0078125 8,6.68349809 8,6.50390625 C8,6.32431441 7.88721376,6 7.7566158,6 L6.22505799,6 C6.09446004,6 6,6.32431441 6,6.50390625 C6,6.68349809 6.09446004,7.0078125 6.22505799,7.0078125 Z" id="Shape-Copy-10" />
                <path d="M6.22505799,9.0078125 L7.7566158,9.0078125 C7.88721376,9.0078125 8,8.68349809 8,8.50390625 C8,8.32431441 7.88721376,8 7.7566158,8 L6.22505799,8 C6.09446004,8 6,8.32431441 6,8.50390625 C6,8.68349809 6.09446004,9.0078125 6.22505799,9.0078125 Z" id="Shape-Copy-12" />
                <path d="M6.22505799,11.0078125 L7.7566158,11.0078125 C7.88721376,11.0078125 8,10.6834981 8,10.5039062 C8,10.3243144 7.88721376,10 7.7566158,10 L6.22505799,10 C6.09446004,10 6,10.3243144 6,10.5039062 C6,10.6834981 6.09446004,11.0078125 6.22505799,11.0078125 Z" id="Shape-Copy-14" />
                <path d="M6,15 L8,15 L8,13.5 C8,12.965401 8,12 8,12 L6,12 C6,12 6,12.965401 6,13.5 C6,14.034599 6,15 6,15 Z" id="Shape-Copy-16" />
            </g>
        </g>
    </g>
</svg>
