<?xml version="1.0" encoding="UTF-8" standalone="no"?>
<svg width="18px" height="18px" viewBox="0 0 18 18" version="1.1" xmlns="http://www.w3.org/2000/svg" xmlns:xlink="http://www.w3.org/1999/xlink">
    <!-- Generator: Sketch 41 (35326) - http://www.bohemiancoding.com/sketch -->
    <title>drill</title>
    <desc>Created with Sketch.</desc>
    <defs></defs>
    <g id="Controls-and-icon" stroke="none" stroke-width="1" fill="none" fill-rule="evenodd">
        <rect id="Rectangle" x="0" y="0" width="18" height="18"></rect>
        <g id="drill" fill="#949494">
            <g transform="translate(0.000000, 3.000000)">
                <path d="M16,0.00517475728 L8.02819824,0.00517475728 C7.57521412,0.00517475728 7.00808964,0.584521593 7.00808964,1.03475703 L6.03206332,1.03475703 C5.49884033,1.03475703 4.99688889,1.34442139 4.99688889,2.00115967 C4.41066667,2.00115967 4.01342773,2.41593114 4.01342773,2.99859619 L1.48576966,2.99859619 C1.32589665,2.99859619 0.992736816,3.36557219 0.992736816,3.5244751 C0.992736816,3.68337801 1.32589665,3.9938856 1.48576966,3.9938856 L4.01342773,3.9938856 C4.01342773,4.57655065 4.41066667,4.99691828 4.99688889,4.99691828 L4.99688889,4.99691828 C4.99688889,5.44715372 5.57907919,6.01393996 6.03206332,6.01393996 L7.00808964,6.01393996 C7.00808964,6.4641754 7.47492063,7 7.92790476,7 L10.0595556,7 L10.0595556,11.1666986 C10.0595556,12.1995675 10.0290093,12.9823301 11.0681839,12.9823301 L14.9962771,12.9823301 C15.5824994,12.9823301 15.9752009,12.6129296 15.9752009,12.0302646 L16,7 C16.5405273,7 16.9874603,6.4641754 16.9874603,6.01393996 L16.9874603,1.03475703 C16.9875238,0.584521593 16.4529841,0.00517475728 16,0.00517475728 Z M4.97833252,3.45507812 C4.97833252,3.45507812 6.16930159,2.00517476 6.3291746,2.00517476 L7.0255127,2.00517476 L7.0255127,5.03712136 L6.3291746,5.03712136 C6.16930159,5.03714716 4.97833252,3.45507812 4.97833252,3.45507812 Z M16.0680531,6.00107003 C16.0680531,6.15997294 16.1575121,6.00107003 15.997639,6.00107003 L15.0350217,6.00107003 C14.8751487,6.00107003 15.0350217,6.02052691 15.0350217,6.17942982 L15.0350217,11.984108 L11,11.984108 L11,6.00107003 C11,6.00107003 11.0735503,6.00107003 10.9136773,6.00107003 L8,6.00107003 L8,1 L15.9077516,0.971754986 C16.0676246,0.971754986 15.997639,0.88784809 15.997639,1.046751 L15.997639,6.00107003 L16.0680531,6.00107003 Z" id="Shape" />
                <path d="M14,6 L16,6 L16,7 C16,7 14.8161621,7 14,7 C13.2575684,7 13.3083496,6 14,6 Z" id="Rectangle-7" />
                <path d="M14.0446167,8 L16,8 L16,9 L14.0446167,9 C13.3591309,9 13.3740845,8 14.0446167,8 Z" id="Rectangle-7-Copy" />
            </g>
        </g>
    </g>
</svg>
