<?xml version="1.0" encoding="UTF-8" standalone="no"?>
<svg width="18px" height="18px" viewBox="0 0 18 18" version="1.1" xmlns="http://www.w3.org/2000/svg" xmlns:xlink="http://www.w3.org/1999/xlink">
    <!-- Generator: Sketch 41 (35326) - http://www.bohemiancoding.com/sketch -->
    <title>home</title>
    <desc>Created with Sketch.</desc>
    <defs></defs>
    <g id="Controls-and-icon" stroke="none" stroke-width="1" fill="none" fill-rule="evenodd">
        <g id="home">
            <rect id="Rectangle" x="0" y="0" width="18" height="18"></rect>
            <g transform="translate(9.000000, 9.000000) scale(-1, 1) translate(-9.000000, -9.000000) translate(0.000000, 1.000000)" id="Shape" fill="#949494">
                <path d="M17.8089474,6.32537991 L9.29329825,0.117624454 C9.12908772,-0.00206113537 8.906,-0.00206113537 8.74185965,0.117624454 L0.226140351,6.32537991 C0.0181403509,6.47703057 -0.0270526316,6.76782533 0.125263158,6.97491703 C0.277578947,7.18200873 0.569684211,7.2269345 0.777649123,7.07535371 L9.01754386,1.06857642 L17.2574386,7.07531878 C17.3405263,7.13593013 17.4370877,7.16510044 17.532807,7.16510044 C17.6765263,7.16510044 17.8183509,7.09924891 17.9097895,6.9748821 C18.0621404,6.76782533 18.0169474,6.47703057 17.8089474,6.32537991 Z" />
                <path d="M15.5524912,7.18054148 C15.2947368,7.18054148 15.0857193,7.38861135 15.0857193,7.64527511 L15.0857193,15.0426201 L10.9746094,15.042655 L10.9746094,11.0047162 C10.9746094,9.72331878 10.1943986,8.9753418 9.01757895,8.99822998 C7.84075928,9.02111816 7.01031494,9.72338865 7.01031494,11.0047162 L7.01031494,15.042655 L2.94940351,15.042655 L2.94940351,7.64531004 C2.94940351,7.38864629 2.74038596,7.18057642 2.48263158,7.18057642 C2.22487719,7.18057642 2.01585965,7.38864629 2.01585965,7.64531004 L2.01585965,15.5074236 C2.01585965,15.7640873 2.22487719,15.9721572 2.48263158,15.9721572 L6.94500732,15.9721572 C7.5020752,15.9721572 7.96630116,15.5431965 7.96517835,15.042655 C7.96630116,15.0317904 7.96517835,11.0047162 7.96517835,11.0047162 C7.96517835,10.2358428 8.4588623,9.99615479 9.01757895,9.99023438 C9.57629559,9.98431396 10.0011662,10.2358428 10.0011662,11.0046812 L10.0011662,15.0068821 C10.0011662,15.020262 10.0018679,15.0319301 10.0029907,15.042655 C10.0011662,15.5387573 10.5079956,15.9968262 10.9746094,15.9968262 L15.5525263,15.9721572 C15.8103158,15.9721572 16.0192982,15.7640873 16.0192982,15.5074236 L16.0192982,7.64531004 C16.0192632,7.38861135 15.8102807,7.18054148 15.5524912,7.18054148 Z" />
            </g>
        </g>
    </g>
</svg>
