<?xml version="1.0" encoding="UTF-8" standalone="no"?>
<svg width="18px" height="18px" viewBox="0 0 18 18" version="1.1" xmlns="http://www.w3.org/2000/svg" xmlns:xlink="http://www.w3.org/1999/xlink">
    <!-- Generator: Sketch 41 (35326) - http://www.bohemiancoding.com/sketch -->
    <title>man</title>
    <desc>Created with Sketch.</desc>
    <defs></defs>
    <g id="Controls-and-icon" stroke="none" stroke-width="1" fill="none" fill-rule="evenodd">
        <g id="man" fill="#949494">
            <g id="user" transform="translate(1.000000, 1.000000)">
                <g id="User">
                    <path d="M14.9753551,11.0684705 C14.5031051,10.5963455 13.60625,10.61725 12.3605,9.994125 C11.7325,9.680125 11.2425147,9.27581979 10.9891397,9.03656979 C11.9778426,7.69287206 11.9778426,6.141 11.9778426,4.8515 C11.9778426,3.9765 12.110875,2.88775 11.621125,1.916625 C11.179625,1.042 10.193,0 8.00025,0 C5.807,0 4.820375,1.042 4.379375,1.9165 C3.889,2.88775 4.00323202,3.9765 4.00323202,4.8515 C4.00323202,6.1415 3.97101895,7.73244479 5.03276895,9.03656979 C4.77876895,9.27631979 4.267,9.680625 3.639,9.994 C2.393625,10.617 1.51562365,10.5962205 1.04299865,11.0684705 C-0.00312634884,12.1153455 0.000125,12.6509151 0.000125,14.646375 C0.000125,14.9101435 0.1325,15.3475 0.3835,15.602375 C0.6335,15.85625 0.976375,15.999875 1.332875,15.999875 L14.6665,15.999875 C15.024,15.999875 15.366,15.856375 15.6165,15.602375 C15.867,15.3475 15.999875,15.0583066 15.999875,14.645875 C15.999875,12.927436 16.0213551,12.1153455 14.9753551,11.0684705 Z M14.904375,14.900375 C14.840875,14.964375 14.756375,15 14.6665,15 L1.332875,15 C1.2445,15 1.158125,14.963875 1.096,14.900375 C1.034,14.837375 0.99975,16.3935505 0.99975,14.661625 C0.99975,12.9296995 0.975041851,12.7064122 1.76429185,11.9169122 C2.12866685,11.5526622 2.965,11.44975 4.086375,10.888625 C5.283375,10.2905 5.44217406,10.0621448 5.74792406,9.77314482 C6.05367406,9.48414482 5.97639564,9.3469645 5.99862229,9.007375 C6.02083314,8.668027 5.74792406,8.18598439 5.74792406,8.18598439 C4.82492406,7.05223439 4.99206543,5.900875 4.99206543,4.851625 C4.99206543,4.0425 4.888875,3.126 5.27175,2.36725 C5.73025,1.46 6.647375,1 8.00025,1 C9.352,1 10.270125,1.46 10.72825,2.36675 C11.111125,3.126 11.0413818,4.0425 11.0413818,4.851625 C11.0413818,5.9005 11.1625808,7.17185948 10.2384558,8.30610948 C10.2384558,8.30610948 9.93634189,8.6868401 9.95859316,9.02635948 C9.98084443,9.36587886 10.2384558,9.77314482 10.2384558,9.77314482 C10.2384558,9.77314482 10.7155,10.290125 11.913,10.88875 C13.034375,11.44925 13.672859,11.3659183 14.2850564,11.9169122 C14.9600996,12.5244689 14.9995,12.8280318 14.9995,14.66175 C14.9995,14.7505159 14.966375,14.837375 14.904375,14.900375 Z" id="Shape" />
                </g>
            </g>
        </g>
    </g>
</svg>
