<?xml version="1.0" encoding="UTF-8" standalone="no"?>
<svg width="18px" height="18px" viewBox="0 0 18 18" version="1.1" xmlns="http://www.w3.org/2000/svg" xmlns:xlink="http://www.w3.org/1999/xlink">
    <!-- Generator: Sketch 41 (35326) - http://www.bohemiancoding.com/sketch -->
    <title>money</title>
    <desc>Created with Sketch.</desc>
    <defs></defs>
    <g id="Controls-and-icon" stroke="none" stroke-width="1" fill="none" fill-rule="evenodd">
        <g id="money">
            <rect id="Rectangle" x="0" y="0" width="18" height="18"></rect>
            <g id="invoice" transform="translate(1.000000, 1.000000)" fill="#949494">
                <path d="M15.0266113,0 L1.00954967,1.0658141e-14 C0.590026855,1.0658141e-14 0,0.488098145 0,1.01049805 L0,15.0257568 C0,15.5496216 0.486938477,16 1.00954967,16 L15.0266113,16 C15.5220337,16 16,15.5476074 16,15.0257568 L16,1.01049805 C16,0.527648926 15.5093384,0 15.0266113,0 Z M15,15 L1,15 L1,1.0090332 L15,1.0090332 L15,15 Z" id="Shape" />
            </g>
            <path d="M10.4463111,14 C11.7639561,14 13.4353894,14 14.3865002,14 C15.1739758,14 15.1928967,15 14.3865002,15 C12.89474,15 12.0542276,15 10.4463111,15 C9.80337033,15 9.90109149,14 10.4463111,14 Z" id="Rectangle-7-Copy-2" fill="#949494" />
            <path d="M10.4463111,12 C11.7639561,12 13.4353894,12 14.3865002,12 C15.1739758,12 15.1928967,13 14.3865002,13 C12.89474,13 12.0542276,13 10.4463111,13 C9.80337033,13 9.90109149,12 10.4463111,12 Z" id="Rectangle-7-Copy-3" fill="#949494" />
            <path d="M10.4463111,10 C11.7639561,10 13.4353894,10 14.3865002,10 C15.1739758,10 15.1928967,11 14.3865002,11 C12.89474,11 12.0542276,11 10.4463111,11 C9.80337033,11 9.90109149,10 10.4463111,10 Z" id="Rectangle-7-Copy-4" fill="#949494" />
            <path d="M5.5,4.75471698 C6.42721053,4.75471698 7.21052632,5.28611321 7.21052632,5.91509434 C7.21052632,6.14954717 7.38726316,6.33962264 7.60526316,6.33962264 C7.82326316,6.33962264 8,6.14954717 8,5.91509434 C8,4.89650943 7.10263158,4.07762264 5.89473684,3.92966038 L5.89473684,3.4245283 C5.89473684,3.19007547 5.718,3 5.5,3 C5.282,3 5.10526316,3.19007547 5.10526316,3.4245283 L5.10526316,3.92966038 C3.89736842,4.07762264 3,4.89650943 3,5.91509434 C3,7.04190566 4.09810526,7.9245283 5.5,7.9245283 C6.42721053,7.9245283 7.21052632,8.45592453 7.21052632,9.08490566 C7.21052632,9.71388679 6.42721053,10.245283 5.5,10.245283 C4.57278947,10.245283 3.78947368,9.71388679 3.78947368,9.08490566 C3.78947368,8.85045283 3.61273684,8.66037736 3.39473684,8.66037736 C3.17673684,8.66037736 3,8.85045283 3,9.08490566 C3,10.1034906 3.89736842,10.9223774 5.10526316,11.0703396 L5.10526316,11.5754717 C5.10526316,11.8099245 5.282,12 5.5,12 C5.718,12 5.89473684,11.8099245 5.89473684,11.5754717 L5.89473684,11.0703396 C7.10263158,10.9223774 8,10.1034906 8,9.08490566 C8,7.95809434 6.90189474,7.0754717 5.5,7.0754717 C4.57278947,7.0754717 3.78947368,6.54407547 3.78947368,5.91509434 C3.78947368,5.28611321 4.57278947,4.75471698 5.5,4.75471698 Z" id="Shape" fill="#949494" />
        </g>
    </g>
</svg>
