<?xml version="1.0" encoding="UTF-8" standalone="no"?>
<svg width="18px" height="18px" viewBox="0 0 18 18" version="1.1" xmlns="http://www.w3.org/2000/svg" xmlns:xlink="http://www.w3.org/1999/xlink">
    <!-- Generator: Sketch 41 (35326) - http://www.bohemiancoding.com/sketch -->
    <title>truck</title>
    <desc>Created with Sketch.</desc>
    <defs></defs>
    <g id="Controls-and-icon" stroke="none" stroke-width="1" fill="none" fill-rule="evenodd">
        <g id="truck">
            <rect id="Rectangle" x="0" y="0" width="18" height="18"></rect>
            <g id="delivery-truck" transform="translate(1.000000, 3.000000)" fill="#949494">
                <path d="M16,6.59344482 L12.3395386,2.97961426 L10.9735718,2.97961426 L10.977025,1.0123028 C10.977025,0.415928286 10.562765,0.0130352192 9.97812366,0.0130352192 L1.02481555,0.0130352192 C0.469572056,0.0130352192 0.00345324649,0.503025454 0.00345324649,1.0123028 C0.00345324649,1.99264948 -1.13686838e-13,9.99688721 -1.13686838e-13,9.99688721 C-1.13686838e-13,10.618042 0.519348145,10.9953613 1.0213623,10.9953613 C1.0213623,12.2531128 1.82159907,13.008744 3.06026911,13.008744 C4.29893915,13.008744 4.9691947,12.1605221 4.9691947,10.9953613 L10.9735718,10.9953613 C10.977025,12.4701538 12.1955873,13.008744 13.0065308,13.008744 C13.8174742,13.008744 15.020752,12.5054932 15.020752,10.9953613 C15.5533447,10.9953613 16,10.5878906 16,9.99688721 L16,7.07904379 C15.9999543,6.96355738 16.0744035,6.68032837 16,6.59344482 Z M2.9999725,12.0130352 C2.44856318,12.0130352 2,11.5659138 2,11.0163443 C2,10.4667747 2.44856318,10.0196533 2.9999725,10.0196533 C3.55138182,10.0196533 4,10.4667747 4,11.0163443 C4,11.5659138 3.55138182,12.0130352 2.9999725,12.0130352 Z M4.86724854,10.0196533 C4.63928223,9.60650635 3.81167586,9.01019287 3.00073242,9.01019287 C2.18978898,9.01019287 1.61181641,9.25994873 1.17132568,10.0196533 L1.02264404,10.0196533 L0.932146213,1.01539484 L10.0039673,1.01539484 L10.0039673,10.0196533 C10.0039673,10.0196533 5.46805675,10.0196533 4.86724854,10.0196533 Z M12.9999725,11.9653422 C12.4485632,11.9653422 12,11.5167364 12,10.9653422 C12,10.4139481 12.4485632,9.96534223 12.9999725,9.96534223 C13.5513818,9.96534223 14,10.4139481 14,10.9653422 C14,11.5167364 13.5514368,11.9653422 12.9999725,11.9653422 Z M13,8.97880974 C11.9745483,8.97880974 11.5223999,9.48168945 11,10.0196533 L11,4 L11.9732666,4 L15,7.00982666 L14.9999595,10.0196533 C14.5179443,9.4899292 14.0254517,8.97880974 13,8.97880974 Z" id="Shape" />
            </g>
        </g>
    </g>
</svg>
