<svg xmlns="http://www.w3.org/2000/svg" width="439" height="439" viewBox="0 0 439 439">
  <path fill="#949494" d="M414.41,24.123 C398.333,8.042 378.963,0 356.315,0 L82.228,0 C59.58,0 40.21,8.042 24.126,24.123 C8.045,40.207 0.003,59.576 0.003,82.225 L0.003,356.309 C0.003,378.956 8.045,398.327 24.126,414.411 C40.21,430.495 59.58,438.537 82.228,438.537 L356.312,438.537 C378.96,438.537 398.33,430.495 414.407,414.411 C430.491,398.327 438.533,378.957 438.533,356.309 L438.533,82.225 C438.532,59.576 430.49,40.204 414.41,24.123 Z M365.449,347.172 C365.449,352.12 363.638,356.404 360.028,360.019 C356.407,363.639 352.123,365.446 347.174,365.446 L310.632,365.446 C305.684,365.446 301.399,363.639 297.785,360.019 C294.171,356.405 292.357,352.121 292.357,347.172 L292.357,255.814 L146.184,255.814 L146.184,347.172 C146.184,352.12 144.375,356.404 140.76,360.019 C137.139,363.639 132.856,365.446 127.91,365.446 L91.363,365.446 C86.415,365.446 82.134,363.639 78.516,360.019 C74.901,356.405 73.092,352.121 73.092,347.172 L73.092,91.36 C73.092,86.411 74.901,82.127 78.516,78.513 C82.133,74.895 86.414,73.085 91.363,73.085 L127.907,73.085 C132.857,73.085 137.14,74.895 140.757,78.513 C144.372,82.127 146.181,86.411 146.181,91.36 L146.181,182.72 L292.359,182.72 L292.359,91.36 C292.359,86.411 294.166,82.127 297.78,78.513 C301.4,74.895 305.685,73.085 310.627,73.085 L347.176,73.085 C352.124,73.085 356.408,74.895 360.03,78.513 C363.643,82.127 365.451,86.411 365.451,91.36 L365.451,347.172 L365.449,347.172 Z"/>
</svg>
