<svg xmlns="http://www.w3.org/2000/svg" width="384" height="442" viewBox="0 0 384 442">
  <g transform="translate(0 -1)" fill="#949494">
    <path d="M383.08,116.326 C383.074,116.004 383.053,115.683 383.016,115.365 C383.005,115.265 382.996,115.164 382.981,115.065 C382.924,114.677 382.85,114.292 382.749,113.914 C382.736,113.864 382.717,113.817 382.703,113.768 C382.609,113.438 382.497,113.114 382.37,112.795 C382.329,112.693 382.285,112.592 382.241,112.491 C382.115,112.202 381.975,111.92 381.821,111.643 C381.782,111.574 381.748,111.502 381.708,111.434 C381.505,111.088 381.282,110.752 381.036,110.43 C381.017,110.405 380.994,110.381 380.975,110.356 C380.753,110.071 380.512,109.798 380.257,109.536 C380.187,109.464 380.114,109.394 380.042,109.324 C379.817,109.107 379.581,108.9 379.333,108.702 C379.256,108.64 379.183,108.576 379.104,108.517 C378.793,108.283 378.47,108.06 378.125,107.86 L197.034,2.359 C193.923,0.546 190.078,0.546 186.967,2.359 L5.875,107.859 C5.53,108.06 5.207,108.282 4.896,108.516 C4.817,108.575 4.744,108.64 4.667,108.701 C4.419,108.899 4.183,109.106 3.958,109.323 C3.885,109.393 3.813,109.463 3.743,109.535 C3.488,109.797 3.247,110.07 3.025,110.355 C3.005,110.38 2.983,110.404 2.964,110.429 C2.718,110.751 2.496,111.087 2.292,111.433 C2.252,111.501 2.217,111.573 2.179,111.642 C2.025,111.919 1.885,112.201 1.759,112.49 C1.715,112.591 1.671,112.692 1.63,112.794 C1.503,113.113 1.391,113.437 1.297,113.767 C1.283,113.816 1.264,113.864 1.251,113.913 C1.15,114.291 1.076,114.676 1.019,115.064 C1.005,115.163 0.996,115.264 0.984,115.364 C0.947,115.683 0.926,116.003 0.92,116.325 C0.919,116.383 0.908,116.44 0.908,116.499 L0.908,327.499 C0.908,331.058 2.799,334.348 5.874,336.14 L186.966,441.64 C186.995,441.657 187.025,441.667 187.054,441.683 C187.411,441.887 187.779,442.074 188.162,442.233 C188.166,442.235 188.171,442.236 188.176,442.238 C188.538,442.388 188.912,442.511 189.294,442.618 C189.391,442.645 189.487,442.669 189.585,442.693 C189.884,442.767 190.188,442.827 190.497,442.874 C190.6,442.89 190.702,442.909 190.805,442.921 C191.198,442.968 191.595,442.999 192,442.999 C192.405,442.999 192.803,442.968 193.195,442.921 C193.298,442.909 193.4,442.89 193.503,442.874 C193.812,442.827 194.116,442.767 194.415,442.693 C194.512,442.669 194.609,442.646 194.706,442.618 C195.088,442.511 195.462,442.388 195.824,442.238 C195.828,442.236 195.833,442.235 195.838,442.233 C196.221,442.074 196.589,441.887 196.946,441.683 C196.975,441.667 197.005,441.656 197.034,441.64 L378.126,336.14 C381.201,334.348 383.092,331.058 383.092,327.499 L383.092,116.499 C383.092,116.441 383.081,116.385 383.08,116.326 Z M192,210.427 L121.32,169.25 L282.546,75.323 L353.227,116.5 L192,210.427 Z M192,22.573 L262.68,63.75 L101.454,157.677 L30.774,116.5 L192,22.573 Z M363.092,321.752 L202,415.601 L202,375 C202,369.477 197.523,365 192,365 C186.477,365 182,369.477 182,375 L182,415.601 L20.908,321.752 L20.908,133.899 L96.534,177.957 C96.539,177.96 96.545,177.963 96.55,177.967 L182,227.747 L182,335 C182,340.523 186.477,345 192,345 C197.523,345 202,340.523 202,335 L202,227.747 L363.092,133.899 L363.092,321.752 Z"/>
    <path d="M255.613,248.88 C257.471,252.069 260.821,253.848 264.263,253.848 C265.972,253.848 267.704,253.41 269.287,252.487 L305.871,231.174 C310.643,228.394 312.258,222.272 309.478,217.5 C306.698,212.728 300.575,211.114 295.804,213.893 L259.22,235.206 C254.448,237.986 252.833,244.108 255.613,248.88 Z"/>
  </g>
</svg>
