<svg xmlns="http://www.w3.org/2000/svg" width="447" height="421" viewBox="0 0 447 421">
  <path fill="#949494" d="M444.274,80.36 C441.716,76.694 437.6,74.428 433.129,74.237 L155.942,62.289 C147.989,61.941 141.343,68.081 141.003,75.997 C140.665,83.91 146.795,90.596 154.71,90.936 L413.131,102.076 L362.32,260.61 L136.205,260.61 L95.354,38.179 C94.456,33.304 91.109,29.237 86.493,27.426 L19.586,1.141 C12.212,-1.746 3.891,1.876 0.995,9.241 C-1.896,16.61 1.725,24.936 9.095,27.832 L68.586,51.203 L110.158,277.538 C111.411,284.342 117.341,289.284 124.262,289.284 L131.158,289.284 L115.411,333.024 C114.093,336.688 114.636,340.757 116.879,343.94 C119.119,347.124 122.762,349.018 126.651,349.018 L137.696,349.018 C130.852,356.635 126.651,366.664 126.651,377.693 C126.651,401.411 145.95,420.705 169.663,420.705 C193.376,420.705 212.675,401.411 212.675,377.693 C212.675,366.665 208.474,356.635 201.631,349.018 L295.408,349.018 C288.561,356.635 284.361,366.664 284.361,377.693 C284.361,401.411 303.655,420.705 327.373,420.705 C351.092,420.705 370.385,401.411 370.385,377.693 C370.385,366.665 366.185,356.635 359.343,349.018 L372.775,349.018 C379.375,349.018 384.723,343.669 384.723,337.071 C384.723,330.471 379.374,325.123 372.775,325.123 L143.651,325.123 L156.553,289.28 L372.774,289.28 C379.009,289.28 384.526,285.252 386.425,279.32 L446.164,92.933 C447.536,88.679 446.832,84.028 444.274,80.36 Z M169.664,396.814 C159.121,396.814 150.547,388.241 150.547,377.698 C150.547,367.155 159.121,358.581 169.664,358.581 C180.207,358.581 188.78,367.155 188.78,377.698 C188.78,388.241 180.207,396.814 169.664,396.814 Z M327.373,396.814 C316.83,396.814 308.257,388.241 308.257,377.698 C308.257,367.155 316.83,358.581 327.373,358.581 C337.916,358.581 346.489,367.155 346.489,377.698 C346.489,388.241 337.916,396.814 327.373,396.814 Z"/>
</svg>
