<?xml version='1.0' encoding='utf-8'?>
<!DOCTYPE svg PUBLIC '-//W3C//DTD SVG 1.1//EN' 'http://www.w3.org/Graphics/SVG/1.1/DTD/svg11.dtd'>
<svg version="1.1" xmlns="http://www.w3.org/2000/svg" viewBox="0 0 512 512" xmlns:xlink="http://www.w3.org/1999/xlink" enable-background="new 0 0 512 512">
  <g>
    <path fill="#949494" d="m480.7,11h-449.2c-11.3,0-20.4,9.1-20.4,20.4v449.2c0,11.3 9.1,20.4 20.4,20.4h449.2c11.3,0 20.4-9.1 20.4-20.4v-449.2c5.68434e-14-11.3-9.2-20.4-20.4-20.4zm-20.5,87.2c0,19.7-16,35.7-35.7,35.7-19.7,0-35.7-16-35.7-35.7v-46.4h71.5v46.4zm-112.4,0c0,19.7-16,35.7-35.7,35.7-19.7,0-35.7-16-35.7-35.7v-46.4h71.5v46.4zm-112.3,0c0,19.7-16,35.7-35.7,35.7-19.7,0-35.7-16-35.7-35.7v-46.4h71.5v46.4zm-112.4,0c0,19.7-16,35.7-35.7,35.7s-35.7-16-35.7-35.7v-46.4h71.5v46.4zm96.8,362v-140.7h71.5v140.7h-71.5zm112.3,0v-161.1c0-11.3-9.1-20.4-20.4-20.4h-112.3c-11.3,0-20.4,9.1-20.4,20.4v161.1h-127.6v-294.3c10.7,5.7 22.8,8.9 35.7,8.9 22.2,0 42.2-9.5 56.1-24.6 14,15.1 34,24.6 56.1,24.6 22.2,0 42.2-9.5 56.1-24.6 14,15.1 34,24.6 56.1,24.6 22.2,0 42.2-9.5 56.1-24.6 14,15.1 34,24.6 56.1,24.6 12.9,0 25.1-3.2 35.7-8.9v294.3h-127.3z"/>
  </g>
</svg>
