<svg xmlns="http://www.w3.org/2000/svg" width="512" height="458" viewBox="0 0 512 458">
  <g transform="translate(-1)" fill="#949494">
    <path d="M507.555,181.064 L264.859,3.367 C260.179,-0.059 253.821,-0.059 249.143,3.367 L6.445,181.064 C0.517,185.405 -0.771,193.729 3.57,199.657 C7.911,205.585 16.236,206.871 22.163,202.532 L257,30.588 L491.837,202.531 C494.205,204.266 496.957,205.101 499.685,205.101 C503.781,205.101 507.823,203.216 510.429,199.656 C514.771,193.729 513.483,185.405 507.555,181.064 Z"/>
    <path d="M443.246,205.543 C435.9,205.543 429.943,211.499 429.943,218.846 L429.943,430.595 L323.521,430.595 L323.521,315.009 C323.521,278.329 293.679,248.489 257.001,248.489 C220.323,248.489 190.481,278.331 190.481,315.009 L190.481,430.596 L84.058,430.596 L84.058,218.847 C84.058,211.5 78.101,205.544 70.755,205.544 C63.409,205.544 57.452,211.5 57.452,218.847 L57.452,443.9 C57.452,451.247 63.409,457.203 70.755,457.203 L203.784,457.203 C210.78,457.203 216.505,451.798 217.035,444.936 C217.067,444.625 217.087,444.285 217.087,443.9 L217.087,315.01 C217.087,293.001 234.992,275.096 257.001,275.096 C279.01,275.096 296.915,293.002 296.915,315.01 L296.915,443.9 C296.915,444.283 296.935,444.617 296.967,444.924 C297.491,451.791 303.218,457.203 310.218,457.203 L443.247,457.203 C450.594,457.203 456.55,451.247 456.55,443.9 L456.55,218.847 C456.549,211.499 450.593,205.543 443.246,205.543 Z"/>
  </g>
</svg>
