<svg xmlns="http://www.w3.org/2000/svg" xmlns:xlink="http://www.w3.org/1999/xlink">
  <rect id="backgroundrect" width="100%" height="100%" x="0" y="0" fill="none" stroke="none"/>
  
  <symbol id="co-browsing-off" viewBox="0 0 20 20"><title>co-browsing off</title>
    <g stroke="none" stroke-width="1" fill="none" fill-rule="evenodd">
      <g id="Artboard" fill-rule="nonzero">
        <path fill="#949494" d="M4.252551222761728,2.4729197226224517 C4.113695782761726,2.4034920026224516 3.9605827227617265,2.3673469126224522 3.8053376227617264,2.3673469126224522 C3.2530528727617263,2.3673469126224522 2.8053376227617264,2.8150621626224517 2.8053376227617264,3.3673469126224522 L2.8053376227617264,16.895210912622453 C2.8053376227617264,17.050456012622455 2.841482712761727,17.203569112622453 2.9109104327617263,17.34242451262245 C3.1578996827617267,17.83640301262245 3.758572722761726,18.03662741262245 4.252551222761728,17.789638112622452 L16.780415222761725,11.025706112622451 C16.973942622761726,10.928942412622451 17.130865122761726,10.772019912622453 17.227628822761726,10.578492512622452 C17.474618122761726,10.084514012622451 17.274393722761726,9.483841012622452 16.780415222761725,9.236851712622451 L4.252551222761728,2.4729197226224517 zM4.699764812761726,1.5784925326224517 L17.227628822761726,8.342424552622452 C18.215585822761728,8.836403012622451 18.616034522761726,10.037749112622452 18.122056022761726,11.025706112622451 C17.928528622761725,11.412760912622451 17.614683622761728,11.726605912622452 17.227628822761726,11.920133312622452 L4.699764812761726,18.68406531262245 C3.7118078227617266,19.17804381262245 2.510461742761727,18.777595112622453 2.0164832427617263,17.789638112622452 C1.8776278027617268,17.51192731262245 1.8053376227617264,17.205701112622453 1.8053376227617264,16.895210912622453 L1.8053376227617264,3.3673469126224522 C1.8053376227617264,2.262777412622452 2.700768122761727,1.3673469126224518 3.8053376227617264,1.3673469126224518 C4.115827812761727,1.3673469126224518 4.4220539427617265,1.4396370926224518 4.699764812761726,1.5784925326224517 zM7.805337622761726,12.870714212622453 C6.148483372761726,12.870714212622453 4.805337622761726,11.527568412622452 4.805337622761726,9.870714212622453 C4.805337622761726,8.213859952622451 6.148483372761726,6.870714202622452 7.805337622761726,6.870714202622452 C9.462191822761726,6.870714202622452 10.805337622761726,8.213859952622451 10.805337622761726,9.870714212622453 C10.805337622761726,11.527568412622452 9.462191822761726,12.870714212622453 7.805337622761726,12.870714212622453 zM8.805337622761726,9.870714212622453 C9.357622322761726,9.870714212622453 9.805337622761726,9.422998912622454 9.805337622761726,8.870714212622453 C9.805337622761726,8.318429452622452 9.357622322761726,7.870714202622452 8.805337622761726,7.870714202622452 C8.253052922761727,7.870714202622452 7.805337622761726,8.318429452622452 7.805337622761726,8.870714212622453 C7.805337622761726,9.422998912622454 8.253052922761727,9.870714212622453 8.805337622761726,9.870714212622453 z" id="Rectangle-13"/>
      </g>
    </g>
  </symbol>

  <symbol id="co-browsing-on" viewBox="0 0 20 20"><title>co-browsing on</title>
    <g stroke="none" stroke-width="1" fill="none" fill-rule="evenodd">
      <g id="Artboard" fill-rule="nonzero">
        <path fill="#f49530" d="M4.252551222761728,2.4729197226224517 C4.113695782761726,2.4034920026224516 3.9605827227617265,2.3673469126224522 3.8053376227617264,2.3673469126224522 C3.2530528727617263,2.3673469126224522 2.8053376227617264,2.8150621626224517 2.8053376227617264,3.3673469126224522 L2.8053376227617264,16.895210912622453 C2.8053376227617264,17.050456012622455 2.841482712761727,17.203569112622453 2.9109104327617263,17.34242451262245 C3.1578996827617267,17.83640301262245 3.758572722761726,18.03662741262245 4.252551222761728,17.789638112622452 L16.780415222761725,11.025706112622451 C16.973942622761726,10.928942412622451 17.130865122761726,10.772019912622453 17.227628822761726,10.578492512622452 C17.474618122761726,10.084514012622451 17.274393722761726,9.483841012622452 16.780415222761725,9.236851712622451 L4.252551222761728,2.4729197226224517 zM4.699764812761726,1.5784925326224517 L17.227628822761726,8.342424552622452 C18.215585822761728,8.836403012622451 18.616034522761726,10.037749112622452 18.122056022761726,11.025706112622451 C17.928528622761725,11.412760912622451 17.614683622761728,11.726605912622452 17.227628822761726,11.920133312622452 L4.699764812761726,18.68406531262245 C3.7118078227617266,19.17804381262245 2.510461742761727,18.777595112622453 2.0164832427617263,17.789638112622452 C1.8776278027617268,17.51192731262245 1.8053376227617264,17.205701112622453 1.8053376227617264,16.895210912622453 L1.8053376227617264,3.3673469126224522 C1.8053376227617264,2.262777412622452 2.700768122761727,1.3673469126224518 3.8053376227617264,1.3673469126224518 C4.115827812761727,1.3673469126224518 4.4220539427617265,1.4396370926224518 4.699764812761726,1.5784925326224517 zM7.805337622761726,12.870714212622453 C6.148483372761726,12.870714212622453 4.805337622761726,11.527568412622452 4.805337622761726,9.870714212622453 C4.805337622761726,8.213859952622451 6.148483372761726,6.870714202622452 7.805337622761726,6.870714202622452 C9.462191822761726,6.870714202622452 10.805337622761726,8.213859952622451 10.805337622761726,9.870714212622453 C10.805337622761726,11.527568412622452 9.462191822761726,12.870714212622453 7.805337622761726,12.870714212622453 zM8.805337622761726,9.870714212622453 C9.357622322761726,9.870714212622453 9.805337622761726,9.422998912622454 9.805337622761726,8.870714212622453 C9.805337622761726,8.318429452622452 9.357622322761726,7.870714202622452 8.805337622761726,7.870714202622452 C8.253052922761727,7.870714202622452 7.805337622761726,8.318429452622452 7.805337622761726,8.870714212622453 C7.805337622761726,9.422998912622454 8.253052922761727,9.870714212622453 8.805337622761726,9.870714212622453 z" id="Rectangle-13"/>
      </g>
    </g>
  </symbol>
</svg>