<svg width="100" height="100" viewBox="0 0 100 100" fill="none" xmlns="http://www.w3.org/2000/svg">
<rect width="100" height="100" fill="#38B662"/>
<path d="M34.033 31.3435C33.6355 31.476 32.3767 32.7348 32.3767 34.1261C33.9005 32.801 36.0205 32.8673 37.2792 33.1986C36.4842 32.271 34.563 31.476 34.033 31.3435Z" fill="white"/>
<path d="M65.7114 13.2492L64.0552 11.2617L62.3989 13.2492L64.0552 15.2367L65.7114 13.2492Z" fill="white"/>
<path d="M74.6572 16.6287C74.5247 16.0987 79.5597 16.0987 79.5597 19.2788C79.5597 21.3988 76.5122 22.3925 76.5122 24.645C76.5122 25.6388 77.6384 26.4338 77.9697 26.4338C77.1747 22.9225 80.4209 24.7775 81.2822 25.44C79.5597 20.67 83.4685 20.7363 83.071 18.55C82.806 17.0262 79.4272 17.49 78.1684 16.695C75.9822 15.3037 73.3984 10.0037 71.7421 15.3037C74.9222 18.2188 73.0672 22.5913 69.0259 22.5913V23.2538C73.8622 22.9888 75.5184 19.4113 74.6572 16.6287Z" fill="white"/>
<path d="M67.7651 34.1921C67.7651 32.8008 66.5726 31.542 66.1089 31.4095C65.5789 31.542 63.6576 32.3371 62.8626 33.3308C64.1214 32.8671 66.3076 32.8671 67.7651 34.1921Z" fill="white"/>
<path d="M71.6772 32.0727C72.2736 31.6087 72.8038 29.8856 72.605 28.7589C71.6109 23.4569 59.35 26.9695 53.1865 24.7162C53.0539 26.2405 55.1084 28.6926 57.0304 29.6205C53.7167 32.4703 50.7343 38.2362 50.1378 45.3276C49.4751 38.3025 46.559 32.4703 43.2452 29.6205C45.1672 28.6926 47.2217 26.2405 47.0892 24.7162C40.9256 26.9695 28.6648 23.4569 27.6706 28.7589C27.4718 29.8856 28.002 31.6087 28.5985 32.0727C28.731 31.7413 29.2612 30.5483 30.9844 30.2832C39.335 29.024 46.4264 41.7488 40.6605 47.3159H59.5489C53.7167 41.7488 60.8081 29.024 69.2913 30.2832C71.0144 30.5483 71.5446 31.675 71.6772 32.0727Z" fill="white"/>
<path d="M18.7889 25.374C19.6501 24.7115 22.8964 22.8565 22.1014 26.3677C22.4326 26.3677 23.5589 25.639 23.5589 24.579C23.5589 22.3927 20.5114 21.399 20.5114 19.2127C20.5114 16.0327 25.5464 16.0327 25.4139 16.5627C24.5527 19.4115 26.2089 22.9227 30.979 23.1215C31.0452 23.0552 30.979 22.459 30.979 22.459C26.9377 22.459 25.1489 18.1527 28.2627 15.1714C26.5402 9.87139 24.0227 15.1714 21.8364 16.5627C20.5776 17.3577 17.1989 16.8939 16.9339 18.4177C16.6026 20.6702 20.5114 20.604 18.7889 25.374Z" fill="white"/>
<path d="M37.4121 85.4893C36.9483 85.4893 36.2858 85.4231 35.6233 85.2243C34.8283 86.0856 34.1658 86.9469 33.9008 87.8744C33.3708 89.3319 35.0933 91.3856 37.1471 91.7831C37.2133 91.7831 37.2133 91.7831 37.2796 91.7831L37.3458 91.7169C37.8096 89.3981 39.0683 87.2781 40.6584 85.5556L37.4121 85.4893Z" fill="white"/>
<path d="M51.4619 87.6762L50.1369 89.8625L48.6793 87.7425C48.4806 87.4112 48.2156 87.1462 47.8843 86.9475C47.2881 89.0675 46.5593 92.115 46.5593 94.6988C46.5593 96.6863 49.5406 98.1438 50.0043 98.2763C50.5344 98.0775 53.5156 96.6863 53.5156 94.6988C53.5156 92.1813 52.7869 89.0675 52.1906 87.0137C51.8594 87.1462 51.5944 87.4112 51.4619 87.6762Z" fill="white"/>
<path d="M57.0295 85.5561C55.7045 85.5561 54.5782 85.8211 53.717 86.1524C54.9757 88.4711 56.102 91.5187 56.3007 94.9637C56.3007 95.0299 56.367 95.0962 56.4995 95.0962C58.222 94.6324 60.342 92.9099 59.9445 90.9887C59.4145 88.9349 58.3545 87.0799 57.0295 85.5561Z" fill="white"/>
<path d="M40.1967 90.9224C39.733 92.8437 41.853 94.5662 43.6418 95.0299C43.708 95.0299 43.8405 94.9637 43.8405 94.8974C44.0393 91.4524 45.1655 88.3386 46.4243 86.0861C45.4968 85.7549 44.3705 85.5561 43.0455 85.5561C41.7205 87.0799 40.7267 88.9349 40.1967 90.9224Z" fill="white"/>
<path d="M64.4519 85.2243C63.7894 85.4231 63.1269 85.4893 62.6631 85.4893H59.4169C61.0069 87.2119 62.3319 89.3319 62.7294 91.6506C62.7294 91.7169 62.7294 91.7169 62.7956 91.7169C62.7956 91.7169 62.8619 91.7169 62.9281 91.7169C64.9819 91.3194 66.7044 89.2656 66.1744 87.8081C65.8432 86.9468 65.2469 86.0856 64.4519 85.2243Z" fill="white"/>
<path d="M52.3898 4.63377L50.071 1.785L47.686 4.63377L50.071 7.68129L52.3898 4.63377Z" fill="white"/>
<path d="M96.9948 42.4115C95.8018 43.0079 88.7767 46.3217 79.7633 45.0624C79.8296 44.6648 79.9621 44.2009 80.0284 43.7369C85.9931 43.0079 90.8975 42.0138 93.9461 40.2907C97.4587 38.3024 99.0493 33.5969 97.2599 30.1506C97.1936 30.0843 97.061 30.0181 96.9948 30.1506C96.0006 31.2773 89.9033 37.971 80.1609 40.0256C80.1609 39.4954 80.0947 39.0314 80.0284 38.5012C84.7339 35.8502 89.3069 32.7353 91.4939 29.9518C94.8077 25.7102 94.4763 20.2756 91.3614 17.4921C91.3614 17.4921 91.2951 17.4258 91.2288 17.4258C91.1626 17.4258 91.1626 17.4258 91.0963 17.4921C90.1022 19.149 80.7574 34.1934 70.5511 40.6883C70.4185 40.7546 70.286 40.8209 70.1534 40.9534C69.8883 41.1522 69.8221 41.4836 70.0872 41.7487C71.2801 42.8091 72.0091 44.3334 72.0091 45.924C72.0091 48.575 70.0872 50.8284 67.5024 51.5574V54.5398L67.9001 56.4617C68.4966 60.0406 69.557 62.9567 70.8825 64.5473C73.1358 67.132 76.7809 67.0657 78.3052 65.2763C78.3052 65.2763 78.3715 65.21 78.3052 65.1437C78.3052 65.0775 78.3052 65.0775 78.239 65.0775C77.3111 64.5473 72.0091 61.2998 70.9487 55.9315C71.3464 55.799 71.8103 55.6002 72.1417 55.4013C73.8648 58.2512 76.317 60.7696 78.3715 61.6974C81.7515 63.288 84.8002 62.559 86.192 60.1731C86.2582 60.1068 86.192 59.9743 86.0594 59.9743C84.0049 59.7755 77.5762 57.9861 74.859 53.4794C75.1903 53.2143 75.4554 52.8829 75.7868 52.5515C78.6366 54.7386 82.6794 56.6606 85.5292 57.0582C88.9092 57.5221 92.7532 56.4617 92.8194 52.4852C92.8194 52.419 92.7532 52.3527 92.6869 52.3527C91.494 52.419 83.541 52.7503 77.8413 49.5029C78.0401 49.1052 78.239 48.7738 78.3715 48.3762C78.3715 48.3762 86.921 50.4307 90.9637 49.7017C95.0065 49.0389 97.3261 46.0566 96.9285 42.2789C97.1936 42.4115 97.1273 42.3452 96.9948 42.4115Z" fill="white"/>
<path d="M27.9361 45.9899C27.9361 44.333 28.6651 42.875 29.8581 41.8146C30.1232 41.6158 30.0569 41.2181 29.7918 41.0193C29.6592 40.953 29.5267 40.8867 29.3941 40.7542C19.1878 34.2593 9.84304 19.2149 8.84892 17.558C8.78264 17.4917 8.71637 17.4917 8.65009 17.558C5.53518 20.3415 5.2038 25.7098 8.51754 30.0177C10.7046 32.8012 15.2776 35.9161 19.9831 38.5671C19.9168 39.0973 19.8505 39.5613 19.8505 40.0914C10.1744 38.0369 4.01085 31.3432 3.01673 30.2165C2.95046 30.1502 2.81791 30.1502 2.75163 30.2165C0.962209 33.7291 2.48653 38.4346 6.06537 40.3566C9.18029 42.0797 14.0184 43.0738 19.9831 43.8028C20.0494 44.2668 20.1156 44.6644 20.2482 45.1283C11.2348 46.3213 4.27595 43.0738 3.01673 42.4773C2.95046 42.4111 2.81791 42.4773 2.81791 42.6099C2.35398 46.3213 4.73988 49.3699 8.78264 50.0327C12.8254 50.6954 21.3749 48.7072 21.3749 48.7072C21.5737 49.1048 21.7062 49.5025 21.9051 49.8339C16.2717 53.0813 8.31872 52.75 7.0595 52.6837C6.99322 52.6837 6.92695 52.75 6.92695 52.8162C6.99322 56.7264 10.8372 57.8531 14.2172 57.3892C17.1333 56.9915 21.1098 55.0696 23.9596 52.8825C24.2247 53.2139 24.5561 53.479 24.8874 53.8104C22.1702 58.2508 15.7415 60.1065 13.687 60.3053C13.5544 60.3053 13.5544 60.4378 13.5544 60.5041C14.9462 62.89 17.9949 63.6853 21.3749 62.0284C23.3631 61.0343 25.8816 58.5159 27.6047 55.7323C28.0024 55.9311 28.4 56.0637 28.7977 56.2625C27.7373 61.6308 22.4353 64.8783 21.5074 65.4085C21.4411 65.4085 21.4411 65.4747 21.4411 65.4747C21.4411 65.541 21.4411 65.541 21.4411 65.6073C23.0317 67.3967 26.6769 67.3967 28.8639 64.8783C30.2557 63.2877 31.3161 60.3716 31.8463 56.7927L32.2439 54.8708V51.8884C29.8581 50.8943 27.9361 48.7072 27.9361 45.9899Z" fill="white"/>
<path d="M37.6776 13.2492L36.0214 11.2617L34.3651 13.2492L36.0214 15.2367L37.6776 13.2492Z" fill="white"/>
<path d="M32.9065 23.1922H39.1363C44.372 23.1922 46.6916 20.011 47.4207 17.2274H52.7227C53.4517 20.011 55.7713 23.1922 61.007 23.1922H67.2368C67.2368 23.1922 68.2972 21.7341 68.5623 21.0051C69.5565 18.3541 68.2972 17.1612 66.4416 17.1612L64.0557 19.282L61.6698 17.1612C59.8141 17.1612 58.6211 18.3541 59.549 21.0051C59.6815 21.3365 59.9466 21.8004 60.278 22.2643C58.0909 21.933 55.2411 20.4749 54.6446 17.2274C54.6446 17.2274 56.3015 14.6427 56.6991 13.5823C58.1572 9.80466 56.3015 8.28033 53.5842 8.28033L50.0717 12.4557L46.5591 8.28033C43.8418 8.28033 41.9198 9.80466 43.4442 13.5823C43.8418 14.6427 45.4987 17.2274 45.4987 17.2274C44.9022 20.4749 42.0524 21.933 39.8653 22.2643C40.1304 21.8004 40.4618 21.3365 40.5943 21.0051C41.5885 18.3541 40.3293 17.1612 38.4736 17.1612L36.0877 19.282L33.7018 17.1612C31.8461 17.1612 30.6531 18.3541 31.581 21.0051C31.8461 21.7341 32.9065 23.1922 32.9065 23.1922Z" fill="white"/>
<path d="M51.3307 55.0038C51.1319 55.2026 50.9331 55.2689 50.668 55.2689C50.4029 55.2689 50.2041 55.2026 50.0052 55.0038C49.8064 54.805 49.7401 54.6062 49.7401 54.3411C49.7401 54.076 49.8064 53.8771 50.0052 53.6783C50.2041 53.4795 50.4029 53.4132 50.668 53.4132C50.9331 53.4132 51.1319 53.4795 51.3307 53.6783C51.5296 53.8771 51.5958 54.076 51.5958 54.3411C51.5958 54.6062 51.5296 54.805 51.3307 55.0038ZM49.6076 58.3838C49.4088 58.5827 49.2099 58.6489 48.9448 58.6489C48.4146 58.6489 48.017 58.2513 48.017 57.7211C48.017 57.456 48.0833 57.2572 48.2821 57.0583C48.4809 56.8595 48.6797 56.7932 48.9448 56.7932C49.475 56.7932 49.8727 57.1909 49.8727 57.7211C49.8727 57.9862 49.8064 58.2513 49.6076 58.3838ZM52.3911 56.8595C52.6562 56.8595 52.8551 56.9258 53.0539 57.1246C53.2527 57.3234 53.319 57.5223 53.319 57.7874C53.319 58.0525 53.2527 58.2513 53.0539 58.4501C52.8551 58.6489 52.6562 58.7152 52.3911 58.7152C52.126 58.7152 51.9272 58.6489 51.7284 58.4501C51.5296 58.2513 51.4633 58.0525 51.4633 57.7874C51.4633 57.5223 51.5296 57.3234 51.7284 57.1246C51.9272 56.9921 52.126 56.8595 52.3911 56.8595ZM59.8802 64.7462L63.6579 60.9686C63.923 60.7035 63.7241 59.9744 63.1277 59.3117C62.4649 58.6489 61.7359 58.5164 61.4708 58.7815L57.6931 62.5592L55.8374 64.4148L51.5296 68.7227V64.2823V60.1733H52.4574C53.1202 60.1733 53.7166 59.9082 54.2468 59.4442C54.7108 58.9803 54.9759 58.3176 54.9759 57.6548C54.9759 56.5281 54.1806 55.534 53.0539 55.2689C53.1864 54.9375 53.2527 54.6062 53.2527 54.2748C53.2527 52.883 52.126 51.7563 50.7343 51.7563C50.0715 51.7563 49.4088 52.0214 48.9448 52.4854C48.4809 52.9493 48.2158 53.612 48.2158 54.2748C48.2158 54.6062 48.2821 54.9375 48.4147 55.2689C47.9507 55.4015 47.5531 55.6003 47.2217 55.9317C46.7578 56.3956 46.4927 56.9921 46.4927 57.6548C46.4927 59.0466 47.6193 60.1733 49.0111 60.1733H49.939V69.7168L43.908 63.6858C43.908 63.4207 43.8417 63.1556 43.6429 62.9568L43.3778 62.6917L44.637 61.4325H44.7033C44.9684 61.4325 45.1672 61.3662 45.366 61.1674C45.5648 60.9686 45.6311 60.7697 45.6311 60.5046C45.6311 60.2395 45.5648 60.0407 45.366 59.8419L43.1789 57.6548C42.9801 57.456 42.7813 57.3897 42.5162 57.3897C42.2511 57.3897 42.0523 57.456 41.8534 57.6548C41.6546 57.8536 41.5883 58.0525 41.5883 58.3176V58.3838L37.2805 62.6917C37.0154 62.6917 36.7503 62.758 36.5514 62.9568C36.2201 63.2882 36.2201 63.8846 36.5514 64.216L38.7385 66.4031C38.9373 66.6019 39.1362 66.6682 39.4013 66.6682C39.6664 66.6682 39.8652 66.6019 40.064 66.4031C40.2628 66.2043 40.3291 65.9392 40.3291 65.6741L41.5883 64.4148L41.8534 64.6799C42.0523 64.8788 42.2511 64.945 42.5162 64.945H42.5825L48.9448 71.3074L44.1731 76.0792C44.637 76.1455 45.1009 76.4106 45.5648 76.8745C45.9625 77.2722 46.2276 77.7361 46.2939 78.1338V78.5977C46.2939 78.5977 46.2939 78.6639 46.2276 78.7302C46.2276 78.7965 46.1613 78.929 46.095 78.9953C46.0288 79.0616 45.9625 79.1279 45.8299 79.1941C45.7637 79.1941 45.7637 79.2604 45.6974 79.2604C45.6974 79.2604 45.6974 79.3267 45.7637 79.393C45.8299 79.4592 45.8299 79.5918 45.8299 79.7243C45.8299 79.8569 45.7637 79.9232 45.7637 80.0557C45.7637 80.122 45.6974 80.1883 45.6974 80.1883C45.6974 80.1883 45.7637 80.2545 45.8299 80.2545C45.8962 80.3208 46.0288 80.3871 46.095 80.4534C46.1613 80.5196 46.1613 80.6522 46.2276 80.7185C46.2276 80.7847 46.2276 80.851 46.2939 80.851C46.2939 80.851 46.2939 80.851 46.3601 80.851H46.4264C46.4927 80.851 46.4927 80.851 46.559 80.851C46.6252 80.851 46.6915 80.851 46.7578 80.851C46.8903 80.9173 46.9566 80.9836 47.0229 80.9836C47.0892 80.9836 47.1554 81.0498 47.1554 81.0498C47.1554 81.0498 47.2217 80.9836 47.288 80.9836C47.3543 80.9173 47.4205 80.851 47.5531 80.851C47.6194 80.851 47.6856 80.851 47.7519 80.851C47.8182 80.851 47.8182 80.851 47.8845 80.851H47.9507H48.017C48.017 80.851 48.017 80.7847 48.0833 80.7185C48.0833 80.6522 48.1496 80.5196 48.2158 80.4534C48.2821 80.3871 48.3484 80.3208 48.4809 80.2545C48.5472 80.2545 48.5472 80.1883 48.6135 80.1883C48.6135 80.1883 48.6135 80.122 48.5472 80.0557C48.4809 79.9894 48.4809 79.8569 48.4809 79.7243C48.4809 79.5918 48.5472 79.5255 48.5472 79.393C48.5472 79.3267 48.6135 79.2604 48.6135 79.2604C48.6135 79.2604 48.5472 79.1941 48.4809 79.1941C48.4147 79.1279 48.2821 79.0616 48.2158 78.9953C48.1496 78.929 48.1496 78.7965 48.0833 78.7302C48.0833 78.6639 48.0833 78.5977 48.017 78.5977C48.017 78.5977 48.017 78.5977 47.9507 78.5977H47.8845C47.8182 78.5977 47.8182 78.5977 47.7519 78.5977C47.6856 78.5977 47.6194 78.5977 47.5531 78.5977C47.4205 78.5314 47.3543 78.4651 47.288 78.4651C47.2217 78.4651 47.1554 78.3988 47.1554 78.3988C47.1554 78.3988 47.0892 78.4651 47.0229 78.4651C46.9566 78.5314 46.8903 78.5977 46.7578 78.5977C46.6915 78.5977 46.6252 78.5977 46.559 78.5977H46.4927V78.2L49.939 74.7537V80.122C49.939 80.3871 50.1378 80.5859 50.4029 80.5859H52.1923C52.3249 80.5859 52.4574 80.5196 52.5237 80.4534C52.59 80.3871 52.6562 80.2545 52.6562 80.122V79.4592C52.6562 79.1942 52.4574 78.9953 52.1923 78.9953H51.5296V78.3326H52.1923C52.3249 78.3326 52.4574 78.2663 52.5237 78.2C52.59 78.1337 52.6562 78.0012 52.6562 77.8686V77.2059C52.6562 76.9408 52.4574 76.742 52.1923 76.742H51.5296V76.0792V73.9584L56.3014 78.7302C56.5002 78.929 56.699 78.9953 56.9641 78.9953C57.2292 78.9953 57.428 78.929 57.6269 78.7302C57.9582 78.3988 57.9582 77.8024 57.6269 77.471L52.3911 72.2353L58.0245 66.6019L59.8802 64.7462Z" fill="white"/>
<path d="M45.1663 77.2707C44.5038 76.6082 43.775 76.4757 43.51 76.7407C43.245 77.0057 43.4438 77.7345 44.04 78.397C44.7025 79.0595 45.4313 79.192 45.6963 78.927C45.9613 78.662 45.8288 77.9332 45.1663 77.2707Z" fill="white"/>
<path d="M47.7516 81.3809C47.6854 81.3809 47.6854 81.3809 47.7516 81.3809C47.6854 81.3809 47.6191 81.4472 47.5529 81.4472C47.4204 81.5134 47.2879 81.6459 47.1554 81.6459C46.9566 81.6459 46.8241 81.5134 46.7579 81.4472C46.6916 81.3809 46.6916 81.3809 46.6254 81.3809C46.6254 81.3809 46.6254 81.3809 46.5591 81.3809H46.4929H46.4266V83.4347L47.0891 83.0372C47.1554 82.9709 47.2216 82.9709 47.3541 83.0372L48.0166 83.4347V81.3809H47.9504C47.8179 81.3809 47.7516 81.3809 47.7516 81.3809Z" fill="white"/>
</svg>
