<svg xmlns="http://www.w3.org/2000/svg" width="242" height="118" viewBox="0 0 242 118">
  <g fill="none">
    <path fill="#FFFFFE" d="M212,109.938633 L212,4.06136717 C212,1.81864232 210.187763,0 207.951705,0 L26.049295,0 C23.8132365,0 22,1.81864232 22,4.06136717 L22,109.938633 C22,112.18236 23.8132365,114 26.049295,114 L207.951705,114 C210.187763,114 212,112.18236 212,109.938633"/>
    <circle cx="117" cy="6" r="2" fill="#306772"/>
    <polygon fill="#42484E" points="27 98.871 27 11 207 11.13 207 99"/>
    <path fill="#38927A" d="M232,109 L2,109 C2,109 6.80932102,118 9.31853199,118 L224.099187,118 C226.608398,118 232,109 232,109"/>
    <path fill="#4B9097" d="M135 68L135 75.7643564C135.001007 77 136.0185 77.9990099 137.27475 78L168 78 168 75.7465347 137.27475 75.7465347 137.27475 75.7643564 137.292884 75.7643564 137.27475 75.7465347 137.27475 75.7643564 137.292884 75.7643564 137.292884 68 135 68M110.63763 28.9414997L123.182682 25.2415064 122.864365 24.1438719 122.864365 25.2877438 122.864365 25.270656 122.847402 25.270656 122.864365 25.2877438 122.864365 25.270656 122.847402 25.270656 122.847402 25.4294713 134.814694 68 137 67.3768009 125.075615 24.9590565 123.982963 25.270656 125.118523 25.270656C125.117525 24.0162166 124.10969 23.0010052 122.864365 23L122.701715 23 110 26.7462307 110.63763 28.9414997"/>
    <path fill="#4B9097" d="M182.748716 40.1290216L182.748716 39 126 39 134.530553 69 170.946921 69C171.307844 68.9960281 171.594988 68.9175824 171.886119 68.8153052 172.316835 68.6564279 172.731597 68.4320138 173.111464 68.1182312 173.299902 67.9593539 173.481361 67.777638 173.640885 67.5363432 173.795424 67.2980273 173.94099 66.9782868 173.942984 66.5721568L172.808368 66.5721568 173.849263 67.022971 185 41.4774924 185 41.2421554C184.999003 40.0029127 183.993004 39.000993 182.748716 39L182.748716 41.2590361 182.748716 41.2421554 182.730769 41.2421554 182.748716 41.2590361 182.748716 41.2421554 182.730769 41.2421554 183.865385 41.2421554 182.825487 40.7913412 171.673753 66.3368198 171.673753 66.5721568 172.239067 66.5721568 171.720613 66.3378128C171.702667 66.3755461 171.67475 66.4569707 171.673753 66.5721568L172.239067 66.5721568 171.720613 66.3378128 171.968873 66.4500199 171.737563 66.3050444 171.720613 66.3378128 171.968873 66.4500199 171.737563 66.3050444 171.749527 66.3129882 171.73856 66.3040514 171.737563 66.3050444 171.749527 66.3129882 171.73856 66.3040514C171.72161 66.3368198 171.525196 66.5036409 171.318812 66.6009533 171.216118 66.6525884 171.11143 66.6942937 171.033662 66.7171323L170.946921 66.7379849 170.946921 66.7419568 170.946921 66.7379849 170.946921 66.7419568 170.946921 66.7399709 136.245437 66.7399709 129.001048 41.2590361 182.748716 41.2590361 182.748716 40.1290216M169.893371 80.5L168.785768 80.5C168.782848 81.7622189 167.761869 82.7830882 166.499513 82.7850346 165.238131 82.7830882 164.217152 81.7622189 164.215205 80.5 164.217152 79.2387543 165.239105 78.2169118 166.499513 78.2149654 167.761869 78.2169118 168.782848 79.2387543 168.785768 80.5L171 80.5C171 78.0144896 168.986266 76.0009732 166.499513 76 164.013734 76.0009732 162.000973 78.0144896 162 80.5 162.000973 82.9855104 164.013734 84.9990268 166.499513 85 168.986266 84.9990268 171 82.9855104 171 80.5L169.893371 80.5M138.892517 80.5L137.785035 80.5C137.783088 81.7622189 136.761246 82.7830882 135.500973 82.7850346 134.237781 82.7830882 133.216912 81.7622189 133.214965 80.5 133.216912 79.2387543 134.238754 78.2169118 135.500973 78.2149654 136.761246 78.2169118 137.783088 79.2387543 137.785035 80.5L140 80.5C139.999027 78.0144896 137.986484 76.0009732 135.500973 76 133.01449 76.0009732 131.000973 78.0144896 131 80.5 131.000973 82.9855104 133.01449 84.9990268 135.500973 85 137.98551 84.9990268 139.999027 82.9855104 140 80.5L138.892517 80.5"/>
    <polyline fill="#4B9097" points="135 40.593 142.71 69 145 68.406 137.289 40"/>
    <polyline fill="#4B9097" points="144 40.593 151.71 69 154 68.406 146.29 40"/>
    <polyline fill="#4B9097" points="154 40.593 161.71 69 164 68.406 156.289 40"/>
    <polyline fill="#4B9097" points="163 40.593 170.71 69 173 68.406 165.29 40"/>
    <polyline fill="#4B9097" points="172 40.597 175.953 57 178 56.403 174.048 40"/>
    <polygon fill="#4B9097" points="132 55 178 55 178 53 132 53"/>
    <path fill="#FFFFFE" d="M104,78.852665 C104,81.6958212 101.686215,84 98.8324471,84 L50.1665474,84 C47.3127791,84 45,81.6958212 45,78.852665 L45,30.1483368 C45,27.3051806 47.3127791,25 50.1665474,25 L98.8324471,25 C101.686215,25 104,27.3051806 104,30.1483368 L104,78.852665"/>
    <path fill="#38927A" d="M85.659493,49.4745877 C84.9047177,48.9026035 82.6708182,48.5275809 79.8892404,48.3306194 C80.2033212,42.8475299 80.3986402,35.7937223 79.4171378,34.7402768 C78.3806713,33.6281407 70.8672704,33.886777 69.7522837,34.7402768 C68.5371837,35.6703727 68.7864853,42.8196768 69.1761418,48.3564831 C66.2797282,48.5663764 63.9810496,48.945378 63.339147,49.4745877 C60.9521332,51.442213 71.8556433,64 74.4988293,64 C76.8122304,64 88.08773,51.3168739 85.659493,49.4745877"/>
    <polygon fill="#38927A" points="61 74 89 74 89 69 61 69"/>
    <polyline fill="#FFFFFE" points="242 78.005 215.743 63.397 228.726 48.913 170 43 205.283 90 211.349 71.058 237.646 85.689 242 78.005"/>
    <path fill="#AC372C" d="M45,56.6542724 C45,44.1426253 34.9290862,34 22.5071297,34 C21.3141674,34 20.1421343,34.0953632 19,34.2750474 C30.3794848,35.399329 39.2713891,45.0631308 39.2713891,56.8199032 C39.2713891,66.5158274 25.4980067,91.4096284 19.2969948,102.12644 C20.9763109,105.144936 22.0566544,107 22.0566544,107 C22.0566544,107 45,69.1669234 45,56.6542724"/>
    <path fill="#B9463D" d="M22.9185072,70.4692794 C22.0279259,70.4692794 21.1617162,70.3737073 20.3249556,70.1976536 C14.6900228,69.0145725 10.460523,64.0619295 10.460523,58.1274096 C10.460523,52.4252807 14.3701447,47.6396372 19.6760599,46.2231592 C20.7108403,45.9465033 21.7953795,45.7865459 22.9185072,45.7865459 C29.7994415,45.7865459 35.3764915,51.3116151 35.3764915,58.1274096 C35.3764915,64.9442102 29.7994415,70.4692794 22.9185072,70.4692794 Z M19.3450114,34 C8.38486926,35.7011821 0,45.0944033 0,56.4282396 C0,66.1946947 13.6217314,91.3492521 19.6476263,102 C25.9659812,91.2597162 40,66.3113932 40,56.5942331 C40,44.8117113 30.9398324,35.1267439 19.3450114,34 Z"/>
    <path fill="#AC372C" d="M34,104 C35.6571841,104 37.0003334,105.282223 37.0003334,106.864235 L37.0003334,107.526828 C37.0003334,108.068169 36.8343149,108.568455 36.5612846,109 L42.5609512,109 C42.8339816,108.568455 43,108.068169 43,107.526828 L43,106.864235 C43,105.282223 41.6558507,104 39.9996666,104 L34,104 Z"/>
    <path fill="#B9463D" d="M38,106.864235 C38,105.282223 36.6670343,104 35.0224146,104 L4.9775854,104 C3.33296573,104 2,105.282223 2,106.864235 L2,107.526828 C2,108.068169 2.16575225,108.568455 2.43671253,109 L37.56428,109 C37.8352403,108.568455 38,108.068169 38,107.526828 L38,106.864235"/>
  </g>
</svg>
