<svg xmlns="http://www.w3.org/2000/svg" width="253" height="125" viewBox="0 0 253 125">
  <g fill="none">
    <path fill="#FFFFFE" d="M54,61 L108,61 C108,54.315608 107.170372,47.8211606 104.975464,41.9064941 L54,61 Z"/>
    <path fill="#38927A" d="M54,7 L54,61 L93,23.2308013 C83.0943543,13.216611 69.2823816,7 54,7"/>
    <path fill="#ECA431" d="M92.8919955,23 L54,61 L105,42.0006299 C102.317184,34.8264213 98.1579364,28.3715233 92.8919955,23"/>
    <path fill="#AC372C" d="M54,61 L54,115 C83.8234558,115 108,90.8234558 108,61 L54,61"/>
    <path fill="#D5D5D5" d="M54,115 L54,61 L29,108.759599 C36.4622604,112.742487 44.9685669,115 54,115"/>
    <path fill="#54B89D" d="M0,61.1275716 C0,81.8910326 11.6656928,99.922261 28.7854758,109 L54,61.1275716 L54,7 C24.1777963,7 0,31.2336598 0,61.1275716"/>
    <polyline fill="#FFFFFE" points="18.73 67 41 34.14 39.269 33 17 65.859"/>
    <path fill="#FFFFFE" d="M27.0167158 42.4871497L26.0334317 42.4871497C26.0324484 43.2858065 25.4169125 43.9325843 24.6568338 43.9336175L22.3441495 43.9336175C21.5840708 43.9325843 20.9685349 43.2858065 20.9665683 42.4871497L20.9665683 33.5138835C20.9685349 32.7152267 21.5840708 32.0684489 22.3441495 32.0663825L24.6568338 32.0663825C25.4169125 32.0684489 26.0324484 32.7152267 26.0334317 33.5138835L26.0334317 42.4871497 28 42.4871497 28 33.5138835C27.9990167 31.5725171 26.5034415 30.0010332 24.6568338 30L22.3441495 30C20.4965585 30.0010332 19.0009833 31.5725171 19 33.5138835L19 42.4871497C19.0009833 44.4274829 20.4965585 45.9989668 22.3441495 46L24.6568338 46C26.5034415 45.9989668 27.9990167 44.4274829 28 42.4871497L27.0167158 42.4871497M38.182403 64.5529567C38.1814081 65.3364217 37.5586119 65.9708966 36.7895679 65.9729237L34.4496048 65.9729237C33.679566 65.9708966 33.0567697 65.3374352 33.0557748 64.5529567L33.0557748 55.7503776C33.0567697 54.9669126 33.679566 54.3324377 34.4496048 54.3314242L36.7895679 54.3314242C37.5586119 54.3324377 38.1814081 54.9679261 38.182403 55.7503776L38.182403 64.5529567 40.1721675 64.5529567 40.1721675 55.7503776C40.1721675 53.8469529 38.6579567 52.3053614 36.7895679 52.3043478L34.4496048 52.3043478C32.5802211 52.3053614 31.0670052 53.8469529 31.0660103 55.7503776L31.0660103 64.5529567C31.0670052 66.4573949 32.5802211 67.9989865 34.4496048 68L36.7895679 68C38.6579567 67.9989865 40.1721675 66.4573949 40.1721675 64.5529567L39.1772853 64.5529567 38.182403 64.5529567z"/>
    <polyline fill="#FFFFFE" points="132.082 36 149 10.406 146.918 9 130 34.593"/>
    <path fill="#FFFFFE" d="M137.772441 15.8902833L136.544883 15.8902833C136.544883 16.2413006 136.261317 16.5268112 135.91269 16.5280472L134.088538 16.5280472C133.738683 16.5268112 133.455117 16.2413006 133.455117 15.8902833L133.455117 9.10971668C133.455117 8.75869937 133.738683 8.47318882 134.088538 8.47195284L135.91269 8.47195284C136.260089 8.47318882 136.544883 8.75869937 136.544883 9.10971668L136.544883 15.8902833 139 15.8902833 139 9.10971668C138.998772 7.39294543 137.618996 6.00123598 135.91269 6L134.088538 6C132.382231 6.00123598 131 7.39170945 131 9.10971668L131 15.8902833C131 17.6082905 132.382231 18.998764 134.088538 19L135.91269 19C137.617769 18.998764 139 17.6070546 139 15.8902833L137.772441 15.8902833M146.772441 32.8899876L145.544883 32.8899876C145.544883 33.2410383 145.261317 33.526576 144.91269 33.5278121L143.08731 33.5278121C142.738683 33.526576 142.455117 33.2410383 142.455117 32.8899876L142.455117 26.1100124C142.455117 25.7577256 142.738683 25.4721879 143.08731 25.4721879L144.91269 25.4721879C145.261317 25.4721879 145.544883 25.7577256 145.544883 26.1100124L145.544883 32.8899876 148 32.8899876 148 26.1100124C148 24.3918418 146.617769 23 144.91269 23L143.08731 23C141.381004 23 140 24.3918418 140 26.1100124L140 32.8899876C140 34.6081582 141.382231 35.9987639 143.08731 36L144.91269 36C146.617769 35.9987639 147.998772 34.6081582 148 32.8899876L146.772441 32.8899876"/>
    <polyline fill="#ECA431" points="107.652 124 114.394 84.722 124.248 83.019 136.881 66.261 146.912 89.065 164.161 53.996 171.951 66.124 195.45 32.268 197.867 41.608 210.683 45.667 219.322 35.865 240 26.538 239.315 25 218.308 34.477 210.149 43.731 199.254 40.281 196.156 28.306 172.005 63.102 163.968 50.588 146.997 85.091 137.263 62.965 123.312 81.47 112.945 83.263 106 123.714 107.652 124"/>
    <path fill="#B9463D" d="M143 65.0006025C143 67.761176 140.761176 70 137.999398 70 135.237619 70 133 67.761176 133 65.0006025 133 62.238824 135.237619 60 137.999398 60 140.761176 60 143 62.238824 143 65.0006025M201 30.5C201 33.5368253 198.536825 36 195.5 36 192.461917 36 190 33.5368253 190 30.5 190 27.4619167 192.461917 25 195.5 25 198.536825 25 201 27.4619167 201 30.5M179 63.5C179 66.5368253 176.536825 69 173.5 69 170.461917 69 168 66.5368253 168 63.5 168 60.4619167 170.461917 58 173.5 58 176.536825 58 179 60.4619167 179 63.5"/>
    <polyline fill="#4B9097" points="108.177 122 121.814 82.715 142.309 80.975 153.552 49.407 179.555 37.582 184.791 64.27 204.569 39.916 212.05 39.916 224.043 19.776 232.305 10.44 253 1.139 252.49 0 231.55 9.41 223.032 19.037 211.343 38.668 203.977 38.668 185.501 61.418 180.473 35.793 152.555 48.49 141.406 79.799 120.903 81.539 107 121.589 108.177 122"/>
    <polygon fill="#ECA431" points="104 125 250 125 250 115 104 115"/>
  </g>
</svg>
